%TF.GenerationSoftware,KiCad,Pcbnew,(7.0.0-0)*%
%TF.CreationDate,2023-11-01T15:12:36+02:00*%
%TF.ProjectId,Untitled,556e7469-746c-4656-942e-6b696361645f,rev?*%
%TF.SameCoordinates,Original*%
%TF.FileFunction,Drillmap*%
%TF.FilePolarity,Positive*%
%FSLAX45Y45*%
G04 Gerber Fmt 4.5, Leading zero omitted, Abs format (unit mm)*
G04 Created by KiCad (PCBNEW (7.0.0-0)) date 2023-11-01 15:12:36*
%MOMM*%
%LPD*%
G01*
G04 APERTURE LIST*
%ADD10C,0.100000*%
%ADD11C,0.200000*%
%ADD12C,0.239000*%
%ADD13C,0.320000*%
%ADD14C,0.345000*%
G04 APERTURE END LIST*
D10*
X19798000Y-2300000D02*
X19797000Y-11662000D01*
X9641000Y-11281000D02*
G75*
G03*
X9233000Y-10870000I-409500J1500D01*
G01*
X8427500Y-7594000D02*
X8427500Y-10876000D01*
X9160000Y-7590000D02*
X8427500Y-7594000D01*
X19798000Y-2300000D02*
X9560000Y-2300000D01*
X9641000Y-11662000D02*
X19797000Y-11662000D01*
X9560000Y-2300000D02*
X9560000Y-7180000D01*
X9641000Y-11281000D02*
X9641000Y-11662000D01*
X9160000Y-7590000D02*
G75*
G03*
X9560000Y-7180000I-5000J405000D01*
G01*
X9233000Y-10870000D02*
X8427500Y-10876000D01*
D11*
D12*
X17834660Y-4226340D02*
X18073660Y-4465340D01*
X18073660Y-4226340D02*
X17834660Y-4465340D01*
D13*
X10680000Y-6990000D02*
G75*
G03*
X10680000Y-6990000I-160000J0D01*
G01*
X15214000Y-6823000D02*
G75*
G03*
X15214000Y-6823000I-160000J0D01*
G01*
X18120000Y-10609000D02*
G75*
G03*
X18120000Y-10609000I-160000J0D01*
G01*
X19356000Y-2879000D02*
G75*
G03*
X19356000Y-2879000I-160000J0D01*
G01*
D14*
X11601160Y-4173340D02*
X11601160Y-4518340D01*
X11428660Y-4345840D02*
X11773660Y-4345840D01*
X17121160Y-2573340D02*
X17121160Y-2918340D01*
X16948660Y-2745840D02*
X17293660Y-2745840D01*
D11*
X8670119Y-11960476D02*
X8670119Y-11760476D01*
X8670119Y-11760476D02*
X8717738Y-11760476D01*
X8717738Y-11760476D02*
X8746310Y-11770000D01*
X8746310Y-11770000D02*
X8765357Y-11789048D01*
X8765357Y-11789048D02*
X8774881Y-11808095D01*
X8774881Y-11808095D02*
X8784405Y-11846190D01*
X8784405Y-11846190D02*
X8784405Y-11874762D01*
X8784405Y-11874762D02*
X8774881Y-11912857D01*
X8774881Y-11912857D02*
X8765357Y-11931905D01*
X8765357Y-11931905D02*
X8746310Y-11950952D01*
X8746310Y-11950952D02*
X8717738Y-11960476D01*
X8717738Y-11960476D02*
X8670119Y-11960476D01*
X8870119Y-11960476D02*
X8870119Y-11827143D01*
X8870119Y-11865238D02*
X8879643Y-11846190D01*
X8879643Y-11846190D02*
X8889167Y-11836667D01*
X8889167Y-11836667D02*
X8908214Y-11827143D01*
X8908214Y-11827143D02*
X8927262Y-11827143D01*
X8993929Y-11960476D02*
X8993929Y-11827143D01*
X8993929Y-11760476D02*
X8984405Y-11770000D01*
X8984405Y-11770000D02*
X8993929Y-11779524D01*
X8993929Y-11779524D02*
X9003452Y-11770000D01*
X9003452Y-11770000D02*
X8993929Y-11760476D01*
X8993929Y-11760476D02*
X8993929Y-11779524D01*
X9117738Y-11960476D02*
X9098690Y-11950952D01*
X9098690Y-11950952D02*
X9089167Y-11931905D01*
X9089167Y-11931905D02*
X9089167Y-11760476D01*
X9222500Y-11960476D02*
X9203452Y-11950952D01*
X9203452Y-11950952D02*
X9193929Y-11931905D01*
X9193929Y-11931905D02*
X9193929Y-11760476D01*
X9418690Y-11960476D02*
X9418690Y-11760476D01*
X9418690Y-11760476D02*
X9485357Y-11903333D01*
X9485357Y-11903333D02*
X9552024Y-11760476D01*
X9552024Y-11760476D02*
X9552024Y-11960476D01*
X9732976Y-11960476D02*
X9732976Y-11855714D01*
X9732976Y-11855714D02*
X9723452Y-11836667D01*
X9723452Y-11836667D02*
X9704405Y-11827143D01*
X9704405Y-11827143D02*
X9666309Y-11827143D01*
X9666309Y-11827143D02*
X9647262Y-11836667D01*
X9732976Y-11950952D02*
X9713929Y-11960476D01*
X9713929Y-11960476D02*
X9666309Y-11960476D01*
X9666309Y-11960476D02*
X9647262Y-11950952D01*
X9647262Y-11950952D02*
X9637738Y-11931905D01*
X9637738Y-11931905D02*
X9637738Y-11912857D01*
X9637738Y-11912857D02*
X9647262Y-11893809D01*
X9647262Y-11893809D02*
X9666309Y-11884286D01*
X9666309Y-11884286D02*
X9713929Y-11884286D01*
X9713929Y-11884286D02*
X9732976Y-11874762D01*
X9828214Y-11827143D02*
X9828214Y-12027143D01*
X9828214Y-11836667D02*
X9847262Y-11827143D01*
X9847262Y-11827143D02*
X9885357Y-11827143D01*
X9885357Y-11827143D02*
X9904405Y-11836667D01*
X9904405Y-11836667D02*
X9913929Y-11846190D01*
X9913929Y-11846190D02*
X9923452Y-11865238D01*
X9923452Y-11865238D02*
X9923452Y-11922381D01*
X9923452Y-11922381D02*
X9913929Y-11941428D01*
X9913929Y-11941428D02*
X9904405Y-11950952D01*
X9904405Y-11950952D02*
X9885357Y-11960476D01*
X9885357Y-11960476D02*
X9847262Y-11960476D01*
X9847262Y-11960476D02*
X9828214Y-11950952D01*
X10009167Y-11941428D02*
X10018690Y-11950952D01*
X10018690Y-11950952D02*
X10009167Y-11960476D01*
X10009167Y-11960476D02*
X9999643Y-11950952D01*
X9999643Y-11950952D02*
X10009167Y-11941428D01*
X10009167Y-11941428D02*
X10009167Y-11960476D01*
X10009167Y-11836667D02*
X10018690Y-11846190D01*
X10018690Y-11846190D02*
X10009167Y-11855714D01*
X10009167Y-11855714D02*
X9999643Y-11846190D01*
X9999643Y-11846190D02*
X10009167Y-11836667D01*
X10009167Y-11836667D02*
X10009167Y-11855714D01*
X8222500Y-12207000D02*
X8422500Y-12407000D01*
X8422500Y-12207000D02*
X8222500Y-12407000D01*
X8660595Y-12199524D02*
X8670119Y-12190000D01*
X8670119Y-12190000D02*
X8689167Y-12180476D01*
X8689167Y-12180476D02*
X8736786Y-12180476D01*
X8736786Y-12180476D02*
X8755833Y-12190000D01*
X8755833Y-12190000D02*
X8765357Y-12199524D01*
X8765357Y-12199524D02*
X8774881Y-12218571D01*
X8774881Y-12218571D02*
X8774881Y-12237619D01*
X8774881Y-12237619D02*
X8765357Y-12266190D01*
X8765357Y-12266190D02*
X8651071Y-12380476D01*
X8651071Y-12380476D02*
X8774881Y-12380476D01*
X8860595Y-12361428D02*
X8870119Y-12370952D01*
X8870119Y-12370952D02*
X8860595Y-12380476D01*
X8860595Y-12380476D02*
X8851071Y-12370952D01*
X8851071Y-12370952D02*
X8860595Y-12361428D01*
X8860595Y-12361428D02*
X8860595Y-12380476D01*
X8936786Y-12180476D02*
X9060595Y-12180476D01*
X9060595Y-12180476D02*
X8993929Y-12256667D01*
X8993929Y-12256667D02*
X9022500Y-12256667D01*
X9022500Y-12256667D02*
X9041548Y-12266190D01*
X9041548Y-12266190D02*
X9051071Y-12275714D01*
X9051071Y-12275714D02*
X9060595Y-12294762D01*
X9060595Y-12294762D02*
X9060595Y-12342381D01*
X9060595Y-12342381D02*
X9051071Y-12361428D01*
X9051071Y-12361428D02*
X9041548Y-12370952D01*
X9041548Y-12370952D02*
X9022500Y-12380476D01*
X9022500Y-12380476D02*
X8965357Y-12380476D01*
X8965357Y-12380476D02*
X8946310Y-12370952D01*
X8946310Y-12370952D02*
X8936786Y-12361428D01*
X9155833Y-12380476D02*
X9193929Y-12380476D01*
X9193929Y-12380476D02*
X9212976Y-12370952D01*
X9212976Y-12370952D02*
X9222500Y-12361428D01*
X9222500Y-12361428D02*
X9241548Y-12332857D01*
X9241548Y-12332857D02*
X9251071Y-12294762D01*
X9251071Y-12294762D02*
X9251071Y-12218571D01*
X9251071Y-12218571D02*
X9241548Y-12199524D01*
X9241548Y-12199524D02*
X9232024Y-12190000D01*
X9232024Y-12190000D02*
X9212976Y-12180476D01*
X9212976Y-12180476D02*
X9174881Y-12180476D01*
X9174881Y-12180476D02*
X9155833Y-12190000D01*
X9155833Y-12190000D02*
X9146310Y-12199524D01*
X9146310Y-12199524D02*
X9136786Y-12218571D01*
X9136786Y-12218571D02*
X9136786Y-12266190D01*
X9136786Y-12266190D02*
X9146310Y-12285238D01*
X9146310Y-12285238D02*
X9155833Y-12294762D01*
X9155833Y-12294762D02*
X9174881Y-12304286D01*
X9174881Y-12304286D02*
X9212976Y-12304286D01*
X9212976Y-12304286D02*
X9232024Y-12294762D01*
X9232024Y-12294762D02*
X9241548Y-12285238D01*
X9241548Y-12285238D02*
X9251071Y-12266190D01*
X9374881Y-12180476D02*
X9393929Y-12180476D01*
X9393929Y-12180476D02*
X9412976Y-12190000D01*
X9412976Y-12190000D02*
X9422500Y-12199524D01*
X9422500Y-12199524D02*
X9432024Y-12218571D01*
X9432024Y-12218571D02*
X9441548Y-12256667D01*
X9441548Y-12256667D02*
X9441548Y-12304286D01*
X9441548Y-12304286D02*
X9432024Y-12342381D01*
X9432024Y-12342381D02*
X9422500Y-12361428D01*
X9422500Y-12361428D02*
X9412976Y-12370952D01*
X9412976Y-12370952D02*
X9393929Y-12380476D01*
X9393929Y-12380476D02*
X9374881Y-12380476D01*
X9374881Y-12380476D02*
X9355833Y-12370952D01*
X9355833Y-12370952D02*
X9346310Y-12361428D01*
X9346310Y-12361428D02*
X9336786Y-12342381D01*
X9336786Y-12342381D02*
X9327262Y-12304286D01*
X9327262Y-12304286D02*
X9327262Y-12256667D01*
X9327262Y-12256667D02*
X9336786Y-12218571D01*
X9336786Y-12218571D02*
X9346310Y-12199524D01*
X9346310Y-12199524D02*
X9355833Y-12190000D01*
X9355833Y-12190000D02*
X9374881Y-12180476D01*
X9527262Y-12380476D02*
X9527262Y-12247143D01*
X9527262Y-12266190D02*
X9536786Y-12256667D01*
X9536786Y-12256667D02*
X9555833Y-12247143D01*
X9555833Y-12247143D02*
X9584405Y-12247143D01*
X9584405Y-12247143D02*
X9603452Y-12256667D01*
X9603452Y-12256667D02*
X9612976Y-12275714D01*
X9612976Y-12275714D02*
X9612976Y-12380476D01*
X9612976Y-12275714D02*
X9622500Y-12256667D01*
X9622500Y-12256667D02*
X9641548Y-12247143D01*
X9641548Y-12247143D02*
X9670119Y-12247143D01*
X9670119Y-12247143D02*
X9689167Y-12256667D01*
X9689167Y-12256667D02*
X9698691Y-12275714D01*
X9698691Y-12275714D02*
X9698691Y-12380476D01*
X9793929Y-12380476D02*
X9793929Y-12247143D01*
X9793929Y-12266190D02*
X9803452Y-12256667D01*
X9803452Y-12256667D02*
X9822500Y-12247143D01*
X9822500Y-12247143D02*
X9851072Y-12247143D01*
X9851072Y-12247143D02*
X9870119Y-12256667D01*
X9870119Y-12256667D02*
X9879643Y-12275714D01*
X9879643Y-12275714D02*
X9879643Y-12380476D01*
X9879643Y-12275714D02*
X9889167Y-12256667D01*
X9889167Y-12256667D02*
X9908214Y-12247143D01*
X9908214Y-12247143D02*
X9936786Y-12247143D01*
X9936786Y-12247143D02*
X9955833Y-12256667D01*
X9955833Y-12256667D02*
X9965357Y-12275714D01*
X9965357Y-12275714D02*
X9965357Y-12380476D01*
X10323452Y-12170952D02*
X10152024Y-12428095D01*
X10548214Y-12180476D02*
X10567262Y-12180476D01*
X10567262Y-12180476D02*
X10586310Y-12190000D01*
X10586310Y-12190000D02*
X10595833Y-12199524D01*
X10595833Y-12199524D02*
X10605357Y-12218571D01*
X10605357Y-12218571D02*
X10614881Y-12256667D01*
X10614881Y-12256667D02*
X10614881Y-12304286D01*
X10614881Y-12304286D02*
X10605357Y-12342381D01*
X10605357Y-12342381D02*
X10595833Y-12361428D01*
X10595833Y-12361428D02*
X10586310Y-12370952D01*
X10586310Y-12370952D02*
X10567262Y-12380476D01*
X10567262Y-12380476D02*
X10548214Y-12380476D01*
X10548214Y-12380476D02*
X10529167Y-12370952D01*
X10529167Y-12370952D02*
X10519643Y-12361428D01*
X10519643Y-12361428D02*
X10510119Y-12342381D01*
X10510119Y-12342381D02*
X10500595Y-12304286D01*
X10500595Y-12304286D02*
X10500595Y-12256667D01*
X10500595Y-12256667D02*
X10510119Y-12218571D01*
X10510119Y-12218571D02*
X10519643Y-12199524D01*
X10519643Y-12199524D02*
X10529167Y-12190000D01*
X10529167Y-12190000D02*
X10548214Y-12180476D01*
X10700595Y-12361428D02*
X10710119Y-12370952D01*
X10710119Y-12370952D02*
X10700595Y-12380476D01*
X10700595Y-12380476D02*
X10691072Y-12370952D01*
X10691072Y-12370952D02*
X10700595Y-12361428D01*
X10700595Y-12361428D02*
X10700595Y-12380476D01*
X10833929Y-12180476D02*
X10852976Y-12180476D01*
X10852976Y-12180476D02*
X10872024Y-12190000D01*
X10872024Y-12190000D02*
X10881548Y-12199524D01*
X10881548Y-12199524D02*
X10891072Y-12218571D01*
X10891072Y-12218571D02*
X10900595Y-12256667D01*
X10900595Y-12256667D02*
X10900595Y-12304286D01*
X10900595Y-12304286D02*
X10891072Y-12342381D01*
X10891072Y-12342381D02*
X10881548Y-12361428D01*
X10881548Y-12361428D02*
X10872024Y-12370952D01*
X10872024Y-12370952D02*
X10852976Y-12380476D01*
X10852976Y-12380476D02*
X10833929Y-12380476D01*
X10833929Y-12380476D02*
X10814881Y-12370952D01*
X10814881Y-12370952D02*
X10805357Y-12361428D01*
X10805357Y-12361428D02*
X10795833Y-12342381D01*
X10795833Y-12342381D02*
X10786310Y-12304286D01*
X10786310Y-12304286D02*
X10786310Y-12256667D01*
X10786310Y-12256667D02*
X10795833Y-12218571D01*
X10795833Y-12218571D02*
X10805357Y-12199524D01*
X10805357Y-12199524D02*
X10814881Y-12190000D01*
X10814881Y-12190000D02*
X10833929Y-12180476D01*
X10995833Y-12380476D02*
X11033929Y-12380476D01*
X11033929Y-12380476D02*
X11052976Y-12370952D01*
X11052976Y-12370952D02*
X11062500Y-12361428D01*
X11062500Y-12361428D02*
X11081548Y-12332857D01*
X11081548Y-12332857D02*
X11091072Y-12294762D01*
X11091072Y-12294762D02*
X11091072Y-12218571D01*
X11091072Y-12218571D02*
X11081548Y-12199524D01*
X11081548Y-12199524D02*
X11072024Y-12190000D01*
X11072024Y-12190000D02*
X11052976Y-12180476D01*
X11052976Y-12180476D02*
X11014881Y-12180476D01*
X11014881Y-12180476D02*
X10995833Y-12190000D01*
X10995833Y-12190000D02*
X10986310Y-12199524D01*
X10986310Y-12199524D02*
X10976786Y-12218571D01*
X10976786Y-12218571D02*
X10976786Y-12266190D01*
X10976786Y-12266190D02*
X10986310Y-12285238D01*
X10986310Y-12285238D02*
X10995833Y-12294762D01*
X10995833Y-12294762D02*
X11014881Y-12304286D01*
X11014881Y-12304286D02*
X11052976Y-12304286D01*
X11052976Y-12304286D02*
X11072024Y-12294762D01*
X11072024Y-12294762D02*
X11081548Y-12285238D01*
X11081548Y-12285238D02*
X11091072Y-12266190D01*
X11262500Y-12247143D02*
X11262500Y-12380476D01*
X11214881Y-12170952D02*
X11167262Y-12313809D01*
X11167262Y-12313809D02*
X11291071Y-12313809D01*
X11472024Y-12380476D02*
X11357738Y-12380476D01*
X11414881Y-12380476D02*
X11414881Y-12180476D01*
X11414881Y-12180476D02*
X11395833Y-12209048D01*
X11395833Y-12209048D02*
X11376786Y-12228095D01*
X11376786Y-12228095D02*
X11357738Y-12237619D01*
X11548214Y-12180476D02*
X11548214Y-12218571D01*
X11624405Y-12180476D02*
X11624405Y-12218571D01*
X11887262Y-12456667D02*
X11877738Y-12447143D01*
X11877738Y-12447143D02*
X11858691Y-12418571D01*
X11858691Y-12418571D02*
X11849167Y-12399524D01*
X11849167Y-12399524D02*
X11839643Y-12370952D01*
X11839643Y-12370952D02*
X11830119Y-12323333D01*
X11830119Y-12323333D02*
X11830119Y-12285238D01*
X11830119Y-12285238D02*
X11839643Y-12237619D01*
X11839643Y-12237619D02*
X11849167Y-12209048D01*
X11849167Y-12209048D02*
X11858691Y-12190000D01*
X11858691Y-12190000D02*
X11877738Y-12161428D01*
X11877738Y-12161428D02*
X11887262Y-12151905D01*
X12068214Y-12380476D02*
X11953929Y-12380476D01*
X12011071Y-12380476D02*
X12011071Y-12180476D01*
X12011071Y-12180476D02*
X11992024Y-12209048D01*
X11992024Y-12209048D02*
X11972976Y-12228095D01*
X11972976Y-12228095D02*
X11953929Y-12237619D01*
X12273929Y-12380476D02*
X12273929Y-12180476D01*
X12359643Y-12380476D02*
X12359643Y-12275714D01*
X12359643Y-12275714D02*
X12350119Y-12256667D01*
X12350119Y-12256667D02*
X12331072Y-12247143D01*
X12331072Y-12247143D02*
X12302500Y-12247143D01*
X12302500Y-12247143D02*
X12283452Y-12256667D01*
X12283452Y-12256667D02*
X12273929Y-12266190D01*
X12483452Y-12380476D02*
X12464405Y-12370952D01*
X12464405Y-12370952D02*
X12454881Y-12361428D01*
X12454881Y-12361428D02*
X12445357Y-12342381D01*
X12445357Y-12342381D02*
X12445357Y-12285238D01*
X12445357Y-12285238D02*
X12454881Y-12266190D01*
X12454881Y-12266190D02*
X12464405Y-12256667D01*
X12464405Y-12256667D02*
X12483452Y-12247143D01*
X12483452Y-12247143D02*
X12512024Y-12247143D01*
X12512024Y-12247143D02*
X12531072Y-12256667D01*
X12531072Y-12256667D02*
X12540595Y-12266190D01*
X12540595Y-12266190D02*
X12550119Y-12285238D01*
X12550119Y-12285238D02*
X12550119Y-12342381D01*
X12550119Y-12342381D02*
X12540595Y-12361428D01*
X12540595Y-12361428D02*
X12531072Y-12370952D01*
X12531072Y-12370952D02*
X12512024Y-12380476D01*
X12512024Y-12380476D02*
X12483452Y-12380476D01*
X12664405Y-12380476D02*
X12645357Y-12370952D01*
X12645357Y-12370952D02*
X12635833Y-12351905D01*
X12635833Y-12351905D02*
X12635833Y-12180476D01*
X12816786Y-12370952D02*
X12797738Y-12380476D01*
X12797738Y-12380476D02*
X12759643Y-12380476D01*
X12759643Y-12380476D02*
X12740595Y-12370952D01*
X12740595Y-12370952D02*
X12731072Y-12351905D01*
X12731072Y-12351905D02*
X12731072Y-12275714D01*
X12731072Y-12275714D02*
X12740595Y-12256667D01*
X12740595Y-12256667D02*
X12759643Y-12247143D01*
X12759643Y-12247143D02*
X12797738Y-12247143D01*
X12797738Y-12247143D02*
X12816786Y-12256667D01*
X12816786Y-12256667D02*
X12826310Y-12275714D01*
X12826310Y-12275714D02*
X12826310Y-12294762D01*
X12826310Y-12294762D02*
X12731072Y-12313809D01*
X12892976Y-12456667D02*
X12902500Y-12447143D01*
X12902500Y-12447143D02*
X12921548Y-12418571D01*
X12921548Y-12418571D02*
X12931072Y-12399524D01*
X12931072Y-12399524D02*
X12940595Y-12370952D01*
X12940595Y-12370952D02*
X12950119Y-12323333D01*
X12950119Y-12323333D02*
X12950119Y-12285238D01*
X12950119Y-12285238D02*
X12940595Y-12237619D01*
X12940595Y-12237619D02*
X12931072Y-12209048D01*
X12931072Y-12209048D02*
X12921548Y-12190000D01*
X12921548Y-12190000D02*
X12902500Y-12161428D01*
X12902500Y-12161428D02*
X12892976Y-12151905D01*
X13222500Y-12456667D02*
X13212976Y-12447143D01*
X13212976Y-12447143D02*
X13193929Y-12418571D01*
X13193929Y-12418571D02*
X13184405Y-12399524D01*
X13184405Y-12399524D02*
X13174881Y-12370952D01*
X13174881Y-12370952D02*
X13165357Y-12323333D01*
X13165357Y-12323333D02*
X13165357Y-12285238D01*
X13165357Y-12285238D02*
X13174881Y-12237619D01*
X13174881Y-12237619D02*
X13184405Y-12209048D01*
X13184405Y-12209048D02*
X13193929Y-12190000D01*
X13193929Y-12190000D02*
X13212976Y-12161428D01*
X13212976Y-12161428D02*
X13222500Y-12151905D01*
X13298691Y-12247143D02*
X13298691Y-12380476D01*
X13298691Y-12266190D02*
X13308214Y-12256667D01*
X13308214Y-12256667D02*
X13327262Y-12247143D01*
X13327262Y-12247143D02*
X13355833Y-12247143D01*
X13355833Y-12247143D02*
X13374881Y-12256667D01*
X13374881Y-12256667D02*
X13384405Y-12275714D01*
X13384405Y-12275714D02*
X13384405Y-12380476D01*
X13508214Y-12380476D02*
X13489167Y-12370952D01*
X13489167Y-12370952D02*
X13479643Y-12361428D01*
X13479643Y-12361428D02*
X13470119Y-12342381D01*
X13470119Y-12342381D02*
X13470119Y-12285238D01*
X13470119Y-12285238D02*
X13479643Y-12266190D01*
X13479643Y-12266190D02*
X13489167Y-12256667D01*
X13489167Y-12256667D02*
X13508214Y-12247143D01*
X13508214Y-12247143D02*
X13536786Y-12247143D01*
X13536786Y-12247143D02*
X13555833Y-12256667D01*
X13555833Y-12256667D02*
X13565357Y-12266190D01*
X13565357Y-12266190D02*
X13574881Y-12285238D01*
X13574881Y-12285238D02*
X13574881Y-12342381D01*
X13574881Y-12342381D02*
X13565357Y-12361428D01*
X13565357Y-12361428D02*
X13555833Y-12370952D01*
X13555833Y-12370952D02*
X13536786Y-12380476D01*
X13536786Y-12380476D02*
X13508214Y-12380476D01*
X13632024Y-12247143D02*
X13708214Y-12247143D01*
X13660595Y-12180476D02*
X13660595Y-12351905D01*
X13660595Y-12351905D02*
X13670119Y-12370952D01*
X13670119Y-12370952D02*
X13689167Y-12380476D01*
X13689167Y-12380476D02*
X13708214Y-12380476D01*
X13894881Y-12247143D02*
X13894881Y-12447143D01*
X13894881Y-12256667D02*
X13913929Y-12247143D01*
X13913929Y-12247143D02*
X13952024Y-12247143D01*
X13952024Y-12247143D02*
X13971072Y-12256667D01*
X13971072Y-12256667D02*
X13980595Y-12266190D01*
X13980595Y-12266190D02*
X13990119Y-12285238D01*
X13990119Y-12285238D02*
X13990119Y-12342381D01*
X13990119Y-12342381D02*
X13980595Y-12361428D01*
X13980595Y-12361428D02*
X13971072Y-12370952D01*
X13971072Y-12370952D02*
X13952024Y-12380476D01*
X13952024Y-12380476D02*
X13913929Y-12380476D01*
X13913929Y-12380476D02*
X13894881Y-12370952D01*
X14104405Y-12380476D02*
X14085357Y-12370952D01*
X14085357Y-12370952D02*
X14075833Y-12351905D01*
X14075833Y-12351905D02*
X14075833Y-12180476D01*
X14266310Y-12380476D02*
X14266310Y-12275714D01*
X14266310Y-12275714D02*
X14256786Y-12256667D01*
X14256786Y-12256667D02*
X14237738Y-12247143D01*
X14237738Y-12247143D02*
X14199643Y-12247143D01*
X14199643Y-12247143D02*
X14180595Y-12256667D01*
X14266310Y-12370952D02*
X14247262Y-12380476D01*
X14247262Y-12380476D02*
X14199643Y-12380476D01*
X14199643Y-12380476D02*
X14180595Y-12370952D01*
X14180595Y-12370952D02*
X14171072Y-12351905D01*
X14171072Y-12351905D02*
X14171072Y-12332857D01*
X14171072Y-12332857D02*
X14180595Y-12313809D01*
X14180595Y-12313809D02*
X14199643Y-12304286D01*
X14199643Y-12304286D02*
X14247262Y-12304286D01*
X14247262Y-12304286D02*
X14266310Y-12294762D01*
X14332976Y-12247143D02*
X14409167Y-12247143D01*
X14361548Y-12180476D02*
X14361548Y-12351905D01*
X14361548Y-12351905D02*
X14371072Y-12370952D01*
X14371072Y-12370952D02*
X14390119Y-12380476D01*
X14390119Y-12380476D02*
X14409167Y-12380476D01*
X14552024Y-12370952D02*
X14532976Y-12380476D01*
X14532976Y-12380476D02*
X14494881Y-12380476D01*
X14494881Y-12380476D02*
X14475833Y-12370952D01*
X14475833Y-12370952D02*
X14466310Y-12351905D01*
X14466310Y-12351905D02*
X14466310Y-12275714D01*
X14466310Y-12275714D02*
X14475833Y-12256667D01*
X14475833Y-12256667D02*
X14494881Y-12247143D01*
X14494881Y-12247143D02*
X14532976Y-12247143D01*
X14532976Y-12247143D02*
X14552024Y-12256667D01*
X14552024Y-12256667D02*
X14561548Y-12275714D01*
X14561548Y-12275714D02*
X14561548Y-12294762D01*
X14561548Y-12294762D02*
X14466310Y-12313809D01*
X14732976Y-12380476D02*
X14732976Y-12180476D01*
X14732976Y-12370952D02*
X14713929Y-12380476D01*
X14713929Y-12380476D02*
X14675833Y-12380476D01*
X14675833Y-12380476D02*
X14656786Y-12370952D01*
X14656786Y-12370952D02*
X14647262Y-12361428D01*
X14647262Y-12361428D02*
X14637738Y-12342381D01*
X14637738Y-12342381D02*
X14637738Y-12285238D01*
X14637738Y-12285238D02*
X14647262Y-12266190D01*
X14647262Y-12266190D02*
X14656786Y-12256667D01*
X14656786Y-12256667D02*
X14675833Y-12247143D01*
X14675833Y-12247143D02*
X14713929Y-12247143D01*
X14713929Y-12247143D02*
X14732976Y-12256667D01*
X14809167Y-12456667D02*
X14818691Y-12447143D01*
X14818691Y-12447143D02*
X14837738Y-12418571D01*
X14837738Y-12418571D02*
X14847262Y-12399524D01*
X14847262Y-12399524D02*
X14856786Y-12370952D01*
X14856786Y-12370952D02*
X14866310Y-12323333D01*
X14866310Y-12323333D02*
X14866310Y-12285238D01*
X14866310Y-12285238D02*
X14856786Y-12237619D01*
X14856786Y-12237619D02*
X14847262Y-12209048D01*
X14847262Y-12209048D02*
X14837738Y-12190000D01*
X14837738Y-12190000D02*
X14818691Y-12161428D01*
X14818691Y-12161428D02*
X14809167Y-12151905D01*
X8422500Y-12627000D02*
G75*
G03*
X8422500Y-12627000I-100000J0D01*
G01*
X8651071Y-12500476D02*
X8774881Y-12500476D01*
X8774881Y-12500476D02*
X8708214Y-12576667D01*
X8708214Y-12576667D02*
X8736786Y-12576667D01*
X8736786Y-12576667D02*
X8755833Y-12586190D01*
X8755833Y-12586190D02*
X8765357Y-12595714D01*
X8765357Y-12595714D02*
X8774881Y-12614762D01*
X8774881Y-12614762D02*
X8774881Y-12662381D01*
X8774881Y-12662381D02*
X8765357Y-12681428D01*
X8765357Y-12681428D02*
X8755833Y-12690952D01*
X8755833Y-12690952D02*
X8736786Y-12700476D01*
X8736786Y-12700476D02*
X8679643Y-12700476D01*
X8679643Y-12700476D02*
X8660595Y-12690952D01*
X8660595Y-12690952D02*
X8651071Y-12681428D01*
X8860595Y-12681428D02*
X8870119Y-12690952D01*
X8870119Y-12690952D02*
X8860595Y-12700476D01*
X8860595Y-12700476D02*
X8851071Y-12690952D01*
X8851071Y-12690952D02*
X8860595Y-12681428D01*
X8860595Y-12681428D02*
X8860595Y-12700476D01*
X8946310Y-12519524D02*
X8955833Y-12510000D01*
X8955833Y-12510000D02*
X8974881Y-12500476D01*
X8974881Y-12500476D02*
X9022500Y-12500476D01*
X9022500Y-12500476D02*
X9041548Y-12510000D01*
X9041548Y-12510000D02*
X9051071Y-12519524D01*
X9051071Y-12519524D02*
X9060595Y-12538571D01*
X9060595Y-12538571D02*
X9060595Y-12557619D01*
X9060595Y-12557619D02*
X9051071Y-12586190D01*
X9051071Y-12586190D02*
X8936786Y-12700476D01*
X8936786Y-12700476D02*
X9060595Y-12700476D01*
X9184405Y-12500476D02*
X9203452Y-12500476D01*
X9203452Y-12500476D02*
X9222500Y-12510000D01*
X9222500Y-12510000D02*
X9232024Y-12519524D01*
X9232024Y-12519524D02*
X9241548Y-12538571D01*
X9241548Y-12538571D02*
X9251071Y-12576667D01*
X9251071Y-12576667D02*
X9251071Y-12624286D01*
X9251071Y-12624286D02*
X9241548Y-12662381D01*
X9241548Y-12662381D02*
X9232024Y-12681428D01*
X9232024Y-12681428D02*
X9222500Y-12690952D01*
X9222500Y-12690952D02*
X9203452Y-12700476D01*
X9203452Y-12700476D02*
X9184405Y-12700476D01*
X9184405Y-12700476D02*
X9165357Y-12690952D01*
X9165357Y-12690952D02*
X9155833Y-12681428D01*
X9155833Y-12681428D02*
X9146310Y-12662381D01*
X9146310Y-12662381D02*
X9136786Y-12624286D01*
X9136786Y-12624286D02*
X9136786Y-12576667D01*
X9136786Y-12576667D02*
X9146310Y-12538571D01*
X9146310Y-12538571D02*
X9155833Y-12519524D01*
X9155833Y-12519524D02*
X9165357Y-12510000D01*
X9165357Y-12510000D02*
X9184405Y-12500476D01*
X9374881Y-12500476D02*
X9393929Y-12500476D01*
X9393929Y-12500476D02*
X9412976Y-12510000D01*
X9412976Y-12510000D02*
X9422500Y-12519524D01*
X9422500Y-12519524D02*
X9432024Y-12538571D01*
X9432024Y-12538571D02*
X9441548Y-12576667D01*
X9441548Y-12576667D02*
X9441548Y-12624286D01*
X9441548Y-12624286D02*
X9432024Y-12662381D01*
X9432024Y-12662381D02*
X9422500Y-12681428D01*
X9422500Y-12681428D02*
X9412976Y-12690952D01*
X9412976Y-12690952D02*
X9393929Y-12700476D01*
X9393929Y-12700476D02*
X9374881Y-12700476D01*
X9374881Y-12700476D02*
X9355833Y-12690952D01*
X9355833Y-12690952D02*
X9346310Y-12681428D01*
X9346310Y-12681428D02*
X9336786Y-12662381D01*
X9336786Y-12662381D02*
X9327262Y-12624286D01*
X9327262Y-12624286D02*
X9327262Y-12576667D01*
X9327262Y-12576667D02*
X9336786Y-12538571D01*
X9336786Y-12538571D02*
X9346310Y-12519524D01*
X9346310Y-12519524D02*
X9355833Y-12510000D01*
X9355833Y-12510000D02*
X9374881Y-12500476D01*
X9527262Y-12700476D02*
X9527262Y-12567143D01*
X9527262Y-12586190D02*
X9536786Y-12576667D01*
X9536786Y-12576667D02*
X9555833Y-12567143D01*
X9555833Y-12567143D02*
X9584405Y-12567143D01*
X9584405Y-12567143D02*
X9603452Y-12576667D01*
X9603452Y-12576667D02*
X9612976Y-12595714D01*
X9612976Y-12595714D02*
X9612976Y-12700476D01*
X9612976Y-12595714D02*
X9622500Y-12576667D01*
X9622500Y-12576667D02*
X9641548Y-12567143D01*
X9641548Y-12567143D02*
X9670119Y-12567143D01*
X9670119Y-12567143D02*
X9689167Y-12576667D01*
X9689167Y-12576667D02*
X9698691Y-12595714D01*
X9698691Y-12595714D02*
X9698691Y-12700476D01*
X9793929Y-12700476D02*
X9793929Y-12567143D01*
X9793929Y-12586190D02*
X9803452Y-12576667D01*
X9803452Y-12576667D02*
X9822500Y-12567143D01*
X9822500Y-12567143D02*
X9851072Y-12567143D01*
X9851072Y-12567143D02*
X9870119Y-12576667D01*
X9870119Y-12576667D02*
X9879643Y-12595714D01*
X9879643Y-12595714D02*
X9879643Y-12700476D01*
X9879643Y-12595714D02*
X9889167Y-12576667D01*
X9889167Y-12576667D02*
X9908214Y-12567143D01*
X9908214Y-12567143D02*
X9936786Y-12567143D01*
X9936786Y-12567143D02*
X9955833Y-12576667D01*
X9955833Y-12576667D02*
X9965357Y-12595714D01*
X9965357Y-12595714D02*
X9965357Y-12700476D01*
X10323452Y-12490952D02*
X10152024Y-12748095D01*
X10548214Y-12500476D02*
X10567262Y-12500476D01*
X10567262Y-12500476D02*
X10586310Y-12510000D01*
X10586310Y-12510000D02*
X10595833Y-12519524D01*
X10595833Y-12519524D02*
X10605357Y-12538571D01*
X10605357Y-12538571D02*
X10614881Y-12576667D01*
X10614881Y-12576667D02*
X10614881Y-12624286D01*
X10614881Y-12624286D02*
X10605357Y-12662381D01*
X10605357Y-12662381D02*
X10595833Y-12681428D01*
X10595833Y-12681428D02*
X10586310Y-12690952D01*
X10586310Y-12690952D02*
X10567262Y-12700476D01*
X10567262Y-12700476D02*
X10548214Y-12700476D01*
X10548214Y-12700476D02*
X10529167Y-12690952D01*
X10529167Y-12690952D02*
X10519643Y-12681428D01*
X10519643Y-12681428D02*
X10510119Y-12662381D01*
X10510119Y-12662381D02*
X10500595Y-12624286D01*
X10500595Y-12624286D02*
X10500595Y-12576667D01*
X10500595Y-12576667D02*
X10510119Y-12538571D01*
X10510119Y-12538571D02*
X10519643Y-12519524D01*
X10519643Y-12519524D02*
X10529167Y-12510000D01*
X10529167Y-12510000D02*
X10548214Y-12500476D01*
X10700595Y-12681428D02*
X10710119Y-12690952D01*
X10710119Y-12690952D02*
X10700595Y-12700476D01*
X10700595Y-12700476D02*
X10691072Y-12690952D01*
X10691072Y-12690952D02*
X10700595Y-12681428D01*
X10700595Y-12681428D02*
X10700595Y-12700476D01*
X10900595Y-12700476D02*
X10786310Y-12700476D01*
X10843452Y-12700476D02*
X10843452Y-12500476D01*
X10843452Y-12500476D02*
X10824405Y-12529048D01*
X10824405Y-12529048D02*
X10805357Y-12548095D01*
X10805357Y-12548095D02*
X10786310Y-12557619D01*
X10976786Y-12519524D02*
X10986310Y-12510000D01*
X10986310Y-12510000D02*
X11005357Y-12500476D01*
X11005357Y-12500476D02*
X11052976Y-12500476D01*
X11052976Y-12500476D02*
X11072024Y-12510000D01*
X11072024Y-12510000D02*
X11081548Y-12519524D01*
X11081548Y-12519524D02*
X11091072Y-12538571D01*
X11091072Y-12538571D02*
X11091072Y-12557619D01*
X11091072Y-12557619D02*
X11081548Y-12586190D01*
X11081548Y-12586190D02*
X10967262Y-12700476D01*
X10967262Y-12700476D02*
X11091072Y-12700476D01*
X11262500Y-12500476D02*
X11224405Y-12500476D01*
X11224405Y-12500476D02*
X11205357Y-12510000D01*
X11205357Y-12510000D02*
X11195833Y-12519524D01*
X11195833Y-12519524D02*
X11176786Y-12548095D01*
X11176786Y-12548095D02*
X11167262Y-12586190D01*
X11167262Y-12586190D02*
X11167262Y-12662381D01*
X11167262Y-12662381D02*
X11176786Y-12681428D01*
X11176786Y-12681428D02*
X11186310Y-12690952D01*
X11186310Y-12690952D02*
X11205357Y-12700476D01*
X11205357Y-12700476D02*
X11243452Y-12700476D01*
X11243452Y-12700476D02*
X11262500Y-12690952D01*
X11262500Y-12690952D02*
X11272024Y-12681428D01*
X11272024Y-12681428D02*
X11281548Y-12662381D01*
X11281548Y-12662381D02*
X11281548Y-12614762D01*
X11281548Y-12614762D02*
X11272024Y-12595714D01*
X11272024Y-12595714D02*
X11262500Y-12586190D01*
X11262500Y-12586190D02*
X11243452Y-12576667D01*
X11243452Y-12576667D02*
X11205357Y-12576667D01*
X11205357Y-12576667D02*
X11186310Y-12586190D01*
X11186310Y-12586190D02*
X11176786Y-12595714D01*
X11176786Y-12595714D02*
X11167262Y-12614762D01*
X11405357Y-12500476D02*
X11424405Y-12500476D01*
X11424405Y-12500476D02*
X11443452Y-12510000D01*
X11443452Y-12510000D02*
X11452976Y-12519524D01*
X11452976Y-12519524D02*
X11462500Y-12538571D01*
X11462500Y-12538571D02*
X11472024Y-12576667D01*
X11472024Y-12576667D02*
X11472024Y-12624286D01*
X11472024Y-12624286D02*
X11462500Y-12662381D01*
X11462500Y-12662381D02*
X11452976Y-12681428D01*
X11452976Y-12681428D02*
X11443452Y-12690952D01*
X11443452Y-12690952D02*
X11424405Y-12700476D01*
X11424405Y-12700476D02*
X11405357Y-12700476D01*
X11405357Y-12700476D02*
X11386310Y-12690952D01*
X11386310Y-12690952D02*
X11376786Y-12681428D01*
X11376786Y-12681428D02*
X11367262Y-12662381D01*
X11367262Y-12662381D02*
X11357738Y-12624286D01*
X11357738Y-12624286D02*
X11357738Y-12576667D01*
X11357738Y-12576667D02*
X11367262Y-12538571D01*
X11367262Y-12538571D02*
X11376786Y-12519524D01*
X11376786Y-12519524D02*
X11386310Y-12510000D01*
X11386310Y-12510000D02*
X11405357Y-12500476D01*
X11548214Y-12500476D02*
X11548214Y-12538571D01*
X11624405Y-12500476D02*
X11624405Y-12538571D01*
X11887262Y-12776667D02*
X11877738Y-12767143D01*
X11877738Y-12767143D02*
X11858691Y-12738571D01*
X11858691Y-12738571D02*
X11849167Y-12719524D01*
X11849167Y-12719524D02*
X11839643Y-12690952D01*
X11839643Y-12690952D02*
X11830119Y-12643333D01*
X11830119Y-12643333D02*
X11830119Y-12605238D01*
X11830119Y-12605238D02*
X11839643Y-12557619D01*
X11839643Y-12557619D02*
X11849167Y-12529048D01*
X11849167Y-12529048D02*
X11858691Y-12510000D01*
X11858691Y-12510000D02*
X11877738Y-12481428D01*
X11877738Y-12481428D02*
X11887262Y-12471905D01*
X12049167Y-12567143D02*
X12049167Y-12700476D01*
X12001548Y-12490952D02*
X11953929Y-12633809D01*
X11953929Y-12633809D02*
X12077738Y-12633809D01*
X12273929Y-12700476D02*
X12273929Y-12500476D01*
X12359643Y-12700476D02*
X12359643Y-12595714D01*
X12359643Y-12595714D02*
X12350119Y-12576667D01*
X12350119Y-12576667D02*
X12331072Y-12567143D01*
X12331072Y-12567143D02*
X12302500Y-12567143D01*
X12302500Y-12567143D02*
X12283452Y-12576667D01*
X12283452Y-12576667D02*
X12273929Y-12586190D01*
X12483452Y-12700476D02*
X12464405Y-12690952D01*
X12464405Y-12690952D02*
X12454881Y-12681428D01*
X12454881Y-12681428D02*
X12445357Y-12662381D01*
X12445357Y-12662381D02*
X12445357Y-12605238D01*
X12445357Y-12605238D02*
X12454881Y-12586190D01*
X12454881Y-12586190D02*
X12464405Y-12576667D01*
X12464405Y-12576667D02*
X12483452Y-12567143D01*
X12483452Y-12567143D02*
X12512024Y-12567143D01*
X12512024Y-12567143D02*
X12531072Y-12576667D01*
X12531072Y-12576667D02*
X12540595Y-12586190D01*
X12540595Y-12586190D02*
X12550119Y-12605238D01*
X12550119Y-12605238D02*
X12550119Y-12662381D01*
X12550119Y-12662381D02*
X12540595Y-12681428D01*
X12540595Y-12681428D02*
X12531072Y-12690952D01*
X12531072Y-12690952D02*
X12512024Y-12700476D01*
X12512024Y-12700476D02*
X12483452Y-12700476D01*
X12664405Y-12700476D02*
X12645357Y-12690952D01*
X12645357Y-12690952D02*
X12635833Y-12671905D01*
X12635833Y-12671905D02*
X12635833Y-12500476D01*
X12816786Y-12690952D02*
X12797738Y-12700476D01*
X12797738Y-12700476D02*
X12759643Y-12700476D01*
X12759643Y-12700476D02*
X12740595Y-12690952D01*
X12740595Y-12690952D02*
X12731072Y-12671905D01*
X12731072Y-12671905D02*
X12731072Y-12595714D01*
X12731072Y-12595714D02*
X12740595Y-12576667D01*
X12740595Y-12576667D02*
X12759643Y-12567143D01*
X12759643Y-12567143D02*
X12797738Y-12567143D01*
X12797738Y-12567143D02*
X12816786Y-12576667D01*
X12816786Y-12576667D02*
X12826310Y-12595714D01*
X12826310Y-12595714D02*
X12826310Y-12614762D01*
X12826310Y-12614762D02*
X12731072Y-12633809D01*
X12902500Y-12690952D02*
X12921548Y-12700476D01*
X12921548Y-12700476D02*
X12959643Y-12700476D01*
X12959643Y-12700476D02*
X12978691Y-12690952D01*
X12978691Y-12690952D02*
X12988214Y-12671905D01*
X12988214Y-12671905D02*
X12988214Y-12662381D01*
X12988214Y-12662381D02*
X12978691Y-12643333D01*
X12978691Y-12643333D02*
X12959643Y-12633809D01*
X12959643Y-12633809D02*
X12931072Y-12633809D01*
X12931072Y-12633809D02*
X12912024Y-12624286D01*
X12912024Y-12624286D02*
X12902500Y-12605238D01*
X12902500Y-12605238D02*
X12902500Y-12595714D01*
X12902500Y-12595714D02*
X12912024Y-12576667D01*
X12912024Y-12576667D02*
X12931072Y-12567143D01*
X12931072Y-12567143D02*
X12959643Y-12567143D01*
X12959643Y-12567143D02*
X12978691Y-12576667D01*
X13054881Y-12776667D02*
X13064405Y-12767143D01*
X13064405Y-12767143D02*
X13083453Y-12738571D01*
X13083453Y-12738571D02*
X13092976Y-12719524D01*
X13092976Y-12719524D02*
X13102500Y-12690952D01*
X13102500Y-12690952D02*
X13112024Y-12643333D01*
X13112024Y-12643333D02*
X13112024Y-12605238D01*
X13112024Y-12605238D02*
X13102500Y-12557619D01*
X13102500Y-12557619D02*
X13092976Y-12529048D01*
X13092976Y-12529048D02*
X13083453Y-12510000D01*
X13083453Y-12510000D02*
X13064405Y-12481428D01*
X13064405Y-12481428D02*
X13054881Y-12471905D01*
X13384405Y-12776667D02*
X13374881Y-12767143D01*
X13374881Y-12767143D02*
X13355833Y-12738571D01*
X13355833Y-12738571D02*
X13346310Y-12719524D01*
X13346310Y-12719524D02*
X13336786Y-12690952D01*
X13336786Y-12690952D02*
X13327262Y-12643333D01*
X13327262Y-12643333D02*
X13327262Y-12605238D01*
X13327262Y-12605238D02*
X13336786Y-12557619D01*
X13336786Y-12557619D02*
X13346310Y-12529048D01*
X13346310Y-12529048D02*
X13355833Y-12510000D01*
X13355833Y-12510000D02*
X13374881Y-12481428D01*
X13374881Y-12481428D02*
X13384405Y-12471905D01*
X13460595Y-12567143D02*
X13460595Y-12700476D01*
X13460595Y-12586190D02*
X13470119Y-12576667D01*
X13470119Y-12576667D02*
X13489167Y-12567143D01*
X13489167Y-12567143D02*
X13517738Y-12567143D01*
X13517738Y-12567143D02*
X13536786Y-12576667D01*
X13536786Y-12576667D02*
X13546310Y-12595714D01*
X13546310Y-12595714D02*
X13546310Y-12700476D01*
X13670119Y-12700476D02*
X13651072Y-12690952D01*
X13651072Y-12690952D02*
X13641548Y-12681428D01*
X13641548Y-12681428D02*
X13632024Y-12662381D01*
X13632024Y-12662381D02*
X13632024Y-12605238D01*
X13632024Y-12605238D02*
X13641548Y-12586190D01*
X13641548Y-12586190D02*
X13651072Y-12576667D01*
X13651072Y-12576667D02*
X13670119Y-12567143D01*
X13670119Y-12567143D02*
X13698691Y-12567143D01*
X13698691Y-12567143D02*
X13717738Y-12576667D01*
X13717738Y-12576667D02*
X13727262Y-12586190D01*
X13727262Y-12586190D02*
X13736786Y-12605238D01*
X13736786Y-12605238D02*
X13736786Y-12662381D01*
X13736786Y-12662381D02*
X13727262Y-12681428D01*
X13727262Y-12681428D02*
X13717738Y-12690952D01*
X13717738Y-12690952D02*
X13698691Y-12700476D01*
X13698691Y-12700476D02*
X13670119Y-12700476D01*
X13793929Y-12567143D02*
X13870119Y-12567143D01*
X13822500Y-12500476D02*
X13822500Y-12671905D01*
X13822500Y-12671905D02*
X13832024Y-12690952D01*
X13832024Y-12690952D02*
X13851072Y-12700476D01*
X13851072Y-12700476D02*
X13870119Y-12700476D01*
X14056786Y-12567143D02*
X14056786Y-12767143D01*
X14056786Y-12576667D02*
X14075833Y-12567143D01*
X14075833Y-12567143D02*
X14113929Y-12567143D01*
X14113929Y-12567143D02*
X14132976Y-12576667D01*
X14132976Y-12576667D02*
X14142500Y-12586190D01*
X14142500Y-12586190D02*
X14152024Y-12605238D01*
X14152024Y-12605238D02*
X14152024Y-12662381D01*
X14152024Y-12662381D02*
X14142500Y-12681428D01*
X14142500Y-12681428D02*
X14132976Y-12690952D01*
X14132976Y-12690952D02*
X14113929Y-12700476D01*
X14113929Y-12700476D02*
X14075833Y-12700476D01*
X14075833Y-12700476D02*
X14056786Y-12690952D01*
X14266310Y-12700476D02*
X14247262Y-12690952D01*
X14247262Y-12690952D02*
X14237738Y-12671905D01*
X14237738Y-12671905D02*
X14237738Y-12500476D01*
X14428214Y-12700476D02*
X14428214Y-12595714D01*
X14428214Y-12595714D02*
X14418691Y-12576667D01*
X14418691Y-12576667D02*
X14399643Y-12567143D01*
X14399643Y-12567143D02*
X14361548Y-12567143D01*
X14361548Y-12567143D02*
X14342500Y-12576667D01*
X14428214Y-12690952D02*
X14409167Y-12700476D01*
X14409167Y-12700476D02*
X14361548Y-12700476D01*
X14361548Y-12700476D02*
X14342500Y-12690952D01*
X14342500Y-12690952D02*
X14332976Y-12671905D01*
X14332976Y-12671905D02*
X14332976Y-12652857D01*
X14332976Y-12652857D02*
X14342500Y-12633809D01*
X14342500Y-12633809D02*
X14361548Y-12624286D01*
X14361548Y-12624286D02*
X14409167Y-12624286D01*
X14409167Y-12624286D02*
X14428214Y-12614762D01*
X14494881Y-12567143D02*
X14571072Y-12567143D01*
X14523453Y-12500476D02*
X14523453Y-12671905D01*
X14523453Y-12671905D02*
X14532976Y-12690952D01*
X14532976Y-12690952D02*
X14552024Y-12700476D01*
X14552024Y-12700476D02*
X14571072Y-12700476D01*
X14713929Y-12690952D02*
X14694881Y-12700476D01*
X14694881Y-12700476D02*
X14656786Y-12700476D01*
X14656786Y-12700476D02*
X14637738Y-12690952D01*
X14637738Y-12690952D02*
X14628214Y-12671905D01*
X14628214Y-12671905D02*
X14628214Y-12595714D01*
X14628214Y-12595714D02*
X14637738Y-12576667D01*
X14637738Y-12576667D02*
X14656786Y-12567143D01*
X14656786Y-12567143D02*
X14694881Y-12567143D01*
X14694881Y-12567143D02*
X14713929Y-12576667D01*
X14713929Y-12576667D02*
X14723453Y-12595714D01*
X14723453Y-12595714D02*
X14723453Y-12614762D01*
X14723453Y-12614762D02*
X14628214Y-12633809D01*
X14894881Y-12700476D02*
X14894881Y-12500476D01*
X14894881Y-12690952D02*
X14875834Y-12700476D01*
X14875834Y-12700476D02*
X14837738Y-12700476D01*
X14837738Y-12700476D02*
X14818691Y-12690952D01*
X14818691Y-12690952D02*
X14809167Y-12681428D01*
X14809167Y-12681428D02*
X14799643Y-12662381D01*
X14799643Y-12662381D02*
X14799643Y-12605238D01*
X14799643Y-12605238D02*
X14809167Y-12586190D01*
X14809167Y-12586190D02*
X14818691Y-12576667D01*
X14818691Y-12576667D02*
X14837738Y-12567143D01*
X14837738Y-12567143D02*
X14875834Y-12567143D01*
X14875834Y-12567143D02*
X14894881Y-12576667D01*
X14971072Y-12776667D02*
X14980595Y-12767143D01*
X14980595Y-12767143D02*
X14999643Y-12738571D01*
X14999643Y-12738571D02*
X15009167Y-12719524D01*
X15009167Y-12719524D02*
X15018691Y-12690952D01*
X15018691Y-12690952D02*
X15028214Y-12643333D01*
X15028214Y-12643333D02*
X15028214Y-12605238D01*
X15028214Y-12605238D02*
X15018691Y-12557619D01*
X15018691Y-12557619D02*
X15009167Y-12529048D01*
X15009167Y-12529048D02*
X14999643Y-12510000D01*
X14999643Y-12510000D02*
X14980595Y-12481428D01*
X14980595Y-12481428D02*
X14971072Y-12471905D01*
X8322500Y-12847000D02*
X8322500Y-13047000D01*
X8222500Y-12947000D02*
X8422500Y-12947000D01*
X8651071Y-12820476D02*
X8774881Y-12820476D01*
X8774881Y-12820476D02*
X8708214Y-12896667D01*
X8708214Y-12896667D02*
X8736786Y-12896667D01*
X8736786Y-12896667D02*
X8755833Y-12906190D01*
X8755833Y-12906190D02*
X8765357Y-12915714D01*
X8765357Y-12915714D02*
X8774881Y-12934762D01*
X8774881Y-12934762D02*
X8774881Y-12982381D01*
X8774881Y-12982381D02*
X8765357Y-13001428D01*
X8765357Y-13001428D02*
X8755833Y-13010952D01*
X8755833Y-13010952D02*
X8736786Y-13020476D01*
X8736786Y-13020476D02*
X8679643Y-13020476D01*
X8679643Y-13020476D02*
X8660595Y-13010952D01*
X8660595Y-13010952D02*
X8651071Y-13001428D01*
X8860595Y-13001428D02*
X8870119Y-13010952D01*
X8870119Y-13010952D02*
X8860595Y-13020476D01*
X8860595Y-13020476D02*
X8851071Y-13010952D01*
X8851071Y-13010952D02*
X8860595Y-13001428D01*
X8860595Y-13001428D02*
X8860595Y-13020476D01*
X9041548Y-12887143D02*
X9041548Y-13020476D01*
X8993929Y-12810952D02*
X8946310Y-12953809D01*
X8946310Y-12953809D02*
X9070119Y-12953809D01*
X9241548Y-12820476D02*
X9146310Y-12820476D01*
X9146310Y-12820476D02*
X9136786Y-12915714D01*
X9136786Y-12915714D02*
X9146310Y-12906190D01*
X9146310Y-12906190D02*
X9165357Y-12896667D01*
X9165357Y-12896667D02*
X9212976Y-12896667D01*
X9212976Y-12896667D02*
X9232024Y-12906190D01*
X9232024Y-12906190D02*
X9241548Y-12915714D01*
X9241548Y-12915714D02*
X9251071Y-12934762D01*
X9251071Y-12934762D02*
X9251071Y-12982381D01*
X9251071Y-12982381D02*
X9241548Y-13001428D01*
X9241548Y-13001428D02*
X9232024Y-13010952D01*
X9232024Y-13010952D02*
X9212976Y-13020476D01*
X9212976Y-13020476D02*
X9165357Y-13020476D01*
X9165357Y-13020476D02*
X9146310Y-13010952D01*
X9146310Y-13010952D02*
X9136786Y-13001428D01*
X9374881Y-12820476D02*
X9393929Y-12820476D01*
X9393929Y-12820476D02*
X9412976Y-12830000D01*
X9412976Y-12830000D02*
X9422500Y-12839524D01*
X9422500Y-12839524D02*
X9432024Y-12858571D01*
X9432024Y-12858571D02*
X9441548Y-12896667D01*
X9441548Y-12896667D02*
X9441548Y-12944286D01*
X9441548Y-12944286D02*
X9432024Y-12982381D01*
X9432024Y-12982381D02*
X9422500Y-13001428D01*
X9422500Y-13001428D02*
X9412976Y-13010952D01*
X9412976Y-13010952D02*
X9393929Y-13020476D01*
X9393929Y-13020476D02*
X9374881Y-13020476D01*
X9374881Y-13020476D02*
X9355833Y-13010952D01*
X9355833Y-13010952D02*
X9346310Y-13001428D01*
X9346310Y-13001428D02*
X9336786Y-12982381D01*
X9336786Y-12982381D02*
X9327262Y-12944286D01*
X9327262Y-12944286D02*
X9327262Y-12896667D01*
X9327262Y-12896667D02*
X9336786Y-12858571D01*
X9336786Y-12858571D02*
X9346310Y-12839524D01*
X9346310Y-12839524D02*
X9355833Y-12830000D01*
X9355833Y-12830000D02*
X9374881Y-12820476D01*
X9527262Y-13020476D02*
X9527262Y-12887143D01*
X9527262Y-12906190D02*
X9536786Y-12896667D01*
X9536786Y-12896667D02*
X9555833Y-12887143D01*
X9555833Y-12887143D02*
X9584405Y-12887143D01*
X9584405Y-12887143D02*
X9603452Y-12896667D01*
X9603452Y-12896667D02*
X9612976Y-12915714D01*
X9612976Y-12915714D02*
X9612976Y-13020476D01*
X9612976Y-12915714D02*
X9622500Y-12896667D01*
X9622500Y-12896667D02*
X9641548Y-12887143D01*
X9641548Y-12887143D02*
X9670119Y-12887143D01*
X9670119Y-12887143D02*
X9689167Y-12896667D01*
X9689167Y-12896667D02*
X9698691Y-12915714D01*
X9698691Y-12915714D02*
X9698691Y-13020476D01*
X9793929Y-13020476D02*
X9793929Y-12887143D01*
X9793929Y-12906190D02*
X9803452Y-12896667D01*
X9803452Y-12896667D02*
X9822500Y-12887143D01*
X9822500Y-12887143D02*
X9851072Y-12887143D01*
X9851072Y-12887143D02*
X9870119Y-12896667D01*
X9870119Y-12896667D02*
X9879643Y-12915714D01*
X9879643Y-12915714D02*
X9879643Y-13020476D01*
X9879643Y-12915714D02*
X9889167Y-12896667D01*
X9889167Y-12896667D02*
X9908214Y-12887143D01*
X9908214Y-12887143D02*
X9936786Y-12887143D01*
X9936786Y-12887143D02*
X9955833Y-12896667D01*
X9955833Y-12896667D02*
X9965357Y-12915714D01*
X9965357Y-12915714D02*
X9965357Y-13020476D01*
X10323452Y-12810952D02*
X10152024Y-13068095D01*
X10548214Y-12820476D02*
X10567262Y-12820476D01*
X10567262Y-12820476D02*
X10586310Y-12830000D01*
X10586310Y-12830000D02*
X10595833Y-12839524D01*
X10595833Y-12839524D02*
X10605357Y-12858571D01*
X10605357Y-12858571D02*
X10614881Y-12896667D01*
X10614881Y-12896667D02*
X10614881Y-12944286D01*
X10614881Y-12944286D02*
X10605357Y-12982381D01*
X10605357Y-12982381D02*
X10595833Y-13001428D01*
X10595833Y-13001428D02*
X10586310Y-13010952D01*
X10586310Y-13010952D02*
X10567262Y-13020476D01*
X10567262Y-13020476D02*
X10548214Y-13020476D01*
X10548214Y-13020476D02*
X10529167Y-13010952D01*
X10529167Y-13010952D02*
X10519643Y-13001428D01*
X10519643Y-13001428D02*
X10510119Y-12982381D01*
X10510119Y-12982381D02*
X10500595Y-12944286D01*
X10500595Y-12944286D02*
X10500595Y-12896667D01*
X10500595Y-12896667D02*
X10510119Y-12858571D01*
X10510119Y-12858571D02*
X10519643Y-12839524D01*
X10519643Y-12839524D02*
X10529167Y-12830000D01*
X10529167Y-12830000D02*
X10548214Y-12820476D01*
X10700595Y-13001428D02*
X10710119Y-13010952D01*
X10710119Y-13010952D02*
X10700595Y-13020476D01*
X10700595Y-13020476D02*
X10691072Y-13010952D01*
X10691072Y-13010952D02*
X10700595Y-13001428D01*
X10700595Y-13001428D02*
X10700595Y-13020476D01*
X10900595Y-13020476D02*
X10786310Y-13020476D01*
X10843452Y-13020476D02*
X10843452Y-12820476D01*
X10843452Y-12820476D02*
X10824405Y-12849048D01*
X10824405Y-12849048D02*
X10805357Y-12868095D01*
X10805357Y-12868095D02*
X10786310Y-12877619D01*
X10967262Y-12820476D02*
X11091072Y-12820476D01*
X11091072Y-12820476D02*
X11024405Y-12896667D01*
X11024405Y-12896667D02*
X11052976Y-12896667D01*
X11052976Y-12896667D02*
X11072024Y-12906190D01*
X11072024Y-12906190D02*
X11081548Y-12915714D01*
X11081548Y-12915714D02*
X11091072Y-12934762D01*
X11091072Y-12934762D02*
X11091072Y-12982381D01*
X11091072Y-12982381D02*
X11081548Y-13001428D01*
X11081548Y-13001428D02*
X11072024Y-13010952D01*
X11072024Y-13010952D02*
X11052976Y-13020476D01*
X11052976Y-13020476D02*
X10995833Y-13020476D01*
X10995833Y-13020476D02*
X10976786Y-13010952D01*
X10976786Y-13010952D02*
X10967262Y-13001428D01*
X11272024Y-12820476D02*
X11176786Y-12820476D01*
X11176786Y-12820476D02*
X11167262Y-12915714D01*
X11167262Y-12915714D02*
X11176786Y-12906190D01*
X11176786Y-12906190D02*
X11195833Y-12896667D01*
X11195833Y-12896667D02*
X11243452Y-12896667D01*
X11243452Y-12896667D02*
X11262500Y-12906190D01*
X11262500Y-12906190D02*
X11272024Y-12915714D01*
X11272024Y-12915714D02*
X11281548Y-12934762D01*
X11281548Y-12934762D02*
X11281548Y-12982381D01*
X11281548Y-12982381D02*
X11272024Y-13001428D01*
X11272024Y-13001428D02*
X11262500Y-13010952D01*
X11262500Y-13010952D02*
X11243452Y-13020476D01*
X11243452Y-13020476D02*
X11195833Y-13020476D01*
X11195833Y-13020476D02*
X11176786Y-13010952D01*
X11176786Y-13010952D02*
X11167262Y-13001428D01*
X11395833Y-12906190D02*
X11376786Y-12896667D01*
X11376786Y-12896667D02*
X11367262Y-12887143D01*
X11367262Y-12887143D02*
X11357738Y-12868095D01*
X11357738Y-12868095D02*
X11357738Y-12858571D01*
X11357738Y-12858571D02*
X11367262Y-12839524D01*
X11367262Y-12839524D02*
X11376786Y-12830000D01*
X11376786Y-12830000D02*
X11395833Y-12820476D01*
X11395833Y-12820476D02*
X11433929Y-12820476D01*
X11433929Y-12820476D02*
X11452976Y-12830000D01*
X11452976Y-12830000D02*
X11462500Y-12839524D01*
X11462500Y-12839524D02*
X11472024Y-12858571D01*
X11472024Y-12858571D02*
X11472024Y-12868095D01*
X11472024Y-12868095D02*
X11462500Y-12887143D01*
X11462500Y-12887143D02*
X11452976Y-12896667D01*
X11452976Y-12896667D02*
X11433929Y-12906190D01*
X11433929Y-12906190D02*
X11395833Y-12906190D01*
X11395833Y-12906190D02*
X11376786Y-12915714D01*
X11376786Y-12915714D02*
X11367262Y-12925238D01*
X11367262Y-12925238D02*
X11357738Y-12944286D01*
X11357738Y-12944286D02*
X11357738Y-12982381D01*
X11357738Y-12982381D02*
X11367262Y-13001428D01*
X11367262Y-13001428D02*
X11376786Y-13010952D01*
X11376786Y-13010952D02*
X11395833Y-13020476D01*
X11395833Y-13020476D02*
X11433929Y-13020476D01*
X11433929Y-13020476D02*
X11452976Y-13010952D01*
X11452976Y-13010952D02*
X11462500Y-13001428D01*
X11462500Y-13001428D02*
X11472024Y-12982381D01*
X11472024Y-12982381D02*
X11472024Y-12944286D01*
X11472024Y-12944286D02*
X11462500Y-12925238D01*
X11462500Y-12925238D02*
X11452976Y-12915714D01*
X11452976Y-12915714D02*
X11433929Y-12906190D01*
X11548214Y-12820476D02*
X11548214Y-12858571D01*
X11624405Y-12820476D02*
X11624405Y-12858571D01*
X11887262Y-13096667D02*
X11877738Y-13087143D01*
X11877738Y-13087143D02*
X11858691Y-13058571D01*
X11858691Y-13058571D02*
X11849167Y-13039524D01*
X11849167Y-13039524D02*
X11839643Y-13010952D01*
X11839643Y-13010952D02*
X11830119Y-12963333D01*
X11830119Y-12963333D02*
X11830119Y-12925238D01*
X11830119Y-12925238D02*
X11839643Y-12877619D01*
X11839643Y-12877619D02*
X11849167Y-12849048D01*
X11849167Y-12849048D02*
X11858691Y-12830000D01*
X11858691Y-12830000D02*
X11877738Y-12801428D01*
X11877738Y-12801428D02*
X11887262Y-12791905D01*
X11953929Y-12839524D02*
X11963452Y-12830000D01*
X11963452Y-12830000D02*
X11982500Y-12820476D01*
X11982500Y-12820476D02*
X12030119Y-12820476D01*
X12030119Y-12820476D02*
X12049167Y-12830000D01*
X12049167Y-12830000D02*
X12058691Y-12839524D01*
X12058691Y-12839524D02*
X12068214Y-12858571D01*
X12068214Y-12858571D02*
X12068214Y-12877619D01*
X12068214Y-12877619D02*
X12058691Y-12906190D01*
X12058691Y-12906190D02*
X11944405Y-13020476D01*
X11944405Y-13020476D02*
X12068214Y-13020476D01*
X12273929Y-13020476D02*
X12273929Y-12820476D01*
X12359643Y-13020476D02*
X12359643Y-12915714D01*
X12359643Y-12915714D02*
X12350119Y-12896667D01*
X12350119Y-12896667D02*
X12331072Y-12887143D01*
X12331072Y-12887143D02*
X12302500Y-12887143D01*
X12302500Y-12887143D02*
X12283452Y-12896667D01*
X12283452Y-12896667D02*
X12273929Y-12906190D01*
X12483452Y-13020476D02*
X12464405Y-13010952D01*
X12464405Y-13010952D02*
X12454881Y-13001428D01*
X12454881Y-13001428D02*
X12445357Y-12982381D01*
X12445357Y-12982381D02*
X12445357Y-12925238D01*
X12445357Y-12925238D02*
X12454881Y-12906190D01*
X12454881Y-12906190D02*
X12464405Y-12896667D01*
X12464405Y-12896667D02*
X12483452Y-12887143D01*
X12483452Y-12887143D02*
X12512024Y-12887143D01*
X12512024Y-12887143D02*
X12531072Y-12896667D01*
X12531072Y-12896667D02*
X12540595Y-12906190D01*
X12540595Y-12906190D02*
X12550119Y-12925238D01*
X12550119Y-12925238D02*
X12550119Y-12982381D01*
X12550119Y-12982381D02*
X12540595Y-13001428D01*
X12540595Y-13001428D02*
X12531072Y-13010952D01*
X12531072Y-13010952D02*
X12512024Y-13020476D01*
X12512024Y-13020476D02*
X12483452Y-13020476D01*
X12664405Y-13020476D02*
X12645357Y-13010952D01*
X12645357Y-13010952D02*
X12635833Y-12991905D01*
X12635833Y-12991905D02*
X12635833Y-12820476D01*
X12816786Y-13010952D02*
X12797738Y-13020476D01*
X12797738Y-13020476D02*
X12759643Y-13020476D01*
X12759643Y-13020476D02*
X12740595Y-13010952D01*
X12740595Y-13010952D02*
X12731072Y-12991905D01*
X12731072Y-12991905D02*
X12731072Y-12915714D01*
X12731072Y-12915714D02*
X12740595Y-12896667D01*
X12740595Y-12896667D02*
X12759643Y-12887143D01*
X12759643Y-12887143D02*
X12797738Y-12887143D01*
X12797738Y-12887143D02*
X12816786Y-12896667D01*
X12816786Y-12896667D02*
X12826310Y-12915714D01*
X12826310Y-12915714D02*
X12826310Y-12934762D01*
X12826310Y-12934762D02*
X12731072Y-12953809D01*
X12902500Y-13010952D02*
X12921548Y-13020476D01*
X12921548Y-13020476D02*
X12959643Y-13020476D01*
X12959643Y-13020476D02*
X12978691Y-13010952D01*
X12978691Y-13010952D02*
X12988214Y-12991905D01*
X12988214Y-12991905D02*
X12988214Y-12982381D01*
X12988214Y-12982381D02*
X12978691Y-12963333D01*
X12978691Y-12963333D02*
X12959643Y-12953809D01*
X12959643Y-12953809D02*
X12931072Y-12953809D01*
X12931072Y-12953809D02*
X12912024Y-12944286D01*
X12912024Y-12944286D02*
X12902500Y-12925238D01*
X12902500Y-12925238D02*
X12902500Y-12915714D01*
X12902500Y-12915714D02*
X12912024Y-12896667D01*
X12912024Y-12896667D02*
X12931072Y-12887143D01*
X12931072Y-12887143D02*
X12959643Y-12887143D01*
X12959643Y-12887143D02*
X12978691Y-12896667D01*
X13054881Y-13096667D02*
X13064405Y-13087143D01*
X13064405Y-13087143D02*
X13083453Y-13058571D01*
X13083453Y-13058571D02*
X13092976Y-13039524D01*
X13092976Y-13039524D02*
X13102500Y-13010952D01*
X13102500Y-13010952D02*
X13112024Y-12963333D01*
X13112024Y-12963333D02*
X13112024Y-12925238D01*
X13112024Y-12925238D02*
X13102500Y-12877619D01*
X13102500Y-12877619D02*
X13092976Y-12849048D01*
X13092976Y-12849048D02*
X13083453Y-12830000D01*
X13083453Y-12830000D02*
X13064405Y-12801428D01*
X13064405Y-12801428D02*
X13054881Y-12791905D01*
X13384405Y-13096667D02*
X13374881Y-13087143D01*
X13374881Y-13087143D02*
X13355833Y-13058571D01*
X13355833Y-13058571D02*
X13346310Y-13039524D01*
X13346310Y-13039524D02*
X13336786Y-13010952D01*
X13336786Y-13010952D02*
X13327262Y-12963333D01*
X13327262Y-12963333D02*
X13327262Y-12925238D01*
X13327262Y-12925238D02*
X13336786Y-12877619D01*
X13336786Y-12877619D02*
X13346310Y-12849048D01*
X13346310Y-12849048D02*
X13355833Y-12830000D01*
X13355833Y-12830000D02*
X13374881Y-12801428D01*
X13374881Y-12801428D02*
X13384405Y-12791905D01*
X13460595Y-12887143D02*
X13460595Y-13020476D01*
X13460595Y-12906190D02*
X13470119Y-12896667D01*
X13470119Y-12896667D02*
X13489167Y-12887143D01*
X13489167Y-12887143D02*
X13517738Y-12887143D01*
X13517738Y-12887143D02*
X13536786Y-12896667D01*
X13536786Y-12896667D02*
X13546310Y-12915714D01*
X13546310Y-12915714D02*
X13546310Y-13020476D01*
X13670119Y-13020476D02*
X13651072Y-13010952D01*
X13651072Y-13010952D02*
X13641548Y-13001428D01*
X13641548Y-13001428D02*
X13632024Y-12982381D01*
X13632024Y-12982381D02*
X13632024Y-12925238D01*
X13632024Y-12925238D02*
X13641548Y-12906190D01*
X13641548Y-12906190D02*
X13651072Y-12896667D01*
X13651072Y-12896667D02*
X13670119Y-12887143D01*
X13670119Y-12887143D02*
X13698691Y-12887143D01*
X13698691Y-12887143D02*
X13717738Y-12896667D01*
X13717738Y-12896667D02*
X13727262Y-12906190D01*
X13727262Y-12906190D02*
X13736786Y-12925238D01*
X13736786Y-12925238D02*
X13736786Y-12982381D01*
X13736786Y-12982381D02*
X13727262Y-13001428D01*
X13727262Y-13001428D02*
X13717738Y-13010952D01*
X13717738Y-13010952D02*
X13698691Y-13020476D01*
X13698691Y-13020476D02*
X13670119Y-13020476D01*
X13793929Y-12887143D02*
X13870119Y-12887143D01*
X13822500Y-12820476D02*
X13822500Y-12991905D01*
X13822500Y-12991905D02*
X13832024Y-13010952D01*
X13832024Y-13010952D02*
X13851072Y-13020476D01*
X13851072Y-13020476D02*
X13870119Y-13020476D01*
X14056786Y-12887143D02*
X14056786Y-13087143D01*
X14056786Y-12896667D02*
X14075833Y-12887143D01*
X14075833Y-12887143D02*
X14113929Y-12887143D01*
X14113929Y-12887143D02*
X14132976Y-12896667D01*
X14132976Y-12896667D02*
X14142500Y-12906190D01*
X14142500Y-12906190D02*
X14152024Y-12925238D01*
X14152024Y-12925238D02*
X14152024Y-12982381D01*
X14152024Y-12982381D02*
X14142500Y-13001428D01*
X14142500Y-13001428D02*
X14132976Y-13010952D01*
X14132976Y-13010952D02*
X14113929Y-13020476D01*
X14113929Y-13020476D02*
X14075833Y-13020476D01*
X14075833Y-13020476D02*
X14056786Y-13010952D01*
X14266310Y-13020476D02*
X14247262Y-13010952D01*
X14247262Y-13010952D02*
X14237738Y-12991905D01*
X14237738Y-12991905D02*
X14237738Y-12820476D01*
X14428214Y-13020476D02*
X14428214Y-12915714D01*
X14428214Y-12915714D02*
X14418691Y-12896667D01*
X14418691Y-12896667D02*
X14399643Y-12887143D01*
X14399643Y-12887143D02*
X14361548Y-12887143D01*
X14361548Y-12887143D02*
X14342500Y-12896667D01*
X14428214Y-13010952D02*
X14409167Y-13020476D01*
X14409167Y-13020476D02*
X14361548Y-13020476D01*
X14361548Y-13020476D02*
X14342500Y-13010952D01*
X14342500Y-13010952D02*
X14332976Y-12991905D01*
X14332976Y-12991905D02*
X14332976Y-12972857D01*
X14332976Y-12972857D02*
X14342500Y-12953809D01*
X14342500Y-12953809D02*
X14361548Y-12944286D01*
X14361548Y-12944286D02*
X14409167Y-12944286D01*
X14409167Y-12944286D02*
X14428214Y-12934762D01*
X14494881Y-12887143D02*
X14571072Y-12887143D01*
X14523453Y-12820476D02*
X14523453Y-12991905D01*
X14523453Y-12991905D02*
X14532976Y-13010952D01*
X14532976Y-13010952D02*
X14552024Y-13020476D01*
X14552024Y-13020476D02*
X14571072Y-13020476D01*
X14713929Y-13010952D02*
X14694881Y-13020476D01*
X14694881Y-13020476D02*
X14656786Y-13020476D01*
X14656786Y-13020476D02*
X14637738Y-13010952D01*
X14637738Y-13010952D02*
X14628214Y-12991905D01*
X14628214Y-12991905D02*
X14628214Y-12915714D01*
X14628214Y-12915714D02*
X14637738Y-12896667D01*
X14637738Y-12896667D02*
X14656786Y-12887143D01*
X14656786Y-12887143D02*
X14694881Y-12887143D01*
X14694881Y-12887143D02*
X14713929Y-12896667D01*
X14713929Y-12896667D02*
X14723453Y-12915714D01*
X14723453Y-12915714D02*
X14723453Y-12934762D01*
X14723453Y-12934762D02*
X14628214Y-12953809D01*
X14894881Y-13020476D02*
X14894881Y-12820476D01*
X14894881Y-13010952D02*
X14875834Y-13020476D01*
X14875834Y-13020476D02*
X14837738Y-13020476D01*
X14837738Y-13020476D02*
X14818691Y-13010952D01*
X14818691Y-13010952D02*
X14809167Y-13001428D01*
X14809167Y-13001428D02*
X14799643Y-12982381D01*
X14799643Y-12982381D02*
X14799643Y-12925238D01*
X14799643Y-12925238D02*
X14809167Y-12906190D01*
X14809167Y-12906190D02*
X14818691Y-12896667D01*
X14818691Y-12896667D02*
X14837738Y-12887143D01*
X14837738Y-12887143D02*
X14875834Y-12887143D01*
X14875834Y-12887143D02*
X14894881Y-12896667D01*
X14971072Y-13096667D02*
X14980595Y-13087143D01*
X14980595Y-13087143D02*
X14999643Y-13058571D01*
X14999643Y-13058571D02*
X15009167Y-13039524D01*
X15009167Y-13039524D02*
X15018691Y-13010952D01*
X15018691Y-13010952D02*
X15028214Y-12963333D01*
X15028214Y-12963333D02*
X15028214Y-12925238D01*
X15028214Y-12925238D02*
X15018691Y-12877619D01*
X15018691Y-12877619D02*
X15009167Y-12849048D01*
X15009167Y-12849048D02*
X14999643Y-12830000D01*
X14999643Y-12830000D02*
X14980595Y-12801428D01*
X14980595Y-12801428D02*
X14971072Y-12791905D01*
M02*
