M48
; DRILL file {KiCad (7.0.0-0)} date Wednesday, 01 November 2023 at 15:03:48
; FORMAT={-:-/ absolute / metric / decimal}
; #@! TF.CreationDate,2023-11-01T15:03:48+02:00
; #@! TF.GenerationSoftware,Kicad,Pcbnew,(7.0.0-0)
; #@! TF.FileFunction,Plated,1,2,PTH
FMAT,2
METRIC
; #@! TA.AperFunction,Plated,PTH,ViaDrill
T1C0.300
; #@! TA.AperFunction,Plated,PTH,ViaDrill
T2C0.400
; #@! TA.AperFunction,Plated,PTH,ComponentDrill
T3C0.500
; #@! TA.AperFunction,Plated,PTH,ComponentDrill
T4C1.000
; #@! TA.AperFunction,Plated,PTH,ComponentDrill
T5C1.200
; #@! TA.AperFunction,Plated,PTH,ComponentDrill
T6C1.500
; #@! TA.AperFunction,Plated,PTH,ComponentDrill
T7C1.600
; #@! TA.AperFunction,Plated,PTH,ComponentDrill
T8C3.200
%
G90
G05
T1
X113.284Y-85.152
X114.2Y-83.44
T2
X106.26Y-90.92
X106.49Y-99.18
X110.56Y-95.34
X112.3Y-95.36
X114.2Y-89.54
X115.1Y-97.47
X125.3Y-84.64
X130.89Y-87.28
X134.8Y-94.6
X139.15Y-82.02
X144.415Y-87.822
X149.2Y-90.1
X155.7Y-56.25
X156.3Y-89.8
X156.9Y-58.13
X157.32Y-56.02
X157.58Y-92.48
X161.6Y-60.7
X162.06Y-58.63
X168.74Y-64.34
X182.8Y-87.0
X184.0Y-88.5
X184.0Y-90.7
X190.9Y-60.7
X192.6Y-87.0
T3
X187.4Y-85.0
X191.0Y-80.8
T4
X94.44Y-88.048
X94.44Y-90.818
X94.44Y-93.588
X94.44Y-96.358
X97.28Y-86.663
X97.28Y-89.433
X97.28Y-92.203
X97.28Y-94.973
X97.28Y-97.743
X109.1Y-102.8
X109.1Y-105.34
X109.1Y-107.88
X109.1Y-110.42
X119.5Y-76.9
X119.5Y-79.44
X119.5Y-81.98
X119.5Y-84.52
X119.5Y-87.06
X119.5Y-89.6
X119.5Y-92.14
X119.5Y-94.68
X142.36Y-76.9
X142.36Y-79.44
X142.36Y-81.98
X142.36Y-84.52
X142.36Y-87.06
X142.36Y-89.6
X142.36Y-92.14
X142.36Y-94.68
X152.78Y-92.645
X152.78Y-95.185
T5
X132.9Y-53.35
X132.9Y-66.05
T6
X104.524Y-53.34
X127.124Y-53.34
T7
X165.18Y-97.5
X165.68Y-75.9
X180.42Y-97.5
X180.92Y-75.9
T8
X95.86Y-79.703
X95.86Y-104.703
T4
X173.5Y-55.0G85X173.5Y-52.4
G05
X175.3Y-48.9G85X177.5Y-48.9
G05
X179.8Y-54.8G85X179.8Y-52.6
G05
T0
M30
