G04 #@! TF.GenerationSoftware,KiCad,Pcbnew,(7.0.0-0)*
G04 #@! TF.CreationDate,2023-11-01T15:02:25+02:00*
G04 #@! TF.ProjectId,Untitled,556e7469-746c-4656-942e-6b696361645f,rev?*
G04 #@! TF.SameCoordinates,Original*
G04 #@! TF.FileFunction,Legend,Top*
G04 #@! TF.FilePolarity,Positive*
%FSLAX46Y46*%
G04 Gerber Fmt 4.6, Leading zero omitted, Abs format (unit mm)*
G04 Created by KiCad (PCBNEW (7.0.0-0)) date 2023-11-01 15:02:25*
%MOMM*%
%LPD*%
G01*
G04 APERTURE LIST*
G04 Aperture macros list*
%AMRoundRect*
0 Rectangle with rounded corners*
0 $1 Rounding radius*
0 $2 $3 $4 $5 $6 $7 $8 $9 X,Y pos of 4 corners*
0 Add a 4 corners polygon primitive as box body*
4,1,4,$2,$3,$4,$5,$6,$7,$8,$9,$2,$3,0*
0 Add four circle primitives for the rounded corners*
1,1,$1+$1,$2,$3*
1,1,$1+$1,$4,$5*
1,1,$1+$1,$6,$7*
1,1,$1+$1,$8,$9*
0 Add four rect primitives between the rounded corners*
20,1,$1+$1,$2,$3,$4,$5,0*
20,1,$1+$1,$4,$5,$6,$7,0*
20,1,$1+$1,$6,$7,$8,$9,0*
20,1,$1+$1,$8,$9,$2,$3,0*%
G04 Aperture macros list end*
%ADD10C,0.150000*%
%ADD11C,0.120000*%
%ADD12R,1.700000X1.700000*%
%ADD13O,1.700000X1.700000*%
%ADD14RoundRect,0.225000X-0.250000X0.225000X-0.250000X-0.225000X0.250000X-0.225000X0.250000X0.225000X0*%
%ADD15RoundRect,0.243750X0.456250X-0.243750X0.456250X0.243750X-0.456250X0.243750X-0.456250X-0.243750X0*%
%ADD16RoundRect,0.200000X-0.275000X0.200000X-0.275000X-0.200000X0.275000X-0.200000X0.275000X0.200000X0*%
%ADD17RoundRect,0.200000X0.275000X-0.200000X0.275000X0.200000X-0.275000X0.200000X-0.275000X-0.200000X0*%
%ADD18RoundRect,0.062500X0.350000X0.062500X-0.350000X0.062500X-0.350000X-0.062500X0.350000X-0.062500X0*%
%ADD19R,1.650000X1.350000*%
%ADD20R,3.200000X3.200000*%
%ADD21O,3.200000X3.200000*%
%ADD22RoundRect,0.225000X0.225000X0.250000X-0.225000X0.250000X-0.225000X-0.250000X0.225000X-0.250000X0*%
%ADD23RoundRect,0.150000X0.825000X0.150000X-0.825000X0.150000X-0.825000X-0.150000X0.825000X-0.150000X0*%
%ADD24RoundRect,0.250000X0.450000X-0.262500X0.450000X0.262500X-0.450000X0.262500X-0.450000X-0.262500X0*%
%ADD25C,2.390000*%
%ADD26C,3.450000*%
%ADD27R,7.340000X6.350000*%
%ADD28R,2.000000X2.000000*%
%ADD29O,2.000000X1.600000*%
%ADD30RoundRect,0.110000X0.440000X1.590000X-0.440000X1.590000X-0.440000X-1.590000X0.440000X-1.590000X0*%
%ADD31RoundRect,0.140000X0.170000X-0.140000X0.170000X0.140000X-0.170000X0.140000X-0.170000X-0.140000X0*%
%ADD32R,0.850000X0.850000*%
%ADD33RoundRect,0.140000X0.140000X0.170000X-0.140000X0.170000X-0.140000X-0.170000X0.140000X-0.170000X0*%
%ADD34RoundRect,0.200000X-0.200000X-0.275000X0.200000X-0.275000X0.200000X0.275000X-0.200000X0.275000X0*%
%ADD35RoundRect,0.140000X-0.140000X-0.170000X0.140000X-0.170000X0.140000X0.170000X-0.140000X0.170000X0*%
%ADD36C,3.200000*%
%ADD37RoundRect,0.250000X-1.000000X1.500000X-1.000000X-1.500000X1.000000X-1.500000X1.000000X1.500000X0*%
%ADD38R,1.560000X0.650000*%
%ADD39RoundRect,0.200000X0.200000X0.275000X-0.200000X0.275000X-0.200000X-0.275000X0.200000X-0.275000X0*%
%ADD40RoundRect,0.225000X0.250000X-0.225000X0.250000X0.225000X-0.250000X0.225000X-0.250000X-0.225000X0*%
%ADD41C,4.000000*%
%ADD42R,1.600000X1.600000*%
%ADD43C,1.600000*%
%ADD44R,2.400000X2.400000*%
%ADD45O,2.400000X2.400000*%
%ADD46RoundRect,0.150000X-0.675000X-0.150000X0.675000X-0.150000X0.675000X0.150000X-0.675000X0.150000X0*%
%ADD47RoundRect,0.250000X1.250000X0.550000X-1.250000X0.550000X-1.250000X-0.550000X1.250000X-0.550000X0*%
%ADD48R,2.000000X4.600000*%
%ADD49O,2.000000X4.200000*%
%ADD50O,4.200000X2.000000*%
%ADD51RoundRect,0.250000X-1.950000X-1.000000X1.950000X-1.000000X1.950000X1.000000X-1.950000X1.000000X0*%
%ADD52C,3.000000*%
G04 APERTURE END LIST*
D10*
X152446666Y-89682380D02*
X152446666Y-90396666D01*
X152446666Y-90396666D02*
X152399047Y-90539523D01*
X152399047Y-90539523D02*
X152303809Y-90634761D01*
X152303809Y-90634761D02*
X152160952Y-90682380D01*
X152160952Y-90682380D02*
X152065714Y-90682380D01*
X153399047Y-89682380D02*
X152922857Y-89682380D01*
X152922857Y-89682380D02*
X152875238Y-90158571D01*
X152875238Y-90158571D02*
X152922857Y-90110952D01*
X152922857Y-90110952D02*
X153018095Y-90063333D01*
X153018095Y-90063333D02*
X153256190Y-90063333D01*
X153256190Y-90063333D02*
X153351428Y-90110952D01*
X153351428Y-90110952D02*
X153399047Y-90158571D01*
X153399047Y-90158571D02*
X153446666Y-90253809D01*
X153446666Y-90253809D02*
X153446666Y-90491904D01*
X153446666Y-90491904D02*
X153399047Y-90587142D01*
X153399047Y-90587142D02*
X153351428Y-90634761D01*
X153351428Y-90634761D02*
X153256190Y-90682380D01*
X153256190Y-90682380D02*
X153018095Y-90682380D01*
X153018095Y-90682380D02*
X152922857Y-90634761D01*
X152922857Y-90634761D02*
X152875238Y-90587142D01*
X108766666Y-99837380D02*
X108766666Y-100551666D01*
X108766666Y-100551666D02*
X108719047Y-100694523D01*
X108719047Y-100694523D02*
X108623809Y-100789761D01*
X108623809Y-100789761D02*
X108480952Y-100837380D01*
X108480952Y-100837380D02*
X108385714Y-100837380D01*
X109766666Y-100837380D02*
X109195238Y-100837380D01*
X109480952Y-100837380D02*
X109480952Y-99837380D01*
X109480952Y-99837380D02*
X109385714Y-99980238D01*
X109385714Y-99980238D02*
X109290476Y-100075476D01*
X109290476Y-100075476D02*
X109195238Y-100123095D01*
X166602142Y-63166666D02*
X166649761Y-63214285D01*
X166649761Y-63214285D02*
X166697380Y-63357142D01*
X166697380Y-63357142D02*
X166697380Y-63452380D01*
X166697380Y-63452380D02*
X166649761Y-63595237D01*
X166649761Y-63595237D02*
X166554523Y-63690475D01*
X166554523Y-63690475D02*
X166459285Y-63738094D01*
X166459285Y-63738094D02*
X166268809Y-63785713D01*
X166268809Y-63785713D02*
X166125952Y-63785713D01*
X166125952Y-63785713D02*
X165935476Y-63738094D01*
X165935476Y-63738094D02*
X165840238Y-63690475D01*
X165840238Y-63690475D02*
X165745000Y-63595237D01*
X165745000Y-63595237D02*
X165697380Y-63452380D01*
X165697380Y-63452380D02*
X165697380Y-63357142D01*
X165697380Y-63357142D02*
X165745000Y-63214285D01*
X165745000Y-63214285D02*
X165792619Y-63166666D01*
X165697380Y-62261904D02*
X165697380Y-62738094D01*
X165697380Y-62738094D02*
X166173571Y-62785713D01*
X166173571Y-62785713D02*
X166125952Y-62738094D01*
X166125952Y-62738094D02*
X166078333Y-62642856D01*
X166078333Y-62642856D02*
X166078333Y-62404761D01*
X166078333Y-62404761D02*
X166125952Y-62309523D01*
X166125952Y-62309523D02*
X166173571Y-62261904D01*
X166173571Y-62261904D02*
X166268809Y-62214285D01*
X166268809Y-62214285D02*
X166506904Y-62214285D01*
X166506904Y-62214285D02*
X166602142Y-62261904D01*
X166602142Y-62261904D02*
X166649761Y-62309523D01*
X166649761Y-62309523D02*
X166697380Y-62404761D01*
X166697380Y-62404761D02*
X166697380Y-62642856D01*
X166697380Y-62642856D02*
X166649761Y-62738094D01*
X166649761Y-62738094D02*
X166602142Y-62785713D01*
X118217380Y-107478094D02*
X117217380Y-107478094D01*
X117217380Y-107478094D02*
X117217380Y-107239999D01*
X117217380Y-107239999D02*
X117265000Y-107097142D01*
X117265000Y-107097142D02*
X117360238Y-107001904D01*
X117360238Y-107001904D02*
X117455476Y-106954285D01*
X117455476Y-106954285D02*
X117645952Y-106906666D01*
X117645952Y-106906666D02*
X117788809Y-106906666D01*
X117788809Y-106906666D02*
X117979285Y-106954285D01*
X117979285Y-106954285D02*
X118074523Y-107001904D01*
X118074523Y-107001904D02*
X118169761Y-107097142D01*
X118169761Y-107097142D02*
X118217380Y-107239999D01*
X118217380Y-107239999D02*
X118217380Y-107478094D01*
X117217380Y-106049523D02*
X117217380Y-106239999D01*
X117217380Y-106239999D02*
X117265000Y-106335237D01*
X117265000Y-106335237D02*
X117312619Y-106382856D01*
X117312619Y-106382856D02*
X117455476Y-106478094D01*
X117455476Y-106478094D02*
X117645952Y-106525713D01*
X117645952Y-106525713D02*
X118026904Y-106525713D01*
X118026904Y-106525713D02*
X118122142Y-106478094D01*
X118122142Y-106478094D02*
X118169761Y-106430475D01*
X118169761Y-106430475D02*
X118217380Y-106335237D01*
X118217380Y-106335237D02*
X118217380Y-106144761D01*
X118217380Y-106144761D02*
X118169761Y-106049523D01*
X118169761Y-106049523D02*
X118122142Y-106001904D01*
X118122142Y-106001904D02*
X118026904Y-105954285D01*
X118026904Y-105954285D02*
X117788809Y-105954285D01*
X117788809Y-105954285D02*
X117693571Y-106001904D01*
X117693571Y-106001904D02*
X117645952Y-106049523D01*
X117645952Y-106049523D02*
X117598333Y-106144761D01*
X117598333Y-106144761D02*
X117598333Y-106335237D01*
X117598333Y-106335237D02*
X117645952Y-106430475D01*
X117645952Y-106430475D02*
X117693571Y-106478094D01*
X117693571Y-106478094D02*
X117788809Y-106525713D01*
X105697380Y-113393357D02*
X105221190Y-113726690D01*
X105697380Y-113964785D02*
X104697380Y-113964785D01*
X104697380Y-113964785D02*
X104697380Y-113583833D01*
X104697380Y-113583833D02*
X104745000Y-113488595D01*
X104745000Y-113488595D02*
X104792619Y-113440976D01*
X104792619Y-113440976D02*
X104887857Y-113393357D01*
X104887857Y-113393357D02*
X105030714Y-113393357D01*
X105030714Y-113393357D02*
X105125952Y-113440976D01*
X105125952Y-113440976D02*
X105173571Y-113488595D01*
X105173571Y-113488595D02*
X105221190Y-113583833D01*
X105221190Y-113583833D02*
X105221190Y-113964785D01*
X105697380Y-112440976D02*
X105697380Y-113012404D01*
X105697380Y-112726690D02*
X104697380Y-112726690D01*
X104697380Y-112726690D02*
X104840238Y-112821928D01*
X104840238Y-112821928D02*
X104935476Y-112917166D01*
X104935476Y-112917166D02*
X104983095Y-113012404D01*
X104792619Y-112060023D02*
X104745000Y-112012404D01*
X104745000Y-112012404D02*
X104697380Y-111917166D01*
X104697380Y-111917166D02*
X104697380Y-111679071D01*
X104697380Y-111679071D02*
X104745000Y-111583833D01*
X104745000Y-111583833D02*
X104792619Y-111536214D01*
X104792619Y-111536214D02*
X104887857Y-111488595D01*
X104887857Y-111488595D02*
X104983095Y-111488595D01*
X104983095Y-111488595D02*
X105125952Y-111536214D01*
X105125952Y-111536214D02*
X105697380Y-112107642D01*
X105697380Y-112107642D02*
X105697380Y-111488595D01*
X141297380Y-113416857D02*
X140821190Y-113750190D01*
X141297380Y-113988285D02*
X140297380Y-113988285D01*
X140297380Y-113988285D02*
X140297380Y-113607333D01*
X140297380Y-113607333D02*
X140345000Y-113512095D01*
X140345000Y-113512095D02*
X140392619Y-113464476D01*
X140392619Y-113464476D02*
X140487857Y-113416857D01*
X140487857Y-113416857D02*
X140630714Y-113416857D01*
X140630714Y-113416857D02*
X140725952Y-113464476D01*
X140725952Y-113464476D02*
X140773571Y-113512095D01*
X140773571Y-113512095D02*
X140821190Y-113607333D01*
X140821190Y-113607333D02*
X140821190Y-113988285D01*
X141297380Y-112464476D02*
X141297380Y-113035904D01*
X141297380Y-112750190D02*
X140297380Y-112750190D01*
X140297380Y-112750190D02*
X140440238Y-112845428D01*
X140440238Y-112845428D02*
X140535476Y-112940666D01*
X140535476Y-112940666D02*
X140583095Y-113035904D01*
X140297380Y-112131142D02*
X140297380Y-111464476D01*
X140297380Y-111464476D02*
X141297380Y-111893047D01*
X153087380Y-56053666D02*
X152611190Y-56386999D01*
X153087380Y-56625094D02*
X152087380Y-56625094D01*
X152087380Y-56625094D02*
X152087380Y-56244142D01*
X152087380Y-56244142D02*
X152135000Y-56148904D01*
X152135000Y-56148904D02*
X152182619Y-56101285D01*
X152182619Y-56101285D02*
X152277857Y-56053666D01*
X152277857Y-56053666D02*
X152420714Y-56053666D01*
X152420714Y-56053666D02*
X152515952Y-56101285D01*
X152515952Y-56101285D02*
X152563571Y-56148904D01*
X152563571Y-56148904D02*
X152611190Y-56244142D01*
X152611190Y-56244142D02*
X152611190Y-56625094D01*
X152087380Y-55720332D02*
X152087380Y-55053666D01*
X152087380Y-55053666D02*
X153087380Y-55482237D01*
X127397380Y-113402857D02*
X126921190Y-113736190D01*
X127397380Y-113974285D02*
X126397380Y-113974285D01*
X126397380Y-113974285D02*
X126397380Y-113593333D01*
X126397380Y-113593333D02*
X126445000Y-113498095D01*
X126445000Y-113498095D02*
X126492619Y-113450476D01*
X126492619Y-113450476D02*
X126587857Y-113402857D01*
X126587857Y-113402857D02*
X126730714Y-113402857D01*
X126730714Y-113402857D02*
X126825952Y-113450476D01*
X126825952Y-113450476D02*
X126873571Y-113498095D01*
X126873571Y-113498095D02*
X126921190Y-113593333D01*
X126921190Y-113593333D02*
X126921190Y-113974285D01*
X127397380Y-112450476D02*
X127397380Y-113021904D01*
X127397380Y-112736190D02*
X126397380Y-112736190D01*
X126397380Y-112736190D02*
X126540238Y-112831428D01*
X126540238Y-112831428D02*
X126635476Y-112926666D01*
X126635476Y-112926666D02*
X126683095Y-113021904D01*
X126397380Y-111545714D02*
X126397380Y-112021904D01*
X126397380Y-112021904D02*
X126873571Y-112069523D01*
X126873571Y-112069523D02*
X126825952Y-112021904D01*
X126825952Y-112021904D02*
X126778333Y-111926666D01*
X126778333Y-111926666D02*
X126778333Y-111688571D01*
X126778333Y-111688571D02*
X126825952Y-111593333D01*
X126825952Y-111593333D02*
X126873571Y-111545714D01*
X126873571Y-111545714D02*
X126968809Y-111498095D01*
X126968809Y-111498095D02*
X127206904Y-111498095D01*
X127206904Y-111498095D02*
X127302142Y-111545714D01*
X127302142Y-111545714D02*
X127349761Y-111593333D01*
X127349761Y-111593333D02*
X127397380Y-111688571D01*
X127397380Y-111688571D02*
X127397380Y-111926666D01*
X127397380Y-111926666D02*
X127349761Y-112021904D01*
X127349761Y-112021904D02*
X127302142Y-112069523D01*
X148178380Y-102529666D02*
X147702190Y-102862999D01*
X148178380Y-103101094D02*
X147178380Y-103101094D01*
X147178380Y-103101094D02*
X147178380Y-102720142D01*
X147178380Y-102720142D02*
X147226000Y-102624904D01*
X147226000Y-102624904D02*
X147273619Y-102577285D01*
X147273619Y-102577285D02*
X147368857Y-102529666D01*
X147368857Y-102529666D02*
X147511714Y-102529666D01*
X147511714Y-102529666D02*
X147606952Y-102577285D01*
X147606952Y-102577285D02*
X147654571Y-102624904D01*
X147654571Y-102624904D02*
X147702190Y-102720142D01*
X147702190Y-102720142D02*
X147702190Y-103101094D01*
X148178380Y-102053475D02*
X148178380Y-101862999D01*
X148178380Y-101862999D02*
X148130761Y-101767761D01*
X148130761Y-101767761D02*
X148083142Y-101720142D01*
X148083142Y-101720142D02*
X147940285Y-101624904D01*
X147940285Y-101624904D02*
X147749809Y-101577285D01*
X147749809Y-101577285D02*
X147368857Y-101577285D01*
X147368857Y-101577285D02*
X147273619Y-101624904D01*
X147273619Y-101624904D02*
X147226000Y-101672523D01*
X147226000Y-101672523D02*
X147178380Y-101767761D01*
X147178380Y-101767761D02*
X147178380Y-101958237D01*
X147178380Y-101958237D02*
X147226000Y-102053475D01*
X147226000Y-102053475D02*
X147273619Y-102101094D01*
X147273619Y-102101094D02*
X147368857Y-102148713D01*
X147368857Y-102148713D02*
X147606952Y-102148713D01*
X147606952Y-102148713D02*
X147702190Y-102101094D01*
X147702190Y-102101094D02*
X147749809Y-102053475D01*
X147749809Y-102053475D02*
X147797428Y-101958237D01*
X147797428Y-101958237D02*
X147797428Y-101767761D01*
X147797428Y-101767761D02*
X147749809Y-101672523D01*
X147749809Y-101672523D02*
X147702190Y-101624904D01*
X147702190Y-101624904D02*
X147606952Y-101577285D01*
X151683095Y-90069380D02*
X151683095Y-90878904D01*
X151683095Y-90878904D02*
X151730714Y-90974142D01*
X151730714Y-90974142D02*
X151778333Y-91021761D01*
X151778333Y-91021761D02*
X151873571Y-91069380D01*
X151873571Y-91069380D02*
X152064047Y-91069380D01*
X152064047Y-91069380D02*
X152159285Y-91021761D01*
X152159285Y-91021761D02*
X152206904Y-90974142D01*
X152206904Y-90974142D02*
X152254523Y-90878904D01*
X152254523Y-90878904D02*
X152254523Y-90069380D01*
X152635476Y-90069380D02*
X153302142Y-90069380D01*
X153302142Y-90069380D02*
X152873571Y-91069380D01*
X172191905Y-103277380D02*
X172191905Y-102277380D01*
X172191905Y-102277380D02*
X172430000Y-102277380D01*
X172430000Y-102277380D02*
X172572857Y-102325000D01*
X172572857Y-102325000D02*
X172668095Y-102420238D01*
X172668095Y-102420238D02*
X172715714Y-102515476D01*
X172715714Y-102515476D02*
X172763333Y-102705952D01*
X172763333Y-102705952D02*
X172763333Y-102848809D01*
X172763333Y-102848809D02*
X172715714Y-103039285D01*
X172715714Y-103039285D02*
X172668095Y-103134523D01*
X172668095Y-103134523D02*
X172572857Y-103229761D01*
X172572857Y-103229761D02*
X172430000Y-103277380D01*
X172430000Y-103277380D02*
X172191905Y-103277380D01*
X173096667Y-102277380D02*
X173715714Y-102277380D01*
X173715714Y-102277380D02*
X173382381Y-102658333D01*
X173382381Y-102658333D02*
X173525238Y-102658333D01*
X173525238Y-102658333D02*
X173620476Y-102705952D01*
X173620476Y-102705952D02*
X173668095Y-102753571D01*
X173668095Y-102753571D02*
X173715714Y-102848809D01*
X173715714Y-102848809D02*
X173715714Y-103086904D01*
X173715714Y-103086904D02*
X173668095Y-103182142D01*
X173668095Y-103182142D02*
X173620476Y-103229761D01*
X173620476Y-103229761D02*
X173525238Y-103277380D01*
X173525238Y-103277380D02*
X173239524Y-103277380D01*
X173239524Y-103277380D02*
X173144286Y-103229761D01*
X173144286Y-103229761D02*
X173096667Y-103182142D01*
X164918095Y-95267380D02*
X164918095Y-94267380D01*
X165489523Y-95267380D02*
X165060952Y-94695952D01*
X165489523Y-94267380D02*
X164918095Y-94838809D01*
X164158142Y-91068142D02*
X164110523Y-91115761D01*
X164110523Y-91115761D02*
X163967666Y-91163380D01*
X163967666Y-91163380D02*
X163872428Y-91163380D01*
X163872428Y-91163380D02*
X163729571Y-91115761D01*
X163729571Y-91115761D02*
X163634333Y-91020523D01*
X163634333Y-91020523D02*
X163586714Y-90925285D01*
X163586714Y-90925285D02*
X163539095Y-90734809D01*
X163539095Y-90734809D02*
X163539095Y-90591952D01*
X163539095Y-90591952D02*
X163586714Y-90401476D01*
X163586714Y-90401476D02*
X163634333Y-90306238D01*
X163634333Y-90306238D02*
X163729571Y-90211000D01*
X163729571Y-90211000D02*
X163872428Y-90163380D01*
X163872428Y-90163380D02*
X163967666Y-90163380D01*
X163967666Y-90163380D02*
X164110523Y-90211000D01*
X164110523Y-90211000D02*
X164158142Y-90258619D01*
X165110523Y-91163380D02*
X164539095Y-91163380D01*
X164824809Y-91163380D02*
X164824809Y-90163380D01*
X164824809Y-90163380D02*
X164729571Y-90306238D01*
X164729571Y-90306238D02*
X164634333Y-90401476D01*
X164634333Y-90401476D02*
X164539095Y-90449095D01*
X165491476Y-90258619D02*
X165539095Y-90211000D01*
X165539095Y-90211000D02*
X165634333Y-90163380D01*
X165634333Y-90163380D02*
X165872428Y-90163380D01*
X165872428Y-90163380D02*
X165967666Y-90211000D01*
X165967666Y-90211000D02*
X166015285Y-90258619D01*
X166015285Y-90258619D02*
X166062904Y-90353857D01*
X166062904Y-90353857D02*
X166062904Y-90449095D01*
X166062904Y-90449095D02*
X166015285Y-90591952D01*
X166015285Y-90591952D02*
X165443857Y-91163380D01*
X165443857Y-91163380D02*
X166062904Y-91163380D01*
X105410095Y-96134380D02*
X105410095Y-96943904D01*
X105410095Y-96943904D02*
X105457714Y-97039142D01*
X105457714Y-97039142D02*
X105505333Y-97086761D01*
X105505333Y-97086761D02*
X105600571Y-97134380D01*
X105600571Y-97134380D02*
X105791047Y-97134380D01*
X105791047Y-97134380D02*
X105886285Y-97086761D01*
X105886285Y-97086761D02*
X105933904Y-97039142D01*
X105933904Y-97039142D02*
X105981523Y-96943904D01*
X105981523Y-96943904D02*
X105981523Y-96134380D01*
X106981523Y-97134380D02*
X106410095Y-97134380D01*
X106695809Y-97134380D02*
X106695809Y-96134380D01*
X106695809Y-96134380D02*
X106600571Y-96277238D01*
X106600571Y-96277238D02*
X106505333Y-96372476D01*
X106505333Y-96372476D02*
X106410095Y-96420095D01*
X102617380Y-101542857D02*
X102141190Y-101876190D01*
X102617380Y-102114285D02*
X101617380Y-102114285D01*
X101617380Y-102114285D02*
X101617380Y-101733333D01*
X101617380Y-101733333D02*
X101665000Y-101638095D01*
X101665000Y-101638095D02*
X101712619Y-101590476D01*
X101712619Y-101590476D02*
X101807857Y-101542857D01*
X101807857Y-101542857D02*
X101950714Y-101542857D01*
X101950714Y-101542857D02*
X102045952Y-101590476D01*
X102045952Y-101590476D02*
X102093571Y-101638095D01*
X102093571Y-101638095D02*
X102141190Y-101733333D01*
X102141190Y-101733333D02*
X102141190Y-102114285D01*
X102617380Y-100590476D02*
X102617380Y-101161904D01*
X102617380Y-100876190D02*
X101617380Y-100876190D01*
X101617380Y-100876190D02*
X101760238Y-100971428D01*
X101760238Y-100971428D02*
X101855476Y-101066666D01*
X101855476Y-101066666D02*
X101903095Y-101161904D01*
X102045952Y-100019047D02*
X101998333Y-100114285D01*
X101998333Y-100114285D02*
X101950714Y-100161904D01*
X101950714Y-100161904D02*
X101855476Y-100209523D01*
X101855476Y-100209523D02*
X101807857Y-100209523D01*
X101807857Y-100209523D02*
X101712619Y-100161904D01*
X101712619Y-100161904D02*
X101665000Y-100114285D01*
X101665000Y-100114285D02*
X101617380Y-100019047D01*
X101617380Y-100019047D02*
X101617380Y-99828571D01*
X101617380Y-99828571D02*
X101665000Y-99733333D01*
X101665000Y-99733333D02*
X101712619Y-99685714D01*
X101712619Y-99685714D02*
X101807857Y-99638095D01*
X101807857Y-99638095D02*
X101855476Y-99638095D01*
X101855476Y-99638095D02*
X101950714Y-99685714D01*
X101950714Y-99685714D02*
X101998333Y-99733333D01*
X101998333Y-99733333D02*
X102045952Y-99828571D01*
X102045952Y-99828571D02*
X102045952Y-100019047D01*
X102045952Y-100019047D02*
X102093571Y-100114285D01*
X102093571Y-100114285D02*
X102141190Y-100161904D01*
X102141190Y-100161904D02*
X102236428Y-100209523D01*
X102236428Y-100209523D02*
X102426904Y-100209523D01*
X102426904Y-100209523D02*
X102522142Y-100161904D01*
X102522142Y-100161904D02*
X102569761Y-100114285D01*
X102569761Y-100114285D02*
X102617380Y-100019047D01*
X102617380Y-100019047D02*
X102617380Y-99828571D01*
X102617380Y-99828571D02*
X102569761Y-99733333D01*
X102569761Y-99733333D02*
X102522142Y-99685714D01*
X102522142Y-99685714D02*
X102426904Y-99638095D01*
X102426904Y-99638095D02*
X102236428Y-99638095D01*
X102236428Y-99638095D02*
X102141190Y-99685714D01*
X102141190Y-99685714D02*
X102093571Y-99733333D01*
X102093571Y-99733333D02*
X102045952Y-99828571D01*
X142825885Y-46801971D02*
X142968742Y-46849590D01*
X142968742Y-46849590D02*
X143016361Y-46897209D01*
X143016361Y-46897209D02*
X143063980Y-46992447D01*
X143063980Y-46992447D02*
X143063980Y-47135304D01*
X143063980Y-47135304D02*
X143016361Y-47230542D01*
X143016361Y-47230542D02*
X142968742Y-47278161D01*
X142968742Y-47278161D02*
X142873504Y-47325780D01*
X142873504Y-47325780D02*
X142492552Y-47325780D01*
X142492552Y-47325780D02*
X142492552Y-46325780D01*
X142492552Y-46325780D02*
X142825885Y-46325780D01*
X142825885Y-46325780D02*
X142921123Y-46373400D01*
X142921123Y-46373400D02*
X142968742Y-46421019D01*
X142968742Y-46421019D02*
X143016361Y-46516257D01*
X143016361Y-46516257D02*
X143016361Y-46611495D01*
X143016361Y-46611495D02*
X142968742Y-46706733D01*
X142968742Y-46706733D02*
X142921123Y-46754352D01*
X142921123Y-46754352D02*
X142825885Y-46801971D01*
X142825885Y-46801971D02*
X142492552Y-46801971D01*
X143349695Y-46325780D02*
X143921123Y-46325780D01*
X143635409Y-47325780D02*
X143635409Y-46325780D01*
X144206838Y-46421019D02*
X144254457Y-46373400D01*
X144254457Y-46373400D02*
X144349695Y-46325780D01*
X144349695Y-46325780D02*
X144587790Y-46325780D01*
X144587790Y-46325780D02*
X144683028Y-46373400D01*
X144683028Y-46373400D02*
X144730647Y-46421019D01*
X144730647Y-46421019D02*
X144778266Y-46516257D01*
X144778266Y-46516257D02*
X144778266Y-46611495D01*
X144778266Y-46611495D02*
X144730647Y-46754352D01*
X144730647Y-46754352D02*
X144159219Y-47325780D01*
X144159219Y-47325780D02*
X144778266Y-47325780D01*
X140738095Y-103267380D02*
X140738095Y-104076904D01*
X140738095Y-104076904D02*
X140785714Y-104172142D01*
X140785714Y-104172142D02*
X140833333Y-104219761D01*
X140833333Y-104219761D02*
X140928571Y-104267380D01*
X140928571Y-104267380D02*
X141119047Y-104267380D01*
X141119047Y-104267380D02*
X141214285Y-104219761D01*
X141214285Y-104219761D02*
X141261904Y-104172142D01*
X141261904Y-104172142D02*
X141309523Y-104076904D01*
X141309523Y-104076904D02*
X141309523Y-103267380D01*
X142214285Y-103267380D02*
X142023809Y-103267380D01*
X142023809Y-103267380D02*
X141928571Y-103315000D01*
X141928571Y-103315000D02*
X141880952Y-103362619D01*
X141880952Y-103362619D02*
X141785714Y-103505476D01*
X141785714Y-103505476D02*
X141738095Y-103695952D01*
X141738095Y-103695952D02*
X141738095Y-104076904D01*
X141738095Y-104076904D02*
X141785714Y-104172142D01*
X141785714Y-104172142D02*
X141833333Y-104219761D01*
X141833333Y-104219761D02*
X141928571Y-104267380D01*
X141928571Y-104267380D02*
X142119047Y-104267380D01*
X142119047Y-104267380D02*
X142214285Y-104219761D01*
X142214285Y-104219761D02*
X142261904Y-104172142D01*
X142261904Y-104172142D02*
X142309523Y-104076904D01*
X142309523Y-104076904D02*
X142309523Y-103838809D01*
X142309523Y-103838809D02*
X142261904Y-103743571D01*
X142261904Y-103743571D02*
X142214285Y-103695952D01*
X142214285Y-103695952D02*
X142119047Y-103648333D01*
X142119047Y-103648333D02*
X141928571Y-103648333D01*
X141928571Y-103648333D02*
X141833333Y-103695952D01*
X141833333Y-103695952D02*
X141785714Y-103743571D01*
X141785714Y-103743571D02*
X141738095Y-103838809D01*
X129717380Y-107678094D02*
X128717380Y-107678094D01*
X128717380Y-107678094D02*
X128717380Y-107439999D01*
X128717380Y-107439999D02*
X128765000Y-107297142D01*
X128765000Y-107297142D02*
X128860238Y-107201904D01*
X128860238Y-107201904D02*
X128955476Y-107154285D01*
X128955476Y-107154285D02*
X129145952Y-107106666D01*
X129145952Y-107106666D02*
X129288809Y-107106666D01*
X129288809Y-107106666D02*
X129479285Y-107154285D01*
X129479285Y-107154285D02*
X129574523Y-107201904D01*
X129574523Y-107201904D02*
X129669761Y-107297142D01*
X129669761Y-107297142D02*
X129717380Y-107439999D01*
X129717380Y-107439999D02*
X129717380Y-107678094D01*
X129145952Y-106535237D02*
X129098333Y-106630475D01*
X129098333Y-106630475D02*
X129050714Y-106678094D01*
X129050714Y-106678094D02*
X128955476Y-106725713D01*
X128955476Y-106725713D02*
X128907857Y-106725713D01*
X128907857Y-106725713D02*
X128812619Y-106678094D01*
X128812619Y-106678094D02*
X128765000Y-106630475D01*
X128765000Y-106630475D02*
X128717380Y-106535237D01*
X128717380Y-106535237D02*
X128717380Y-106344761D01*
X128717380Y-106344761D02*
X128765000Y-106249523D01*
X128765000Y-106249523D02*
X128812619Y-106201904D01*
X128812619Y-106201904D02*
X128907857Y-106154285D01*
X128907857Y-106154285D02*
X128955476Y-106154285D01*
X128955476Y-106154285D02*
X129050714Y-106201904D01*
X129050714Y-106201904D02*
X129098333Y-106249523D01*
X129098333Y-106249523D02*
X129145952Y-106344761D01*
X129145952Y-106344761D02*
X129145952Y-106535237D01*
X129145952Y-106535237D02*
X129193571Y-106630475D01*
X129193571Y-106630475D02*
X129241190Y-106678094D01*
X129241190Y-106678094D02*
X129336428Y-106725713D01*
X129336428Y-106725713D02*
X129526904Y-106725713D01*
X129526904Y-106725713D02*
X129622142Y-106678094D01*
X129622142Y-106678094D02*
X129669761Y-106630475D01*
X129669761Y-106630475D02*
X129717380Y-106535237D01*
X129717380Y-106535237D02*
X129717380Y-106344761D01*
X129717380Y-106344761D02*
X129669761Y-106249523D01*
X129669761Y-106249523D02*
X129622142Y-106201904D01*
X129622142Y-106201904D02*
X129526904Y-106154285D01*
X129526904Y-106154285D02*
X129336428Y-106154285D01*
X129336428Y-106154285D02*
X129241190Y-106201904D01*
X129241190Y-106201904D02*
X129193571Y-106249523D01*
X129193571Y-106249523D02*
X129145952Y-106344761D01*
X158237380Y-102942857D02*
X157761190Y-103276190D01*
X158237380Y-103514285D02*
X157237380Y-103514285D01*
X157237380Y-103514285D02*
X157237380Y-103133333D01*
X157237380Y-103133333D02*
X157285000Y-103038095D01*
X157285000Y-103038095D02*
X157332619Y-102990476D01*
X157332619Y-102990476D02*
X157427857Y-102942857D01*
X157427857Y-102942857D02*
X157570714Y-102942857D01*
X157570714Y-102942857D02*
X157665952Y-102990476D01*
X157665952Y-102990476D02*
X157713571Y-103038095D01*
X157713571Y-103038095D02*
X157761190Y-103133333D01*
X157761190Y-103133333D02*
X157761190Y-103514285D01*
X158237380Y-101990476D02*
X158237380Y-102561904D01*
X158237380Y-102276190D02*
X157237380Y-102276190D01*
X157237380Y-102276190D02*
X157380238Y-102371428D01*
X157380238Y-102371428D02*
X157475476Y-102466666D01*
X157475476Y-102466666D02*
X157523095Y-102561904D01*
X157237380Y-101371428D02*
X157237380Y-101276190D01*
X157237380Y-101276190D02*
X157285000Y-101180952D01*
X157285000Y-101180952D02*
X157332619Y-101133333D01*
X157332619Y-101133333D02*
X157427857Y-101085714D01*
X157427857Y-101085714D02*
X157618333Y-101038095D01*
X157618333Y-101038095D02*
X157856428Y-101038095D01*
X157856428Y-101038095D02*
X158046904Y-101085714D01*
X158046904Y-101085714D02*
X158142142Y-101133333D01*
X158142142Y-101133333D02*
X158189761Y-101180952D01*
X158189761Y-101180952D02*
X158237380Y-101276190D01*
X158237380Y-101276190D02*
X158237380Y-101371428D01*
X158237380Y-101371428D02*
X158189761Y-101466666D01*
X158189761Y-101466666D02*
X158142142Y-101514285D01*
X158142142Y-101514285D02*
X158046904Y-101561904D01*
X158046904Y-101561904D02*
X157856428Y-101609523D01*
X157856428Y-101609523D02*
X157618333Y-101609523D01*
X157618333Y-101609523D02*
X157427857Y-101561904D01*
X157427857Y-101561904D02*
X157332619Y-101514285D01*
X157332619Y-101514285D02*
X157285000Y-101466666D01*
X157285000Y-101466666D02*
X157237380Y-101371428D01*
X173033333Y-85867380D02*
X172557143Y-85867380D01*
X172557143Y-85867380D02*
X172557143Y-84867380D01*
X173890476Y-85867380D02*
X173319048Y-85867380D01*
X173604762Y-85867380D02*
X173604762Y-84867380D01*
X173604762Y-84867380D02*
X173509524Y-85010238D01*
X173509524Y-85010238D02*
X173414286Y-85105476D01*
X173414286Y-85105476D02*
X173319048Y-85153095D01*
X111315142Y-93418666D02*
X111362761Y-93466285D01*
X111362761Y-93466285D02*
X111410380Y-93609142D01*
X111410380Y-93609142D02*
X111410380Y-93704380D01*
X111410380Y-93704380D02*
X111362761Y-93847237D01*
X111362761Y-93847237D02*
X111267523Y-93942475D01*
X111267523Y-93942475D02*
X111172285Y-93990094D01*
X111172285Y-93990094D02*
X110981809Y-94037713D01*
X110981809Y-94037713D02*
X110838952Y-94037713D01*
X110838952Y-94037713D02*
X110648476Y-93990094D01*
X110648476Y-93990094D02*
X110553238Y-93942475D01*
X110553238Y-93942475D02*
X110458000Y-93847237D01*
X110458000Y-93847237D02*
X110410380Y-93704380D01*
X110410380Y-93704380D02*
X110410380Y-93609142D01*
X110410380Y-93609142D02*
X110458000Y-93466285D01*
X110458000Y-93466285D02*
X110505619Y-93418666D01*
X110410380Y-93085332D02*
X110410380Y-92466285D01*
X110410380Y-92466285D02*
X110791333Y-92799618D01*
X110791333Y-92799618D02*
X110791333Y-92656761D01*
X110791333Y-92656761D02*
X110838952Y-92561523D01*
X110838952Y-92561523D02*
X110886571Y-92513904D01*
X110886571Y-92513904D02*
X110981809Y-92466285D01*
X110981809Y-92466285D02*
X111219904Y-92466285D01*
X111219904Y-92466285D02*
X111315142Y-92513904D01*
X111315142Y-92513904D02*
X111362761Y-92561523D01*
X111362761Y-92561523D02*
X111410380Y-92656761D01*
X111410380Y-92656761D02*
X111410380Y-92942475D01*
X111410380Y-92942475D02*
X111362761Y-93037713D01*
X111362761Y-93037713D02*
X111315142Y-93085332D01*
X138217380Y-107240594D02*
X137217380Y-107240594D01*
X137217380Y-107240594D02*
X137217380Y-107002499D01*
X137217380Y-107002499D02*
X137265000Y-106859642D01*
X137265000Y-106859642D02*
X137360238Y-106764404D01*
X137360238Y-106764404D02*
X137455476Y-106716785D01*
X137455476Y-106716785D02*
X137645952Y-106669166D01*
X137645952Y-106669166D02*
X137788809Y-106669166D01*
X137788809Y-106669166D02*
X137979285Y-106716785D01*
X137979285Y-106716785D02*
X138074523Y-106764404D01*
X138074523Y-106764404D02*
X138169761Y-106859642D01*
X138169761Y-106859642D02*
X138217380Y-107002499D01*
X138217380Y-107002499D02*
X138217380Y-107240594D01*
X138217380Y-106192975D02*
X138217380Y-106002499D01*
X138217380Y-106002499D02*
X138169761Y-105907261D01*
X138169761Y-105907261D02*
X138122142Y-105859642D01*
X138122142Y-105859642D02*
X137979285Y-105764404D01*
X137979285Y-105764404D02*
X137788809Y-105716785D01*
X137788809Y-105716785D02*
X137407857Y-105716785D01*
X137407857Y-105716785D02*
X137312619Y-105764404D01*
X137312619Y-105764404D02*
X137265000Y-105812023D01*
X137265000Y-105812023D02*
X137217380Y-105907261D01*
X137217380Y-105907261D02*
X137217380Y-106097737D01*
X137217380Y-106097737D02*
X137265000Y-106192975D01*
X137265000Y-106192975D02*
X137312619Y-106240594D01*
X137312619Y-106240594D02*
X137407857Y-106288213D01*
X137407857Y-106288213D02*
X137645952Y-106288213D01*
X137645952Y-106288213D02*
X137741190Y-106240594D01*
X137741190Y-106240594D02*
X137788809Y-106192975D01*
X137788809Y-106192975D02*
X137836428Y-106097737D01*
X137836428Y-106097737D02*
X137836428Y-105907261D01*
X137836428Y-105907261D02*
X137788809Y-105812023D01*
X137788809Y-105812023D02*
X137741190Y-105764404D01*
X137741190Y-105764404D02*
X137645952Y-105716785D01*
X187066666Y-82807380D02*
X187066666Y-83521666D01*
X187066666Y-83521666D02*
X187019047Y-83664523D01*
X187019047Y-83664523D02*
X186923809Y-83759761D01*
X186923809Y-83759761D02*
X186780952Y-83807380D01*
X186780952Y-83807380D02*
X186685714Y-83807380D01*
X187447619Y-82807380D02*
X188066666Y-82807380D01*
X188066666Y-82807380D02*
X187733333Y-83188333D01*
X187733333Y-83188333D02*
X187876190Y-83188333D01*
X187876190Y-83188333D02*
X187971428Y-83235952D01*
X187971428Y-83235952D02*
X188019047Y-83283571D01*
X188019047Y-83283571D02*
X188066666Y-83378809D01*
X188066666Y-83378809D02*
X188066666Y-83616904D01*
X188066666Y-83616904D02*
X188019047Y-83712142D01*
X188019047Y-83712142D02*
X187971428Y-83759761D01*
X187971428Y-83759761D02*
X187876190Y-83807380D01*
X187876190Y-83807380D02*
X187590476Y-83807380D01*
X187590476Y-83807380D02*
X187495238Y-83759761D01*
X187495238Y-83759761D02*
X187447619Y-83712142D01*
X156703333Y-58544142D02*
X156655714Y-58591761D01*
X156655714Y-58591761D02*
X156512857Y-58639380D01*
X156512857Y-58639380D02*
X156417619Y-58639380D01*
X156417619Y-58639380D02*
X156274762Y-58591761D01*
X156274762Y-58591761D02*
X156179524Y-58496523D01*
X156179524Y-58496523D02*
X156131905Y-58401285D01*
X156131905Y-58401285D02*
X156084286Y-58210809D01*
X156084286Y-58210809D02*
X156084286Y-58067952D01*
X156084286Y-58067952D02*
X156131905Y-57877476D01*
X156131905Y-57877476D02*
X156179524Y-57782238D01*
X156179524Y-57782238D02*
X156274762Y-57687000D01*
X156274762Y-57687000D02*
X156417619Y-57639380D01*
X156417619Y-57639380D02*
X156512857Y-57639380D01*
X156512857Y-57639380D02*
X156655714Y-57687000D01*
X156655714Y-57687000D02*
X156703333Y-57734619D01*
X157179524Y-58639380D02*
X157370000Y-58639380D01*
X157370000Y-58639380D02*
X157465238Y-58591761D01*
X157465238Y-58591761D02*
X157512857Y-58544142D01*
X157512857Y-58544142D02*
X157608095Y-58401285D01*
X157608095Y-58401285D02*
X157655714Y-58210809D01*
X157655714Y-58210809D02*
X157655714Y-57829857D01*
X157655714Y-57829857D02*
X157608095Y-57734619D01*
X157608095Y-57734619D02*
X157560476Y-57687000D01*
X157560476Y-57687000D02*
X157465238Y-57639380D01*
X157465238Y-57639380D02*
X157274762Y-57639380D01*
X157274762Y-57639380D02*
X157179524Y-57687000D01*
X157179524Y-57687000D02*
X157131905Y-57734619D01*
X157131905Y-57734619D02*
X157084286Y-57829857D01*
X157084286Y-57829857D02*
X157084286Y-58067952D01*
X157084286Y-58067952D02*
X157131905Y-58163190D01*
X157131905Y-58163190D02*
X157179524Y-58210809D01*
X157179524Y-58210809D02*
X157274762Y-58258428D01*
X157274762Y-58258428D02*
X157465238Y-58258428D01*
X157465238Y-58258428D02*
X157560476Y-58210809D01*
X157560476Y-58210809D02*
X157608095Y-58163190D01*
X157608095Y-58163190D02*
X157655714Y-58067952D01*
X166083333Y-54149380D02*
X165750000Y-53673190D01*
X165511905Y-54149380D02*
X165511905Y-53149380D01*
X165511905Y-53149380D02*
X165892857Y-53149380D01*
X165892857Y-53149380D02*
X165988095Y-53197000D01*
X165988095Y-53197000D02*
X166035714Y-53244619D01*
X166035714Y-53244619D02*
X166083333Y-53339857D01*
X166083333Y-53339857D02*
X166083333Y-53482714D01*
X166083333Y-53482714D02*
X166035714Y-53577952D01*
X166035714Y-53577952D02*
X165988095Y-53625571D01*
X165988095Y-53625571D02*
X165892857Y-53673190D01*
X165892857Y-53673190D02*
X165511905Y-53673190D01*
X166988095Y-53149380D02*
X166511905Y-53149380D01*
X166511905Y-53149380D02*
X166464286Y-53625571D01*
X166464286Y-53625571D02*
X166511905Y-53577952D01*
X166511905Y-53577952D02*
X166607143Y-53530333D01*
X166607143Y-53530333D02*
X166845238Y-53530333D01*
X166845238Y-53530333D02*
X166940476Y-53577952D01*
X166940476Y-53577952D02*
X166988095Y-53625571D01*
X166988095Y-53625571D02*
X167035714Y-53720809D01*
X167035714Y-53720809D02*
X167035714Y-53958904D01*
X167035714Y-53958904D02*
X166988095Y-54054142D01*
X166988095Y-54054142D02*
X166940476Y-54101761D01*
X166940476Y-54101761D02*
X166845238Y-54149380D01*
X166845238Y-54149380D02*
X166607143Y-54149380D01*
X166607143Y-54149380D02*
X166511905Y-54101761D01*
X166511905Y-54101761D02*
X166464286Y-54054142D01*
X111020333Y-87820142D02*
X110972714Y-87867761D01*
X110972714Y-87867761D02*
X110829857Y-87915380D01*
X110829857Y-87915380D02*
X110734619Y-87915380D01*
X110734619Y-87915380D02*
X110591762Y-87867761D01*
X110591762Y-87867761D02*
X110496524Y-87772523D01*
X110496524Y-87772523D02*
X110448905Y-87677285D01*
X110448905Y-87677285D02*
X110401286Y-87486809D01*
X110401286Y-87486809D02*
X110401286Y-87343952D01*
X110401286Y-87343952D02*
X110448905Y-87153476D01*
X110448905Y-87153476D02*
X110496524Y-87058238D01*
X110496524Y-87058238D02*
X110591762Y-86963000D01*
X110591762Y-86963000D02*
X110734619Y-86915380D01*
X110734619Y-86915380D02*
X110829857Y-86915380D01*
X110829857Y-86915380D02*
X110972714Y-86963000D01*
X110972714Y-86963000D02*
X111020333Y-87010619D01*
X111972714Y-87915380D02*
X111401286Y-87915380D01*
X111687000Y-87915380D02*
X111687000Y-86915380D01*
X111687000Y-86915380D02*
X111591762Y-87058238D01*
X111591762Y-87058238D02*
X111496524Y-87153476D01*
X111496524Y-87153476D02*
X111401286Y-87201095D01*
X191198095Y-24957380D02*
X191198095Y-23957380D01*
X191198095Y-24433571D02*
X191769523Y-24433571D01*
X191769523Y-24957380D02*
X191769523Y-23957380D01*
X192674285Y-24290714D02*
X192674285Y-24957380D01*
X192436190Y-23909761D02*
X192198095Y-24624047D01*
X192198095Y-24624047D02*
X192817142Y-24624047D01*
X161913333Y-58712142D02*
X161865714Y-58759761D01*
X161865714Y-58759761D02*
X161722857Y-58807380D01*
X161722857Y-58807380D02*
X161627619Y-58807380D01*
X161627619Y-58807380D02*
X161484762Y-58759761D01*
X161484762Y-58759761D02*
X161389524Y-58664523D01*
X161389524Y-58664523D02*
X161341905Y-58569285D01*
X161341905Y-58569285D02*
X161294286Y-58378809D01*
X161294286Y-58378809D02*
X161294286Y-58235952D01*
X161294286Y-58235952D02*
X161341905Y-58045476D01*
X161341905Y-58045476D02*
X161389524Y-57950238D01*
X161389524Y-57950238D02*
X161484762Y-57855000D01*
X161484762Y-57855000D02*
X161627619Y-57807380D01*
X161627619Y-57807380D02*
X161722857Y-57807380D01*
X161722857Y-57807380D02*
X161865714Y-57855000D01*
X161865714Y-57855000D02*
X161913333Y-57902619D01*
X162246667Y-57807380D02*
X162913333Y-57807380D01*
X162913333Y-57807380D02*
X162484762Y-58807380D01*
X116093380Y-113171357D02*
X115617190Y-113504690D01*
X116093380Y-113742785D02*
X115093380Y-113742785D01*
X115093380Y-113742785D02*
X115093380Y-113361833D01*
X115093380Y-113361833D02*
X115141000Y-113266595D01*
X115141000Y-113266595D02*
X115188619Y-113218976D01*
X115188619Y-113218976D02*
X115283857Y-113171357D01*
X115283857Y-113171357D02*
X115426714Y-113171357D01*
X115426714Y-113171357D02*
X115521952Y-113218976D01*
X115521952Y-113218976D02*
X115569571Y-113266595D01*
X115569571Y-113266595D02*
X115617190Y-113361833D01*
X115617190Y-113361833D02*
X115617190Y-113742785D01*
X116093380Y-112218976D02*
X116093380Y-112790404D01*
X116093380Y-112504690D02*
X115093380Y-112504690D01*
X115093380Y-112504690D02*
X115236238Y-112599928D01*
X115236238Y-112599928D02*
X115331476Y-112695166D01*
X115331476Y-112695166D02*
X115379095Y-112790404D01*
X115093380Y-111885642D02*
X115093380Y-111266595D01*
X115093380Y-111266595D02*
X115474333Y-111599928D01*
X115474333Y-111599928D02*
X115474333Y-111457071D01*
X115474333Y-111457071D02*
X115521952Y-111361833D01*
X115521952Y-111361833D02*
X115569571Y-111314214D01*
X115569571Y-111314214D02*
X115664809Y-111266595D01*
X115664809Y-111266595D02*
X115902904Y-111266595D01*
X115902904Y-111266595D02*
X115998142Y-111314214D01*
X115998142Y-111314214D02*
X116045761Y-111361833D01*
X116045761Y-111361833D02*
X116093380Y-111457071D01*
X116093380Y-111457071D02*
X116093380Y-111742785D01*
X116093380Y-111742785D02*
X116045761Y-111838023D01*
X116045761Y-111838023D02*
X115998142Y-111885642D01*
X152537380Y-102641666D02*
X152061190Y-102974999D01*
X152537380Y-103213094D02*
X151537380Y-103213094D01*
X151537380Y-103213094D02*
X151537380Y-102832142D01*
X151537380Y-102832142D02*
X151585000Y-102736904D01*
X151585000Y-102736904D02*
X151632619Y-102689285D01*
X151632619Y-102689285D02*
X151727857Y-102641666D01*
X151727857Y-102641666D02*
X151870714Y-102641666D01*
X151870714Y-102641666D02*
X151965952Y-102689285D01*
X151965952Y-102689285D02*
X152013571Y-102736904D01*
X152013571Y-102736904D02*
X152061190Y-102832142D01*
X152061190Y-102832142D02*
X152061190Y-103213094D01*
X151965952Y-102070237D02*
X151918333Y-102165475D01*
X151918333Y-102165475D02*
X151870714Y-102213094D01*
X151870714Y-102213094D02*
X151775476Y-102260713D01*
X151775476Y-102260713D02*
X151727857Y-102260713D01*
X151727857Y-102260713D02*
X151632619Y-102213094D01*
X151632619Y-102213094D02*
X151585000Y-102165475D01*
X151585000Y-102165475D02*
X151537380Y-102070237D01*
X151537380Y-102070237D02*
X151537380Y-101879761D01*
X151537380Y-101879761D02*
X151585000Y-101784523D01*
X151585000Y-101784523D02*
X151632619Y-101736904D01*
X151632619Y-101736904D02*
X151727857Y-101689285D01*
X151727857Y-101689285D02*
X151775476Y-101689285D01*
X151775476Y-101689285D02*
X151870714Y-101736904D01*
X151870714Y-101736904D02*
X151918333Y-101784523D01*
X151918333Y-101784523D02*
X151965952Y-101879761D01*
X151965952Y-101879761D02*
X151965952Y-102070237D01*
X151965952Y-102070237D02*
X152013571Y-102165475D01*
X152013571Y-102165475D02*
X152061190Y-102213094D01*
X152061190Y-102213094D02*
X152156428Y-102260713D01*
X152156428Y-102260713D02*
X152346904Y-102260713D01*
X152346904Y-102260713D02*
X152442142Y-102213094D01*
X152442142Y-102213094D02*
X152489761Y-102165475D01*
X152489761Y-102165475D02*
X152537380Y-102070237D01*
X152537380Y-102070237D02*
X152537380Y-101879761D01*
X152537380Y-101879761D02*
X152489761Y-101784523D01*
X152489761Y-101784523D02*
X152442142Y-101736904D01*
X152442142Y-101736904D02*
X152346904Y-101689285D01*
X152346904Y-101689285D02*
X152156428Y-101689285D01*
X152156428Y-101689285D02*
X152061190Y-101736904D01*
X152061190Y-101736904D02*
X152013571Y-101784523D01*
X152013571Y-101784523D02*
X151965952Y-101879761D01*
X172561905Y-79987380D02*
X172561905Y-78987380D01*
X172561905Y-78987380D02*
X172800000Y-78987380D01*
X172800000Y-78987380D02*
X172942857Y-79035000D01*
X172942857Y-79035000D02*
X173038095Y-79130238D01*
X173038095Y-79130238D02*
X173085714Y-79225476D01*
X173085714Y-79225476D02*
X173133333Y-79415952D01*
X173133333Y-79415952D02*
X173133333Y-79558809D01*
X173133333Y-79558809D02*
X173085714Y-79749285D01*
X173085714Y-79749285D02*
X173038095Y-79844523D01*
X173038095Y-79844523D02*
X172942857Y-79939761D01*
X172942857Y-79939761D02*
X172800000Y-79987380D01*
X172800000Y-79987380D02*
X172561905Y-79987380D01*
X174085714Y-79987380D02*
X173514286Y-79987380D01*
X173800000Y-79987380D02*
X173800000Y-78987380D01*
X173800000Y-78987380D02*
X173704762Y-79130238D01*
X173704762Y-79130238D02*
X173609524Y-79225476D01*
X173609524Y-79225476D02*
X173514286Y-79273095D01*
X180658095Y-78867380D02*
X180658095Y-77867380D01*
X181229523Y-78867380D02*
X180800952Y-78295952D01*
X181229523Y-77867380D02*
X180658095Y-78438809D01*
X147972142Y-57185357D02*
X148019761Y-57232976D01*
X148019761Y-57232976D02*
X148067380Y-57375833D01*
X148067380Y-57375833D02*
X148067380Y-57471071D01*
X148067380Y-57471071D02*
X148019761Y-57613928D01*
X148019761Y-57613928D02*
X147924523Y-57709166D01*
X147924523Y-57709166D02*
X147829285Y-57756785D01*
X147829285Y-57756785D02*
X147638809Y-57804404D01*
X147638809Y-57804404D02*
X147495952Y-57804404D01*
X147495952Y-57804404D02*
X147305476Y-57756785D01*
X147305476Y-57756785D02*
X147210238Y-57709166D01*
X147210238Y-57709166D02*
X147115000Y-57613928D01*
X147115000Y-57613928D02*
X147067380Y-57471071D01*
X147067380Y-57471071D02*
X147067380Y-57375833D01*
X147067380Y-57375833D02*
X147115000Y-57232976D01*
X147115000Y-57232976D02*
X147162619Y-57185357D01*
X148067380Y-56232976D02*
X148067380Y-56804404D01*
X148067380Y-56518690D02*
X147067380Y-56518690D01*
X147067380Y-56518690D02*
X147210238Y-56613928D01*
X147210238Y-56613928D02*
X147305476Y-56709166D01*
X147305476Y-56709166D02*
X147353095Y-56804404D01*
X147067380Y-55899642D02*
X147067380Y-55280595D01*
X147067380Y-55280595D02*
X147448333Y-55613928D01*
X147448333Y-55613928D02*
X147448333Y-55471071D01*
X147448333Y-55471071D02*
X147495952Y-55375833D01*
X147495952Y-55375833D02*
X147543571Y-55328214D01*
X147543571Y-55328214D02*
X147638809Y-55280595D01*
X147638809Y-55280595D02*
X147876904Y-55280595D01*
X147876904Y-55280595D02*
X147972142Y-55328214D01*
X147972142Y-55328214D02*
X148019761Y-55375833D01*
X148019761Y-55375833D02*
X148067380Y-55471071D01*
X148067380Y-55471071D02*
X148067380Y-55756785D01*
X148067380Y-55756785D02*
X148019761Y-55852023D01*
X148019761Y-55852023D02*
X147972142Y-55899642D01*
X159738095Y-52567380D02*
X159738095Y-53376904D01*
X159738095Y-53376904D02*
X159785714Y-53472142D01*
X159785714Y-53472142D02*
X159833333Y-53519761D01*
X159833333Y-53519761D02*
X159928571Y-53567380D01*
X159928571Y-53567380D02*
X160119047Y-53567380D01*
X160119047Y-53567380D02*
X160214285Y-53519761D01*
X160214285Y-53519761D02*
X160261904Y-53472142D01*
X160261904Y-53472142D02*
X160309523Y-53376904D01*
X160309523Y-53376904D02*
X160309523Y-52567380D01*
X160690476Y-52567380D02*
X161309523Y-52567380D01*
X161309523Y-52567380D02*
X160976190Y-52948333D01*
X160976190Y-52948333D02*
X161119047Y-52948333D01*
X161119047Y-52948333D02*
X161214285Y-52995952D01*
X161214285Y-52995952D02*
X161261904Y-53043571D01*
X161261904Y-53043571D02*
X161309523Y-53138809D01*
X161309523Y-53138809D02*
X161309523Y-53376904D01*
X161309523Y-53376904D02*
X161261904Y-53472142D01*
X161261904Y-53472142D02*
X161214285Y-53519761D01*
X161214285Y-53519761D02*
X161119047Y-53567380D01*
X161119047Y-53567380D02*
X160833333Y-53567380D01*
X160833333Y-53567380D02*
X160738095Y-53519761D01*
X160738095Y-53519761D02*
X160690476Y-53472142D01*
X113013380Y-107503094D02*
X112013380Y-107503094D01*
X112013380Y-107503094D02*
X112013380Y-107264999D01*
X112013380Y-107264999D02*
X112061000Y-107122142D01*
X112061000Y-107122142D02*
X112156238Y-107026904D01*
X112156238Y-107026904D02*
X112251476Y-106979285D01*
X112251476Y-106979285D02*
X112441952Y-106931666D01*
X112441952Y-106931666D02*
X112584809Y-106931666D01*
X112584809Y-106931666D02*
X112775285Y-106979285D01*
X112775285Y-106979285D02*
X112870523Y-107026904D01*
X112870523Y-107026904D02*
X112965761Y-107122142D01*
X112965761Y-107122142D02*
X113013380Y-107264999D01*
X113013380Y-107264999D02*
X113013380Y-107503094D01*
X112013380Y-106026904D02*
X112013380Y-106503094D01*
X112013380Y-106503094D02*
X112489571Y-106550713D01*
X112489571Y-106550713D02*
X112441952Y-106503094D01*
X112441952Y-106503094D02*
X112394333Y-106407856D01*
X112394333Y-106407856D02*
X112394333Y-106169761D01*
X112394333Y-106169761D02*
X112441952Y-106074523D01*
X112441952Y-106074523D02*
X112489571Y-106026904D01*
X112489571Y-106026904D02*
X112584809Y-105979285D01*
X112584809Y-105979285D02*
X112822904Y-105979285D01*
X112822904Y-105979285D02*
X112918142Y-106026904D01*
X112918142Y-106026904D02*
X112965761Y-106074523D01*
X112965761Y-106074523D02*
X113013380Y-106169761D01*
X113013380Y-106169761D02*
X113013380Y-106407856D01*
X113013380Y-106407856D02*
X112965761Y-106503094D01*
X112965761Y-106503094D02*
X112918142Y-106550713D01*
X102617380Y-107900594D02*
X101617380Y-107900594D01*
X101617380Y-107900594D02*
X101617380Y-107662499D01*
X101617380Y-107662499D02*
X101665000Y-107519642D01*
X101665000Y-107519642D02*
X101760238Y-107424404D01*
X101760238Y-107424404D02*
X101855476Y-107376785D01*
X101855476Y-107376785D02*
X102045952Y-107329166D01*
X102045952Y-107329166D02*
X102188809Y-107329166D01*
X102188809Y-107329166D02*
X102379285Y-107376785D01*
X102379285Y-107376785D02*
X102474523Y-107424404D01*
X102474523Y-107424404D02*
X102569761Y-107519642D01*
X102569761Y-107519642D02*
X102617380Y-107662499D01*
X102617380Y-107662499D02*
X102617380Y-107900594D01*
X101950714Y-106472023D02*
X102617380Y-106472023D01*
X101569761Y-106710118D02*
X102284047Y-106948213D01*
X102284047Y-106948213D02*
X102284047Y-106329166D01*
X190058333Y-37197380D02*
X189725000Y-36721190D01*
X189486905Y-37197380D02*
X189486905Y-36197380D01*
X189486905Y-36197380D02*
X189867857Y-36197380D01*
X189867857Y-36197380D02*
X189963095Y-36245000D01*
X189963095Y-36245000D02*
X190010714Y-36292619D01*
X190010714Y-36292619D02*
X190058333Y-36387857D01*
X190058333Y-36387857D02*
X190058333Y-36530714D01*
X190058333Y-36530714D02*
X190010714Y-36625952D01*
X190010714Y-36625952D02*
X189963095Y-36673571D01*
X189963095Y-36673571D02*
X189867857Y-36721190D01*
X189867857Y-36721190D02*
X189486905Y-36721190D01*
X190439286Y-36292619D02*
X190486905Y-36245000D01*
X190486905Y-36245000D02*
X190582143Y-36197380D01*
X190582143Y-36197380D02*
X190820238Y-36197380D01*
X190820238Y-36197380D02*
X190915476Y-36245000D01*
X190915476Y-36245000D02*
X190963095Y-36292619D01*
X190963095Y-36292619D02*
X191010714Y-36387857D01*
X191010714Y-36387857D02*
X191010714Y-36483095D01*
X191010714Y-36483095D02*
X190963095Y-36625952D01*
X190963095Y-36625952D02*
X190391667Y-37197380D01*
X190391667Y-37197380D02*
X191010714Y-37197380D01*
X121297380Y-113161857D02*
X120821190Y-113495190D01*
X121297380Y-113733285D02*
X120297380Y-113733285D01*
X120297380Y-113733285D02*
X120297380Y-113352333D01*
X120297380Y-113352333D02*
X120345000Y-113257095D01*
X120345000Y-113257095D02*
X120392619Y-113209476D01*
X120392619Y-113209476D02*
X120487857Y-113161857D01*
X120487857Y-113161857D02*
X120630714Y-113161857D01*
X120630714Y-113161857D02*
X120725952Y-113209476D01*
X120725952Y-113209476D02*
X120773571Y-113257095D01*
X120773571Y-113257095D02*
X120821190Y-113352333D01*
X120821190Y-113352333D02*
X120821190Y-113733285D01*
X121297380Y-112209476D02*
X121297380Y-112780904D01*
X121297380Y-112495190D02*
X120297380Y-112495190D01*
X120297380Y-112495190D02*
X120440238Y-112590428D01*
X120440238Y-112590428D02*
X120535476Y-112685666D01*
X120535476Y-112685666D02*
X120583095Y-112780904D01*
X120630714Y-111352333D02*
X121297380Y-111352333D01*
X120249761Y-111590428D02*
X120964047Y-111828523D01*
X120964047Y-111828523D02*
X120964047Y-111209476D01*
X124317380Y-107640594D02*
X123317380Y-107640594D01*
X123317380Y-107640594D02*
X123317380Y-107402499D01*
X123317380Y-107402499D02*
X123365000Y-107259642D01*
X123365000Y-107259642D02*
X123460238Y-107164404D01*
X123460238Y-107164404D02*
X123555476Y-107116785D01*
X123555476Y-107116785D02*
X123745952Y-107069166D01*
X123745952Y-107069166D02*
X123888809Y-107069166D01*
X123888809Y-107069166D02*
X124079285Y-107116785D01*
X124079285Y-107116785D02*
X124174523Y-107164404D01*
X124174523Y-107164404D02*
X124269761Y-107259642D01*
X124269761Y-107259642D02*
X124317380Y-107402499D01*
X124317380Y-107402499D02*
X124317380Y-107640594D01*
X123317380Y-106735832D02*
X123317380Y-106069166D01*
X123317380Y-106069166D02*
X124317380Y-106497737D01*
X110029142Y-90906666D02*
X110076761Y-90954285D01*
X110076761Y-90954285D02*
X110124380Y-91097142D01*
X110124380Y-91097142D02*
X110124380Y-91192380D01*
X110124380Y-91192380D02*
X110076761Y-91335237D01*
X110076761Y-91335237D02*
X109981523Y-91430475D01*
X109981523Y-91430475D02*
X109886285Y-91478094D01*
X109886285Y-91478094D02*
X109695809Y-91525713D01*
X109695809Y-91525713D02*
X109552952Y-91525713D01*
X109552952Y-91525713D02*
X109362476Y-91478094D01*
X109362476Y-91478094D02*
X109267238Y-91430475D01*
X109267238Y-91430475D02*
X109172000Y-91335237D01*
X109172000Y-91335237D02*
X109124380Y-91192380D01*
X109124380Y-91192380D02*
X109124380Y-91097142D01*
X109124380Y-91097142D02*
X109172000Y-90954285D01*
X109172000Y-90954285D02*
X109219619Y-90906666D01*
X109124380Y-90049523D02*
X109124380Y-90239999D01*
X109124380Y-90239999D02*
X109172000Y-90335237D01*
X109172000Y-90335237D02*
X109219619Y-90382856D01*
X109219619Y-90382856D02*
X109362476Y-90478094D01*
X109362476Y-90478094D02*
X109552952Y-90525713D01*
X109552952Y-90525713D02*
X109933904Y-90525713D01*
X109933904Y-90525713D02*
X110029142Y-90478094D01*
X110029142Y-90478094D02*
X110076761Y-90430475D01*
X110076761Y-90430475D02*
X110124380Y-90335237D01*
X110124380Y-90335237D02*
X110124380Y-90144761D01*
X110124380Y-90144761D02*
X110076761Y-90049523D01*
X110076761Y-90049523D02*
X110029142Y-90001904D01*
X110029142Y-90001904D02*
X109933904Y-89954285D01*
X109933904Y-89954285D02*
X109695809Y-89954285D01*
X109695809Y-89954285D02*
X109600571Y-90001904D01*
X109600571Y-90001904D02*
X109552952Y-90049523D01*
X109552952Y-90049523D02*
X109505333Y-90144761D01*
X109505333Y-90144761D02*
X109505333Y-90335237D01*
X109505333Y-90335237D02*
X109552952Y-90430475D01*
X109552952Y-90430475D02*
X109600571Y-90478094D01*
X109600571Y-90478094D02*
X109695809Y-90525713D01*
X99446911Y-92536533D02*
X100161197Y-92536533D01*
X100161197Y-92536533D02*
X100304054Y-92584152D01*
X100304054Y-92584152D02*
X100399292Y-92679390D01*
X100399292Y-92679390D02*
X100446911Y-92822247D01*
X100446911Y-92822247D02*
X100446911Y-92917485D01*
X99542150Y-92107961D02*
X99494531Y-92060342D01*
X99494531Y-92060342D02*
X99446911Y-91965104D01*
X99446911Y-91965104D02*
X99446911Y-91727009D01*
X99446911Y-91727009D02*
X99494531Y-91631771D01*
X99494531Y-91631771D02*
X99542150Y-91584152D01*
X99542150Y-91584152D02*
X99637388Y-91536533D01*
X99637388Y-91536533D02*
X99732626Y-91536533D01*
X99732626Y-91536533D02*
X99875483Y-91584152D01*
X99875483Y-91584152D02*
X100446911Y-92155580D01*
X100446911Y-92155580D02*
X100446911Y-91536533D01*
X178857380Y-87666666D02*
X178381190Y-87999999D01*
X178857380Y-88238094D02*
X177857380Y-88238094D01*
X177857380Y-88238094D02*
X177857380Y-87857142D01*
X177857380Y-87857142D02*
X177905000Y-87761904D01*
X177905000Y-87761904D02*
X177952619Y-87714285D01*
X177952619Y-87714285D02*
X178047857Y-87666666D01*
X178047857Y-87666666D02*
X178190714Y-87666666D01*
X178190714Y-87666666D02*
X178285952Y-87714285D01*
X178285952Y-87714285D02*
X178333571Y-87761904D01*
X178333571Y-87761904D02*
X178381190Y-87857142D01*
X178381190Y-87857142D02*
X178381190Y-88238094D01*
X178857380Y-86714285D02*
X178857380Y-87285713D01*
X178857380Y-86999999D02*
X177857380Y-86999999D01*
X177857380Y-86999999D02*
X178000238Y-87095237D01*
X178000238Y-87095237D02*
X178095476Y-87190475D01*
X178095476Y-87190475D02*
X178143095Y-87285713D01*
X190799999Y-91197380D02*
X190466666Y-90721190D01*
X190228571Y-91197380D02*
X190228571Y-90197380D01*
X190228571Y-90197380D02*
X190609523Y-90197380D01*
X190609523Y-90197380D02*
X190704761Y-90245000D01*
X190704761Y-90245000D02*
X190752380Y-90292619D01*
X190752380Y-90292619D02*
X190799999Y-90387857D01*
X190799999Y-90387857D02*
X190799999Y-90530714D01*
X190799999Y-90530714D02*
X190752380Y-90625952D01*
X190752380Y-90625952D02*
X190704761Y-90673571D01*
X190704761Y-90673571D02*
X190609523Y-90721190D01*
X190609523Y-90721190D02*
X190228571Y-90721190D01*
X191180952Y-91149761D02*
X191276190Y-91197380D01*
X191276190Y-91197380D02*
X191466666Y-91197380D01*
X191466666Y-91197380D02*
X191561904Y-91149761D01*
X191561904Y-91149761D02*
X191609523Y-91054523D01*
X191609523Y-91054523D02*
X191609523Y-91006904D01*
X191609523Y-91006904D02*
X191561904Y-90911666D01*
X191561904Y-90911666D02*
X191466666Y-90864047D01*
X191466666Y-90864047D02*
X191323809Y-90864047D01*
X191323809Y-90864047D02*
X191228571Y-90816428D01*
X191228571Y-90816428D02*
X191180952Y-90721190D01*
X191180952Y-90721190D02*
X191180952Y-90673571D01*
X191180952Y-90673571D02*
X191228571Y-90578333D01*
X191228571Y-90578333D02*
X191323809Y-90530714D01*
X191323809Y-90530714D02*
X191466666Y-90530714D01*
X191466666Y-90530714D02*
X191561904Y-90578333D01*
X192466666Y-91149761D02*
X192371428Y-91197380D01*
X192371428Y-91197380D02*
X192180952Y-91197380D01*
X192180952Y-91197380D02*
X192085714Y-91149761D01*
X192085714Y-91149761D02*
X192038095Y-91102142D01*
X192038095Y-91102142D02*
X191990476Y-91006904D01*
X191990476Y-91006904D02*
X191990476Y-90721190D01*
X191990476Y-90721190D02*
X192038095Y-90625952D01*
X192038095Y-90625952D02*
X192085714Y-90578333D01*
X192085714Y-90578333D02*
X192180952Y-90530714D01*
X192180952Y-90530714D02*
X192371428Y-90530714D01*
X192371428Y-90530714D02*
X192466666Y-90578333D01*
X193419047Y-91197380D02*
X192847619Y-91197380D01*
X193133333Y-91197380D02*
X193133333Y-90197380D01*
X193133333Y-90197380D02*
X193038095Y-90340238D01*
X193038095Y-90340238D02*
X192942857Y-90435476D01*
X192942857Y-90435476D02*
X192847619Y-90483095D01*
X179433333Y-89737380D02*
X179100000Y-89261190D01*
X178861905Y-89737380D02*
X178861905Y-88737380D01*
X178861905Y-88737380D02*
X179242857Y-88737380D01*
X179242857Y-88737380D02*
X179338095Y-88785000D01*
X179338095Y-88785000D02*
X179385714Y-88832619D01*
X179385714Y-88832619D02*
X179433333Y-88927857D01*
X179433333Y-88927857D02*
X179433333Y-89070714D01*
X179433333Y-89070714D02*
X179385714Y-89165952D01*
X179385714Y-89165952D02*
X179338095Y-89213571D01*
X179338095Y-89213571D02*
X179242857Y-89261190D01*
X179242857Y-89261190D02*
X178861905Y-89261190D01*
X179766667Y-88737380D02*
X180385714Y-88737380D01*
X180385714Y-88737380D02*
X180052381Y-89118333D01*
X180052381Y-89118333D02*
X180195238Y-89118333D01*
X180195238Y-89118333D02*
X180290476Y-89165952D01*
X180290476Y-89165952D02*
X180338095Y-89213571D01*
X180338095Y-89213571D02*
X180385714Y-89308809D01*
X180385714Y-89308809D02*
X180385714Y-89546904D01*
X180385714Y-89546904D02*
X180338095Y-89642142D01*
X180338095Y-89642142D02*
X180290476Y-89689761D01*
X180290476Y-89689761D02*
X180195238Y-89737380D01*
X180195238Y-89737380D02*
X179909524Y-89737380D01*
X179909524Y-89737380D02*
X179814286Y-89689761D01*
X179814286Y-89689761D02*
X179766667Y-89642142D01*
X136187380Y-60438094D02*
X135187380Y-60438094D01*
X135187380Y-60438094D02*
X135187380Y-60199999D01*
X135187380Y-60199999D02*
X135235000Y-60057142D01*
X135235000Y-60057142D02*
X135330238Y-59961904D01*
X135330238Y-59961904D02*
X135425476Y-59914285D01*
X135425476Y-59914285D02*
X135615952Y-59866666D01*
X135615952Y-59866666D02*
X135758809Y-59866666D01*
X135758809Y-59866666D02*
X135949285Y-59914285D01*
X135949285Y-59914285D02*
X136044523Y-59961904D01*
X136044523Y-59961904D02*
X136139761Y-60057142D01*
X136139761Y-60057142D02*
X136187380Y-60199999D01*
X136187380Y-60199999D02*
X136187380Y-60438094D01*
X135282619Y-59485713D02*
X135235000Y-59438094D01*
X135235000Y-59438094D02*
X135187380Y-59342856D01*
X135187380Y-59342856D02*
X135187380Y-59104761D01*
X135187380Y-59104761D02*
X135235000Y-59009523D01*
X135235000Y-59009523D02*
X135282619Y-58961904D01*
X135282619Y-58961904D02*
X135377857Y-58914285D01*
X135377857Y-58914285D02*
X135473095Y-58914285D01*
X135473095Y-58914285D02*
X135615952Y-58961904D01*
X135615952Y-58961904D02*
X136187380Y-59533332D01*
X136187380Y-59533332D02*
X136187380Y-58914285D01*
X135467380Y-53611904D02*
X134467380Y-53611904D01*
X135467380Y-53040476D02*
X134895952Y-53469047D01*
X134467380Y-53040476D02*
X135038809Y-53611904D01*
X178838095Y-102257380D02*
X178838095Y-101257380D01*
X178838095Y-101733571D02*
X179409523Y-101733571D01*
X179409523Y-102257380D02*
X179409523Y-101257380D01*
X179790476Y-101257380D02*
X180409523Y-101257380D01*
X180409523Y-101257380D02*
X180076190Y-101638333D01*
X180076190Y-101638333D02*
X180219047Y-101638333D01*
X180219047Y-101638333D02*
X180314285Y-101685952D01*
X180314285Y-101685952D02*
X180361904Y-101733571D01*
X180361904Y-101733571D02*
X180409523Y-101828809D01*
X180409523Y-101828809D02*
X180409523Y-102066904D01*
X180409523Y-102066904D02*
X180361904Y-102162142D01*
X180361904Y-102162142D02*
X180314285Y-102209761D01*
X180314285Y-102209761D02*
X180219047Y-102257380D01*
X180219047Y-102257380D02*
X179933333Y-102257380D01*
X179933333Y-102257380D02*
X179838095Y-102209761D01*
X179838095Y-102209761D02*
X179790476Y-102162142D01*
X104438095Y-66067380D02*
X104438095Y-65067380D01*
X104438095Y-65543571D02*
X105009523Y-65543571D01*
X105009523Y-66067380D02*
X105009523Y-65067380D01*
X105438095Y-65162619D02*
X105485714Y-65115000D01*
X105485714Y-65115000D02*
X105580952Y-65067380D01*
X105580952Y-65067380D02*
X105819047Y-65067380D01*
X105819047Y-65067380D02*
X105914285Y-65115000D01*
X105914285Y-65115000D02*
X105961904Y-65162619D01*
X105961904Y-65162619D02*
X106009523Y-65257857D01*
X106009523Y-65257857D02*
X106009523Y-65353095D01*
X106009523Y-65353095D02*
X105961904Y-65495952D01*
X105961904Y-65495952D02*
X105390476Y-66067380D01*
X105390476Y-66067380D02*
X106009523Y-66067380D01*
X167628095Y-87117380D02*
X167628095Y-87926904D01*
X167628095Y-87926904D02*
X167675714Y-88022142D01*
X167675714Y-88022142D02*
X167723333Y-88069761D01*
X167723333Y-88069761D02*
X167818571Y-88117380D01*
X167818571Y-88117380D02*
X168009047Y-88117380D01*
X168009047Y-88117380D02*
X168104285Y-88069761D01*
X168104285Y-88069761D02*
X168151904Y-88022142D01*
X168151904Y-88022142D02*
X168199523Y-87926904D01*
X168199523Y-87926904D02*
X168199523Y-87117380D01*
X168628095Y-87212619D02*
X168675714Y-87165000D01*
X168675714Y-87165000D02*
X168770952Y-87117380D01*
X168770952Y-87117380D02*
X169009047Y-87117380D01*
X169009047Y-87117380D02*
X169104285Y-87165000D01*
X169104285Y-87165000D02*
X169151904Y-87212619D01*
X169151904Y-87212619D02*
X169199523Y-87307857D01*
X169199523Y-87307857D02*
X169199523Y-87403095D01*
X169199523Y-87403095D02*
X169151904Y-87545952D01*
X169151904Y-87545952D02*
X168580476Y-88117380D01*
X168580476Y-88117380D02*
X169199523Y-88117380D01*
X129937380Y-113346357D02*
X129461190Y-113679690D01*
X129937380Y-113917785D02*
X128937380Y-113917785D01*
X128937380Y-113917785D02*
X128937380Y-113536833D01*
X128937380Y-113536833D02*
X128985000Y-113441595D01*
X128985000Y-113441595D02*
X129032619Y-113393976D01*
X129032619Y-113393976D02*
X129127857Y-113346357D01*
X129127857Y-113346357D02*
X129270714Y-113346357D01*
X129270714Y-113346357D02*
X129365952Y-113393976D01*
X129365952Y-113393976D02*
X129413571Y-113441595D01*
X129413571Y-113441595D02*
X129461190Y-113536833D01*
X129461190Y-113536833D02*
X129461190Y-113917785D01*
X129937380Y-112393976D02*
X129937380Y-112965404D01*
X129937380Y-112679690D02*
X128937380Y-112679690D01*
X128937380Y-112679690D02*
X129080238Y-112774928D01*
X129080238Y-112774928D02*
X129175476Y-112870166D01*
X129175476Y-112870166D02*
X129223095Y-112965404D01*
X128937380Y-111536833D02*
X128937380Y-111727309D01*
X128937380Y-111727309D02*
X128985000Y-111822547D01*
X128985000Y-111822547D02*
X129032619Y-111870166D01*
X129032619Y-111870166D02*
X129175476Y-111965404D01*
X129175476Y-111965404D02*
X129365952Y-112013023D01*
X129365952Y-112013023D02*
X129746904Y-112013023D01*
X129746904Y-112013023D02*
X129842142Y-111965404D01*
X129842142Y-111965404D02*
X129889761Y-111917785D01*
X129889761Y-111917785D02*
X129937380Y-111822547D01*
X129937380Y-111822547D02*
X129937380Y-111632071D01*
X129937380Y-111632071D02*
X129889761Y-111536833D01*
X129889761Y-111536833D02*
X129842142Y-111489214D01*
X129842142Y-111489214D02*
X129746904Y-111441595D01*
X129746904Y-111441595D02*
X129508809Y-111441595D01*
X129508809Y-111441595D02*
X129413571Y-111489214D01*
X129413571Y-111489214D02*
X129365952Y-111536833D01*
X129365952Y-111536833D02*
X129318333Y-111632071D01*
X129318333Y-111632071D02*
X129318333Y-111822547D01*
X129318333Y-111822547D02*
X129365952Y-111917785D01*
X129365952Y-111917785D02*
X129413571Y-111965404D01*
X129413571Y-111965404D02*
X129508809Y-112013023D01*
X183933333Y-70172142D02*
X183885714Y-70219761D01*
X183885714Y-70219761D02*
X183742857Y-70267380D01*
X183742857Y-70267380D02*
X183647619Y-70267380D01*
X183647619Y-70267380D02*
X183504762Y-70219761D01*
X183504762Y-70219761D02*
X183409524Y-70124523D01*
X183409524Y-70124523D02*
X183361905Y-70029285D01*
X183361905Y-70029285D02*
X183314286Y-69838809D01*
X183314286Y-69838809D02*
X183314286Y-69695952D01*
X183314286Y-69695952D02*
X183361905Y-69505476D01*
X183361905Y-69505476D02*
X183409524Y-69410238D01*
X183409524Y-69410238D02*
X183504762Y-69315000D01*
X183504762Y-69315000D02*
X183647619Y-69267380D01*
X183647619Y-69267380D02*
X183742857Y-69267380D01*
X183742857Y-69267380D02*
X183885714Y-69315000D01*
X183885714Y-69315000D02*
X183933333Y-69362619D01*
X184504762Y-69695952D02*
X184409524Y-69648333D01*
X184409524Y-69648333D02*
X184361905Y-69600714D01*
X184361905Y-69600714D02*
X184314286Y-69505476D01*
X184314286Y-69505476D02*
X184314286Y-69457857D01*
X184314286Y-69457857D02*
X184361905Y-69362619D01*
X184361905Y-69362619D02*
X184409524Y-69315000D01*
X184409524Y-69315000D02*
X184504762Y-69267380D01*
X184504762Y-69267380D02*
X184695238Y-69267380D01*
X184695238Y-69267380D02*
X184790476Y-69315000D01*
X184790476Y-69315000D02*
X184838095Y-69362619D01*
X184838095Y-69362619D02*
X184885714Y-69457857D01*
X184885714Y-69457857D02*
X184885714Y-69505476D01*
X184885714Y-69505476D02*
X184838095Y-69600714D01*
X184838095Y-69600714D02*
X184790476Y-69648333D01*
X184790476Y-69648333D02*
X184695238Y-69695952D01*
X184695238Y-69695952D02*
X184504762Y-69695952D01*
X184504762Y-69695952D02*
X184409524Y-69743571D01*
X184409524Y-69743571D02*
X184361905Y-69791190D01*
X184361905Y-69791190D02*
X184314286Y-69886428D01*
X184314286Y-69886428D02*
X184314286Y-70076904D01*
X184314286Y-70076904D02*
X184361905Y-70172142D01*
X184361905Y-70172142D02*
X184409524Y-70219761D01*
X184409524Y-70219761D02*
X184504762Y-70267380D01*
X184504762Y-70267380D02*
X184695238Y-70267380D01*
X184695238Y-70267380D02*
X184790476Y-70219761D01*
X184790476Y-70219761D02*
X184838095Y-70172142D01*
X184838095Y-70172142D02*
X184885714Y-70076904D01*
X184885714Y-70076904D02*
X184885714Y-69886428D01*
X184885714Y-69886428D02*
X184838095Y-69791190D01*
X184838095Y-69791190D02*
X184790476Y-69743571D01*
X184790476Y-69743571D02*
X184695238Y-69695952D01*
X149778095Y-64397380D02*
X149778095Y-63397380D01*
X149778095Y-63873571D02*
X150349523Y-63873571D01*
X150349523Y-64397380D02*
X150349523Y-63397380D01*
X151349523Y-64397380D02*
X150778095Y-64397380D01*
X151063809Y-64397380D02*
X151063809Y-63397380D01*
X151063809Y-63397380D02*
X150968571Y-63540238D01*
X150968571Y-63540238D02*
X150873333Y-63635476D01*
X150873333Y-63635476D02*
X150778095Y-63683095D01*
X178043333Y-94127380D02*
X177710000Y-93651190D01*
X177471905Y-94127380D02*
X177471905Y-93127380D01*
X177471905Y-93127380D02*
X177852857Y-93127380D01*
X177852857Y-93127380D02*
X177948095Y-93175000D01*
X177948095Y-93175000D02*
X177995714Y-93222619D01*
X177995714Y-93222619D02*
X178043333Y-93317857D01*
X178043333Y-93317857D02*
X178043333Y-93460714D01*
X178043333Y-93460714D02*
X177995714Y-93555952D01*
X177995714Y-93555952D02*
X177948095Y-93603571D01*
X177948095Y-93603571D02*
X177852857Y-93651190D01*
X177852857Y-93651190D02*
X177471905Y-93651190D01*
X178900476Y-93460714D02*
X178900476Y-94127380D01*
X178662381Y-93079761D02*
X178424286Y-93794047D01*
X178424286Y-93794047D02*
X179043333Y-93794047D01*
X170367380Y-54033333D02*
X171081666Y-54033333D01*
X171081666Y-54033333D02*
X171224523Y-54080952D01*
X171224523Y-54080952D02*
X171319761Y-54176190D01*
X171319761Y-54176190D02*
X171367380Y-54319047D01*
X171367380Y-54319047D02*
X171367380Y-54414285D01*
X170700714Y-53128571D02*
X171367380Y-53128571D01*
X170319761Y-53366666D02*
X171034047Y-53604761D01*
X171034047Y-53604761D02*
X171034047Y-52985714D01*
X188757142Y-92572142D02*
X188709523Y-92619761D01*
X188709523Y-92619761D02*
X188566666Y-92667380D01*
X188566666Y-92667380D02*
X188471428Y-92667380D01*
X188471428Y-92667380D02*
X188328571Y-92619761D01*
X188328571Y-92619761D02*
X188233333Y-92524523D01*
X188233333Y-92524523D02*
X188185714Y-92429285D01*
X188185714Y-92429285D02*
X188138095Y-92238809D01*
X188138095Y-92238809D02*
X188138095Y-92095952D01*
X188138095Y-92095952D02*
X188185714Y-91905476D01*
X188185714Y-91905476D02*
X188233333Y-91810238D01*
X188233333Y-91810238D02*
X188328571Y-91715000D01*
X188328571Y-91715000D02*
X188471428Y-91667380D01*
X188471428Y-91667380D02*
X188566666Y-91667380D01*
X188566666Y-91667380D02*
X188709523Y-91715000D01*
X188709523Y-91715000D02*
X188757142Y-91762619D01*
X189709523Y-92667380D02*
X189138095Y-92667380D01*
X189423809Y-92667380D02*
X189423809Y-91667380D01*
X189423809Y-91667380D02*
X189328571Y-91810238D01*
X189328571Y-91810238D02*
X189233333Y-91905476D01*
X189233333Y-91905476D02*
X189138095Y-91953095D01*
X190661904Y-92667380D02*
X190090476Y-92667380D01*
X190376190Y-92667380D02*
X190376190Y-91667380D01*
X190376190Y-91667380D02*
X190280952Y-91810238D01*
X190280952Y-91810238D02*
X190185714Y-91905476D01*
X190185714Y-91905476D02*
X190090476Y-91953095D01*
X165633333Y-103412142D02*
X165585714Y-103459761D01*
X165585714Y-103459761D02*
X165442857Y-103507380D01*
X165442857Y-103507380D02*
X165347619Y-103507380D01*
X165347619Y-103507380D02*
X165204762Y-103459761D01*
X165204762Y-103459761D02*
X165109524Y-103364523D01*
X165109524Y-103364523D02*
X165061905Y-103269285D01*
X165061905Y-103269285D02*
X165014286Y-103078809D01*
X165014286Y-103078809D02*
X165014286Y-102935952D01*
X165014286Y-102935952D02*
X165061905Y-102745476D01*
X165061905Y-102745476D02*
X165109524Y-102650238D01*
X165109524Y-102650238D02*
X165204762Y-102555000D01*
X165204762Y-102555000D02*
X165347619Y-102507380D01*
X165347619Y-102507380D02*
X165442857Y-102507380D01*
X165442857Y-102507380D02*
X165585714Y-102555000D01*
X165585714Y-102555000D02*
X165633333Y-102602619D01*
X166490476Y-102840714D02*
X166490476Y-103507380D01*
X166252381Y-102459761D02*
X166014286Y-103174047D01*
X166014286Y-103174047D02*
X166633333Y-103174047D01*
X113017380Y-100879166D02*
X112541190Y-101212499D01*
X113017380Y-101450594D02*
X112017380Y-101450594D01*
X112017380Y-101450594D02*
X112017380Y-101069642D01*
X112017380Y-101069642D02*
X112065000Y-100974404D01*
X112065000Y-100974404D02*
X112112619Y-100926785D01*
X112112619Y-100926785D02*
X112207857Y-100879166D01*
X112207857Y-100879166D02*
X112350714Y-100879166D01*
X112350714Y-100879166D02*
X112445952Y-100926785D01*
X112445952Y-100926785D02*
X112493571Y-100974404D01*
X112493571Y-100974404D02*
X112541190Y-101069642D01*
X112541190Y-101069642D02*
X112541190Y-101450594D01*
X112017380Y-100022023D02*
X112017380Y-100212499D01*
X112017380Y-100212499D02*
X112065000Y-100307737D01*
X112065000Y-100307737D02*
X112112619Y-100355356D01*
X112112619Y-100355356D02*
X112255476Y-100450594D01*
X112255476Y-100450594D02*
X112445952Y-100498213D01*
X112445952Y-100498213D02*
X112826904Y-100498213D01*
X112826904Y-100498213D02*
X112922142Y-100450594D01*
X112922142Y-100450594D02*
X112969761Y-100402975D01*
X112969761Y-100402975D02*
X113017380Y-100307737D01*
X113017380Y-100307737D02*
X113017380Y-100117261D01*
X113017380Y-100117261D02*
X112969761Y-100022023D01*
X112969761Y-100022023D02*
X112922142Y-99974404D01*
X112922142Y-99974404D02*
X112826904Y-99926785D01*
X112826904Y-99926785D02*
X112588809Y-99926785D01*
X112588809Y-99926785D02*
X112493571Y-99974404D01*
X112493571Y-99974404D02*
X112445952Y-100022023D01*
X112445952Y-100022023D02*
X112398333Y-100117261D01*
X112398333Y-100117261D02*
X112398333Y-100307737D01*
X112398333Y-100307737D02*
X112445952Y-100402975D01*
X112445952Y-100402975D02*
X112493571Y-100450594D01*
X112493571Y-100450594D02*
X112588809Y-100498213D01*
X115440666Y-47183571D02*
X115107333Y-47183571D01*
X115107333Y-47707380D02*
X115107333Y-46707380D01*
X115107333Y-46707380D02*
X115583523Y-46707380D01*
X116488285Y-47707380D02*
X115916857Y-47707380D01*
X116202571Y-47707380D02*
X116202571Y-46707380D01*
X116202571Y-46707380D02*
X116107333Y-46850238D01*
X116107333Y-46850238D02*
X116012095Y-46945476D01*
X116012095Y-46945476D02*
X115916857Y-46993095D01*
X103757142Y-82377380D02*
X103423809Y-81901190D01*
X103185714Y-82377380D02*
X103185714Y-81377380D01*
X103185714Y-81377380D02*
X103566666Y-81377380D01*
X103566666Y-81377380D02*
X103661904Y-81425000D01*
X103661904Y-81425000D02*
X103709523Y-81472619D01*
X103709523Y-81472619D02*
X103757142Y-81567857D01*
X103757142Y-81567857D02*
X103757142Y-81710714D01*
X103757142Y-81710714D02*
X103709523Y-81805952D01*
X103709523Y-81805952D02*
X103661904Y-81853571D01*
X103661904Y-81853571D02*
X103566666Y-81901190D01*
X103566666Y-81901190D02*
X103185714Y-81901190D01*
X104709523Y-82377380D02*
X104138095Y-82377380D01*
X104423809Y-82377380D02*
X104423809Y-81377380D01*
X104423809Y-81377380D02*
X104328571Y-81520238D01*
X104328571Y-81520238D02*
X104233333Y-81615476D01*
X104233333Y-81615476D02*
X104138095Y-81663095D01*
X105661904Y-82377380D02*
X105090476Y-82377380D01*
X105376190Y-82377380D02*
X105376190Y-81377380D01*
X105376190Y-81377380D02*
X105280952Y-81520238D01*
X105280952Y-81520238D02*
X105185714Y-81615476D01*
X105185714Y-81615476D02*
X105090476Y-81663095D01*
X190666666Y-78607380D02*
X190666666Y-79321666D01*
X190666666Y-79321666D02*
X190619047Y-79464523D01*
X190619047Y-79464523D02*
X190523809Y-79559761D01*
X190523809Y-79559761D02*
X190380952Y-79607380D01*
X190380952Y-79607380D02*
X190285714Y-79607380D01*
X191047619Y-78607380D02*
X191714285Y-78607380D01*
X191714285Y-78607380D02*
X191285714Y-79607380D01*
X110492142Y-97482857D02*
X110539761Y-97530476D01*
X110539761Y-97530476D02*
X110587380Y-97673333D01*
X110587380Y-97673333D02*
X110587380Y-97768571D01*
X110587380Y-97768571D02*
X110539761Y-97911428D01*
X110539761Y-97911428D02*
X110444523Y-98006666D01*
X110444523Y-98006666D02*
X110349285Y-98054285D01*
X110349285Y-98054285D02*
X110158809Y-98101904D01*
X110158809Y-98101904D02*
X110015952Y-98101904D01*
X110015952Y-98101904D02*
X109825476Y-98054285D01*
X109825476Y-98054285D02*
X109730238Y-98006666D01*
X109730238Y-98006666D02*
X109635000Y-97911428D01*
X109635000Y-97911428D02*
X109587380Y-97768571D01*
X109587380Y-97768571D02*
X109587380Y-97673333D01*
X109587380Y-97673333D02*
X109635000Y-97530476D01*
X109635000Y-97530476D02*
X109682619Y-97482857D01*
X110587380Y-96530476D02*
X110587380Y-97101904D01*
X110587380Y-96816190D02*
X109587380Y-96816190D01*
X109587380Y-96816190D02*
X109730238Y-96911428D01*
X109730238Y-96911428D02*
X109825476Y-97006666D01*
X109825476Y-97006666D02*
X109873095Y-97101904D01*
X109587380Y-95911428D02*
X109587380Y-95816190D01*
X109587380Y-95816190D02*
X109635000Y-95720952D01*
X109635000Y-95720952D02*
X109682619Y-95673333D01*
X109682619Y-95673333D02*
X109777857Y-95625714D01*
X109777857Y-95625714D02*
X109968333Y-95578095D01*
X109968333Y-95578095D02*
X110206428Y-95578095D01*
X110206428Y-95578095D02*
X110396904Y-95625714D01*
X110396904Y-95625714D02*
X110492142Y-95673333D01*
X110492142Y-95673333D02*
X110539761Y-95720952D01*
X110539761Y-95720952D02*
X110587380Y-95816190D01*
X110587380Y-95816190D02*
X110587380Y-95911428D01*
X110587380Y-95911428D02*
X110539761Y-96006666D01*
X110539761Y-96006666D02*
X110492142Y-96054285D01*
X110492142Y-96054285D02*
X110396904Y-96101904D01*
X110396904Y-96101904D02*
X110206428Y-96149523D01*
X110206428Y-96149523D02*
X109968333Y-96149523D01*
X109968333Y-96149523D02*
X109777857Y-96101904D01*
X109777857Y-96101904D02*
X109682619Y-96054285D01*
X109682619Y-96054285D02*
X109635000Y-96006666D01*
X109635000Y-96006666D02*
X109587380Y-95911428D01*
D11*
X151450000Y-92645000D02*
X151450000Y-91315000D01*
X151450000Y-96515000D02*
X154110000Y-96515000D01*
X151450000Y-93915000D02*
X151450000Y-96515000D01*
X151450000Y-93915000D02*
X154110000Y-93915000D01*
X151450000Y-91315000D02*
X152780000Y-91315000D01*
X154110000Y-93915000D02*
X154110000Y-96515000D01*
X110430000Y-104070000D02*
X110430000Y-111750000D01*
X107770000Y-102800000D02*
X107770000Y-101470000D01*
X107770000Y-111750000D02*
X110430000Y-111750000D01*
X107770000Y-104070000D02*
X110430000Y-104070000D01*
X107770000Y-101470000D02*
X109100000Y-101470000D01*
X107770000Y-104070000D02*
X107770000Y-111750000D01*
X165410000Y-62859420D02*
X165410000Y-63140580D01*
X164390000Y-62859420D02*
X164390000Y-63140580D01*
X118540000Y-108425000D02*
X120460000Y-108425000D01*
X120460000Y-108425000D02*
X120460000Y-105740000D01*
X118540000Y-105740000D02*
X118540000Y-108425000D01*
X104422500Y-112513242D02*
X104422500Y-112987758D01*
X103377500Y-112513242D02*
X103377500Y-112987758D01*
X140022500Y-112536742D02*
X140022500Y-113011258D01*
X138977500Y-112536742D02*
X138977500Y-113011258D01*
X153627500Y-56124258D02*
X153627500Y-55649742D01*
X154672500Y-56124258D02*
X154672500Y-55649742D01*
X126122500Y-112522742D02*
X126122500Y-112997258D01*
X125077500Y-112522742D02*
X125077500Y-112997258D01*
X148718500Y-102600258D02*
X148718500Y-102125742D01*
X149763500Y-102600258D02*
X149763500Y-102125742D01*
X153945000Y-87642000D02*
X150945000Y-87642000D01*
X152445000Y-89862000D02*
X150945000Y-89862000D01*
X167020000Y-97500000D02*
X167930000Y-97500000D01*
X167930000Y-94780000D02*
X167930000Y-100220000D01*
X167930000Y-100220000D02*
X177670000Y-100220000D01*
X169355000Y-94780000D02*
X169355000Y-100220000D01*
X169475000Y-94780000D02*
X169475000Y-100220000D01*
X169595000Y-94780000D02*
X169595000Y-100220000D01*
X177670000Y-94780000D02*
X167930000Y-94780000D01*
X177670000Y-100220000D02*
X177670000Y-94780000D01*
X178580000Y-97500000D02*
X177670000Y-97500000D01*
X164941580Y-89876000D02*
X164660420Y-89876000D01*
X164941580Y-88856000D02*
X164660420Y-88856000D01*
X106172000Y-95927000D02*
X109622000Y-95927000D01*
X106172000Y-95927000D02*
X104222000Y-95927000D01*
X106172000Y-85807000D02*
X108122000Y-85807000D01*
X106172000Y-85807000D02*
X104222000Y-85807000D01*
X103165000Y-101127064D02*
X103165000Y-100672936D01*
X104635000Y-101127064D02*
X104635000Y-100672936D01*
X187361600Y-41458400D02*
X184861600Y-41458400D01*
X186111600Y-40208400D02*
X186111600Y-42708400D01*
X182251600Y-45898400D02*
X182251600Y-38898400D01*
X182251600Y-38898400D02*
X186611600Y-38898400D01*
X182251600Y-25018400D02*
X182251600Y-32018400D01*
X104971600Y-45898400D02*
X182251600Y-45898400D01*
X104971600Y-38898400D02*
X104971600Y-45878400D01*
X104971600Y-32018400D02*
X104971600Y-25018400D01*
X104971600Y-25018400D02*
X182251600Y-25018400D01*
X99861600Y-41458400D02*
X102361600Y-41458400D01*
X118000000Y-96120000D02*
X118000000Y-70690000D01*
X118000000Y-96120000D02*
X120540000Y-96120000D01*
X120540000Y-96120000D02*
X120540000Y-103020000D01*
X120540000Y-103020000D02*
X143860000Y-103020000D01*
X141740000Y-68560000D02*
X120130000Y-68560000D01*
X143860000Y-103020000D02*
X143860000Y-70690000D01*
X120130000Y-68560000D02*
G75*
G03*
X118000000Y-70690000I2J-2130002D01*
G01*
X143860000Y-70690000D02*
G75*
G03*
X141730000Y-68560000I-2130000J0D01*
G01*
G36*
X117595000Y-76900000D02*
G01*
X116960000Y-77535000D01*
X116960000Y-76265000D01*
X117595000Y-76900000D01*
G37*
D10*
X117595000Y-76900000D02*
X116960000Y-77535000D01*
X116960000Y-76265000D01*
X117595000Y-76900000D01*
D11*
X130040000Y-108625000D02*
X131960000Y-108625000D01*
X131960000Y-108625000D02*
X131960000Y-105940000D01*
X130040000Y-105940000D02*
X130040000Y-108625000D01*
X158777500Y-102537258D02*
X158777500Y-102062742D01*
X159822500Y-102537258D02*
X159822500Y-102062742D01*
X175190000Y-84620000D02*
X171210000Y-84620000D01*
X175190000Y-80380000D02*
X171210000Y-80380000D01*
X111843000Y-93359836D02*
X111843000Y-93144164D01*
X112563000Y-93359836D02*
X112563000Y-93144164D01*
X138540000Y-108187500D02*
X140460000Y-108187500D01*
X140460000Y-108187500D02*
X140460000Y-105502500D01*
X138540000Y-105502500D02*
X138540000Y-108187500D01*
X186705000Y-84315000D02*
X187400000Y-84315000D01*
X186705000Y-85000000D02*
X186705000Y-84315000D01*
X186705000Y-85685000D02*
X186705000Y-85560000D01*
X186705000Y-85685000D02*
X186791724Y-85685000D01*
X186705000Y-85685000D02*
X188095000Y-85685000D01*
X188008276Y-85685000D02*
X188095000Y-85685000D01*
X188095000Y-85685000D02*
X188095000Y-85560000D01*
X156977836Y-57472000D02*
X156762164Y-57472000D01*
X156977836Y-56752000D02*
X156762164Y-56752000D01*
X166012742Y-54689500D02*
X166487258Y-54689500D01*
X166012742Y-55734500D02*
X166487258Y-55734500D01*
X111079164Y-88348000D02*
X111294836Y-88348000D01*
X111079164Y-89068000D02*
X111294836Y-89068000D01*
X161972164Y-59240000D02*
X162187836Y-59240000D01*
X161972164Y-59960000D02*
X162187836Y-59960000D01*
X114818500Y-112291242D02*
X114818500Y-112765758D01*
X113773500Y-112291242D02*
X113773500Y-112765758D01*
X153077500Y-102712258D02*
X153077500Y-102237742D01*
X154122500Y-102712258D02*
X154122500Y-102237742D01*
X179080000Y-75900000D02*
X178170000Y-75900000D01*
X178170000Y-78620000D02*
X178170000Y-73180000D01*
X178170000Y-73180000D02*
X168430000Y-73180000D01*
X176745000Y-78620000D02*
X176745000Y-73180000D01*
X176625000Y-78620000D02*
X176625000Y-73180000D01*
X176505000Y-78620000D02*
X176505000Y-73180000D01*
X168430000Y-78620000D02*
X178170000Y-78620000D01*
X168430000Y-73180000D02*
X168430000Y-78620000D01*
X167520000Y-75900000D02*
X168430000Y-75900000D01*
X145010000Y-51042500D02*
X145010000Y-52042500D01*
X145510000Y-51542500D02*
X144510000Y-51542500D01*
X145695563Y-52282500D02*
X144010000Y-52282500D01*
X145695563Y-52282500D02*
X146760000Y-53346937D01*
X139304437Y-52282500D02*
X140990000Y-52282500D01*
X139304437Y-52282500D02*
X138240000Y-53346937D01*
X146760000Y-53346937D02*
X146760000Y-60802500D01*
X138240000Y-53346937D02*
X138240000Y-60802500D01*
X146760000Y-60802500D02*
X144010000Y-60802500D01*
X138240000Y-60802500D02*
X140990000Y-60802500D01*
X159600000Y-57710000D02*
X161400000Y-57710000D01*
X161400000Y-54490000D02*
X158950000Y-54490000D01*
X113336000Y-108450000D02*
X115256000Y-108450000D01*
X115256000Y-108450000D02*
X115256000Y-105765000D01*
X113336000Y-105765000D02*
X113336000Y-108450000D01*
X102940000Y-108847500D02*
X104860000Y-108847500D01*
X104860000Y-108847500D02*
X104860000Y-106162500D01*
X102940000Y-106162500D02*
X102940000Y-108847500D01*
X190462258Y-35922500D02*
X189987742Y-35922500D01*
X190462258Y-34877500D02*
X189987742Y-34877500D01*
X120022500Y-112281742D02*
X120022500Y-112756258D01*
X118977500Y-112281742D02*
X118977500Y-112756258D01*
X124640000Y-108587500D02*
X126560000Y-108587500D01*
X126560000Y-108587500D02*
X126560000Y-105902500D01*
X124640000Y-105902500D02*
X124640000Y-108587500D01*
X110677000Y-90880580D02*
X110677000Y-90599420D01*
X111697000Y-90880580D02*
X111697000Y-90599420D01*
X99139531Y-76718200D02*
X99139531Y-107688200D01*
X84599531Y-76718200D02*
X99139531Y-76718200D01*
X100033869Y-86413200D02*
X100033869Y-86913200D01*
X99600856Y-86663200D02*
X100033869Y-86413200D01*
X100033869Y-86913200D02*
X99600856Y-86663200D01*
X99139531Y-107688200D02*
X84599531Y-107688200D01*
X179397500Y-87737258D02*
X179397500Y-87262742D01*
X180442500Y-87737258D02*
X180442500Y-87262742D01*
X192037258Y-89922500D02*
X191562742Y-89922500D01*
X192037258Y-88877500D02*
X191562742Y-88877500D01*
X179362742Y-90277500D02*
X179837258Y-90277500D01*
X179362742Y-91322500D02*
X179837258Y-91322500D01*
X132900000Y-54790000D02*
X132900000Y-55780000D01*
X134820000Y-55780000D02*
X130980000Y-55780000D01*
X130980000Y-55780000D02*
X130980000Y-63620000D01*
X134820000Y-56920000D02*
X130980000Y-56920000D01*
X134820000Y-57040000D02*
X130980000Y-57040000D01*
X134820000Y-57160000D02*
X130980000Y-57160000D01*
X134820000Y-63620000D02*
X134820000Y-55780000D01*
X130980000Y-63620000D02*
X134820000Y-63620000D01*
X132900000Y-64610000D02*
X132900000Y-63620000D01*
X173120000Y-86340000D02*
X169670000Y-86340000D01*
X173120000Y-86340000D02*
X175070000Y-86340000D01*
X173120000Y-91460000D02*
X171170000Y-91460000D01*
X173120000Y-91460000D02*
X175070000Y-91460000D01*
X130477500Y-112940758D02*
X130477500Y-112466242D01*
X131522500Y-112940758D02*
X131522500Y-112466242D01*
X187725000Y-67885000D02*
X187100000Y-67885000D01*
X187412500Y-68197500D02*
X187412500Y-67572500D01*
X186860000Y-67895563D02*
X186860000Y-67260000D01*
X186860000Y-67895563D02*
X185795563Y-68960000D01*
X186860000Y-64504437D02*
X186860000Y-65140000D01*
X186860000Y-64504437D02*
X185795563Y-63440000D01*
X185795563Y-68960000D02*
X181340000Y-68960000D01*
X185795563Y-63440000D02*
X181340000Y-63440000D01*
X181340000Y-68960000D02*
X181340000Y-67260000D01*
X181340000Y-63440000D02*
X181340000Y-65140000D01*
X174682742Y-92977500D02*
X175157258Y-92977500D01*
X174682742Y-94022500D02*
X175157258Y-94022500D01*
X172500000Y-58600000D02*
X173800000Y-58600000D01*
X172800000Y-58300000D02*
X172800000Y-56300000D01*
X187300000Y-58300000D02*
X172800000Y-58300000D01*
X172500000Y-56900000D02*
X172500000Y-58600000D01*
X172800000Y-51100000D02*
X172800000Y-49100000D01*
X172800000Y-49100000D02*
X174100000Y-49100000D01*
X178700000Y-49100000D02*
X187300000Y-49100000D01*
X187300000Y-49100000D02*
X187300000Y-58300000D01*
X183800000Y-95090000D02*
X184800000Y-95090000D01*
X184300000Y-94590000D02*
X184300000Y-95590000D01*
X185040000Y-94304437D02*
X185040000Y-96090000D01*
X185040000Y-94304437D02*
X186104437Y-93240000D01*
X185040000Y-100895563D02*
X185040000Y-99110000D01*
X185040000Y-100895563D02*
X186104437Y-101960000D01*
X186104437Y-93240000D02*
X193760000Y-93240000D01*
X186104437Y-101960000D02*
X193760000Y-101960000D01*
X193760000Y-93240000D02*
X193760000Y-96090000D01*
X193760000Y-101960000D02*
X193760000Y-99110000D01*
X165692164Y-103940000D02*
X165907836Y-103940000D01*
X165692164Y-104660000D02*
X165907836Y-104660000D01*
X113565000Y-100939564D02*
X113565000Y-100485436D01*
X115035000Y-100939564D02*
X115035000Y-100485436D01*
X104524000Y-48540000D02*
X127124000Y-48540000D01*
X104524000Y-51340000D02*
X104524000Y-48540000D01*
X104524000Y-58140000D02*
X104524000Y-55340000D01*
X104524000Y-58140000D02*
X127124000Y-58140000D01*
X127124000Y-51340000D02*
X127124000Y-48540000D01*
X127124000Y-58140000D02*
X127124000Y-55340000D01*
X104162742Y-82917500D02*
X104637258Y-82917500D01*
X104162742Y-83962500D02*
X104637258Y-83962500D01*
X190305000Y-80115000D02*
X191000000Y-80115000D01*
X190305000Y-80800000D02*
X190305000Y-80115000D01*
X190305000Y-81485000D02*
X190305000Y-81360000D01*
X190305000Y-81485000D02*
X190391724Y-81485000D01*
X190305000Y-81485000D02*
X191695000Y-81485000D01*
X191608276Y-81485000D02*
X191695000Y-81485000D01*
X191695000Y-81485000D02*
X191695000Y-81360000D01*
X111020000Y-96947836D02*
X111020000Y-96732164D01*
X111740000Y-96947836D02*
X111740000Y-96732164D01*
%LPC*%
D12*
X152779999Y-92644999D03*
D13*
X152779999Y-95184999D03*
D12*
X109099999Y-102799999D03*
D13*
X109099999Y-105339999D03*
X109099999Y-107879999D03*
X109099999Y-110419999D03*
D14*
X164900000Y-62225000D03*
X164900000Y-63775000D03*
D15*
X119500000Y-107677500D03*
X119500000Y-105802500D03*
D16*
X103900000Y-111925500D03*
X103900000Y-113575500D03*
X139500000Y-111949000D03*
X139500000Y-113599000D03*
D17*
X154150000Y-56712000D03*
X154150000Y-55062000D03*
D16*
X125600000Y-111935000D03*
X125600000Y-113585000D03*
D17*
X149241000Y-103188000D03*
X149241000Y-101538000D03*
D18*
X153882500Y-89252000D03*
X153882500Y-88752000D03*
X153882500Y-88252000D03*
X151007500Y-88252000D03*
X151007500Y-88752000D03*
X151007500Y-89252000D03*
D19*
X152444999Y-88751999D03*
D20*
X165179999Y-97499999D03*
D21*
X180419999Y-97499999D03*
D22*
X165576000Y-89366000D03*
X164026000Y-89366000D03*
D23*
X108647000Y-95312000D03*
X108647000Y-94042000D03*
X108647000Y-92772000D03*
X108647000Y-91502000D03*
X108647000Y-90232000D03*
X108647000Y-88962000D03*
X108647000Y-87692000D03*
X108647000Y-86422000D03*
X103697000Y-86422000D03*
X103697000Y-87692000D03*
X103697000Y-88962000D03*
X103697000Y-90232000D03*
X103697000Y-91502000D03*
X103697000Y-92772000D03*
X103697000Y-94042000D03*
X103697000Y-95312000D03*
D24*
X103900000Y-101812500D03*
X103900000Y-99987500D03*
D25*
X179541600Y-43458400D03*
D26*
X171211600Y-27458400D03*
X116011600Y-43458400D03*
D27*
X182941599Y-35458399D03*
X104281599Y-35458399D03*
D28*
X119499999Y-76899999D03*
D29*
X119499999Y-79439999D03*
X119499999Y-81979999D03*
X119499999Y-84519999D03*
X119499999Y-87059999D03*
X119499999Y-89599999D03*
X119499999Y-92139999D03*
X119499999Y-94679999D03*
X142359999Y-94679999D03*
X142359999Y-92139999D03*
X142359999Y-89599999D03*
X142359999Y-87059999D03*
X142359999Y-84519999D03*
X142359999Y-81979999D03*
X142359999Y-79439999D03*
X142359999Y-76899999D03*
D15*
X131000000Y-107877500D03*
X131000000Y-106002500D03*
D17*
X159300000Y-103125000D03*
X159300000Y-101475000D03*
D30*
X174700000Y-82500000D03*
X171700000Y-82500000D03*
D31*
X112203000Y-93732000D03*
X112203000Y-92772000D03*
D15*
X139500000Y-107440000D03*
X139500000Y-105565000D03*
D32*
X187399999Y-84999999D03*
D33*
X157350000Y-57112000D03*
X156390000Y-57112000D03*
D34*
X165425000Y-55212000D03*
X167075000Y-55212000D03*
D35*
X110707000Y-88708000D03*
X111667000Y-88708000D03*
D36*
X191960000Y-28790000D03*
D35*
X161600000Y-59600000D03*
X162560000Y-59600000D03*
D16*
X114296000Y-111703500D03*
X114296000Y-113353500D03*
D17*
X153600000Y-103300000D03*
X153600000Y-101650000D03*
D20*
X180919999Y-75899999D03*
D21*
X165679999Y-75899999D03*
D37*
X142500000Y-53292500D03*
X142500000Y-59792500D03*
D38*
X159149999Y-55149999D03*
X159149999Y-56099999D03*
X159149999Y-57049999D03*
X161849999Y-57049999D03*
X161849999Y-55149999D03*
D15*
X114296000Y-107702500D03*
X114296000Y-105827500D03*
X103900000Y-108100000D03*
X103900000Y-106225000D03*
D39*
X191050000Y-35400000D03*
X189400000Y-35400000D03*
D16*
X119500000Y-111694000D03*
X119500000Y-113344000D03*
D15*
X125600000Y-107840000D03*
X125600000Y-105965000D03*
D40*
X111187000Y-91515000D03*
X111187000Y-89965000D03*
D41*
X95859531Y-79703200D03*
X95859531Y-104703200D03*
D42*
X97279530Y-86663199D03*
D43*
X97279531Y-89433200D03*
X97279531Y-92203200D03*
X97279531Y-94973200D03*
X97279531Y-97743200D03*
X94439531Y-88048200D03*
X94439531Y-90818200D03*
X94439531Y-93588200D03*
X94439531Y-96358200D03*
D17*
X179920000Y-88325000D03*
X179920000Y-86675000D03*
D39*
X192625000Y-89400000D03*
X190975000Y-89400000D03*
D34*
X178775000Y-90800000D03*
X180425000Y-90800000D03*
D44*
X132899999Y-53349999D03*
D45*
X132899999Y-66049999D03*
D36*
X179600000Y-106090000D03*
X105200000Y-69900000D03*
D46*
X170495000Y-86995000D03*
X170495000Y-88265000D03*
X170495000Y-89535000D03*
X170495000Y-90805000D03*
X175745000Y-90805000D03*
X175745000Y-89535000D03*
X175745000Y-88265000D03*
X175745000Y-86995000D03*
D17*
X131000000Y-113528500D03*
X131000000Y-111878500D03*
D47*
X186300000Y-66200000D03*
X181900000Y-66200000D03*
D36*
X150540000Y-68230000D03*
D34*
X174095000Y-93500000D03*
X175745000Y-93500000D03*
D48*
X173499999Y-53699999D03*
D49*
X179799999Y-53699999D03*
D50*
X176399999Y-48899999D03*
D51*
X185700000Y-97600000D03*
X193100000Y-97600000D03*
D35*
X165320000Y-104300000D03*
X166280000Y-104300000D03*
D24*
X114300000Y-101625000D03*
X114300000Y-99800000D03*
D52*
X104524000Y-53340000D03*
X127124000Y-53340000D03*
D34*
X103575000Y-83440000D03*
X105225000Y-83440000D03*
D32*
X190999999Y-80799999D03*
D31*
X111380000Y-97320000D03*
X111380000Y-96360000D03*
M02*
