G04 #@! TF.GenerationSoftware,KiCad,Pcbnew,(7.0.0-0)*
G04 #@! TF.CreationDate,2023-11-01T15:02:25+02:00*
G04 #@! TF.ProjectId,Untitled,556e7469-746c-4656-942e-6b696361645f,rev?*
G04 #@! TF.SameCoordinates,Original*
G04 #@! TF.FileFunction,Soldermask,Top*
G04 #@! TF.FilePolarity,Negative*
%FSLAX46Y46*%
G04 Gerber Fmt 4.6, Leading zero omitted, Abs format (unit mm)*
G04 Created by KiCad (PCBNEW (7.0.0-0)) date 2023-11-01 15:02:25*
%MOMM*%
%LPD*%
G01*
G04 APERTURE LIST*
G04 Aperture macros list*
%AMRoundRect*
0 Rectangle with rounded corners*
0 $1 Rounding radius*
0 $2 $3 $4 $5 $6 $7 $8 $9 X,Y pos of 4 corners*
0 Add a 4 corners polygon primitive as box body*
4,1,4,$2,$3,$4,$5,$6,$7,$8,$9,$2,$3,0*
0 Add four circle primitives for the rounded corners*
1,1,$1+$1,$2,$3*
1,1,$1+$1,$4,$5*
1,1,$1+$1,$6,$7*
1,1,$1+$1,$8,$9*
0 Add four rect primitives between the rounded corners*
20,1,$1+$1,$2,$3,$4,$5,0*
20,1,$1+$1,$4,$5,$6,$7,0*
20,1,$1+$1,$6,$7,$8,$9,0*
20,1,$1+$1,$8,$9,$2,$3,0*%
G04 Aperture macros list end*
%ADD10R,1.700000X1.700000*%
%ADD11O,1.700000X1.700000*%
%ADD12RoundRect,0.225000X-0.250000X0.225000X-0.250000X-0.225000X0.250000X-0.225000X0.250000X0.225000X0*%
%ADD13RoundRect,0.243750X0.456250X-0.243750X0.456250X0.243750X-0.456250X0.243750X-0.456250X-0.243750X0*%
%ADD14RoundRect,0.200000X-0.275000X0.200000X-0.275000X-0.200000X0.275000X-0.200000X0.275000X0.200000X0*%
%ADD15RoundRect,0.200000X0.275000X-0.200000X0.275000X0.200000X-0.275000X0.200000X-0.275000X-0.200000X0*%
%ADD16RoundRect,0.062500X0.350000X0.062500X-0.350000X0.062500X-0.350000X-0.062500X0.350000X-0.062500X0*%
%ADD17R,1.650000X1.350000*%
%ADD18R,3.200000X3.200000*%
%ADD19O,3.200000X3.200000*%
%ADD20RoundRect,0.225000X0.225000X0.250000X-0.225000X0.250000X-0.225000X-0.250000X0.225000X-0.250000X0*%
%ADD21RoundRect,0.150000X0.825000X0.150000X-0.825000X0.150000X-0.825000X-0.150000X0.825000X-0.150000X0*%
%ADD22RoundRect,0.250000X0.450000X-0.262500X0.450000X0.262500X-0.450000X0.262500X-0.450000X-0.262500X0*%
%ADD23C,2.390000*%
%ADD24C,3.450000*%
%ADD25R,7.340000X6.350000*%
%ADD26R,2.000000X2.000000*%
%ADD27O,2.000000X1.600000*%
%ADD28RoundRect,0.110000X0.440000X1.590000X-0.440000X1.590000X-0.440000X-1.590000X0.440000X-1.590000X0*%
%ADD29RoundRect,0.140000X0.170000X-0.140000X0.170000X0.140000X-0.170000X0.140000X-0.170000X-0.140000X0*%
%ADD30R,0.850000X0.850000*%
%ADD31RoundRect,0.140000X0.140000X0.170000X-0.140000X0.170000X-0.140000X-0.170000X0.140000X-0.170000X0*%
%ADD32RoundRect,0.200000X-0.200000X-0.275000X0.200000X-0.275000X0.200000X0.275000X-0.200000X0.275000X0*%
%ADD33RoundRect,0.140000X-0.140000X-0.170000X0.140000X-0.170000X0.140000X0.170000X-0.140000X0.170000X0*%
%ADD34C,3.200000*%
%ADD35RoundRect,0.250000X-1.000000X1.500000X-1.000000X-1.500000X1.000000X-1.500000X1.000000X1.500000X0*%
%ADD36R,1.560000X0.650000*%
%ADD37RoundRect,0.200000X0.200000X0.275000X-0.200000X0.275000X-0.200000X-0.275000X0.200000X-0.275000X0*%
%ADD38RoundRect,0.225000X0.250000X-0.225000X0.250000X0.225000X-0.250000X0.225000X-0.250000X-0.225000X0*%
%ADD39C,4.000000*%
%ADD40R,1.600000X1.600000*%
%ADD41C,1.600000*%
%ADD42R,2.400000X2.400000*%
%ADD43O,2.400000X2.400000*%
%ADD44RoundRect,0.150000X-0.675000X-0.150000X0.675000X-0.150000X0.675000X0.150000X-0.675000X0.150000X0*%
%ADD45RoundRect,0.250000X1.250000X0.550000X-1.250000X0.550000X-1.250000X-0.550000X1.250000X-0.550000X0*%
%ADD46R,2.000000X4.600000*%
%ADD47O,2.000000X4.200000*%
%ADD48O,4.200000X2.000000*%
%ADD49RoundRect,0.250000X-1.950000X-1.000000X1.950000X-1.000000X1.950000X1.000000X-1.950000X1.000000X0*%
%ADD50C,3.000000*%
G04 APERTURE END LIST*
D10*
X152779999Y-92644999D03*
D11*
X152779999Y-95184999D03*
D10*
X109099999Y-102799999D03*
D11*
X109099999Y-105339999D03*
X109099999Y-107879999D03*
X109099999Y-110419999D03*
D12*
X164900000Y-62225000D03*
X164900000Y-63775000D03*
D13*
X119500000Y-107677500D03*
X119500000Y-105802500D03*
D14*
X103900000Y-111925500D03*
X103900000Y-113575500D03*
X139500000Y-111949000D03*
X139500000Y-113599000D03*
D15*
X154150000Y-56712000D03*
X154150000Y-55062000D03*
D14*
X125600000Y-111935000D03*
X125600000Y-113585000D03*
D15*
X149241000Y-103188000D03*
X149241000Y-101538000D03*
D16*
X153882500Y-89252000D03*
X153882500Y-88752000D03*
X153882500Y-88252000D03*
X151007500Y-88252000D03*
X151007500Y-88752000D03*
X151007500Y-89252000D03*
D17*
X152444999Y-88751999D03*
D18*
X165179999Y-97499999D03*
D19*
X180419999Y-97499999D03*
D20*
X165576000Y-89366000D03*
X164026000Y-89366000D03*
D21*
X108647000Y-95312000D03*
X108647000Y-94042000D03*
X108647000Y-92772000D03*
X108647000Y-91502000D03*
X108647000Y-90232000D03*
X108647000Y-88962000D03*
X108647000Y-87692000D03*
X108647000Y-86422000D03*
X103697000Y-86422000D03*
X103697000Y-87692000D03*
X103697000Y-88962000D03*
X103697000Y-90232000D03*
X103697000Y-91502000D03*
X103697000Y-92772000D03*
X103697000Y-94042000D03*
X103697000Y-95312000D03*
D22*
X103900000Y-101812500D03*
X103900000Y-99987500D03*
D23*
X179541600Y-43458400D03*
D24*
X171211600Y-27458400D03*
X116011600Y-43458400D03*
D25*
X182941599Y-35458399D03*
X104281599Y-35458399D03*
D26*
X119499999Y-76899999D03*
D27*
X119499999Y-79439999D03*
X119499999Y-81979999D03*
X119499999Y-84519999D03*
X119499999Y-87059999D03*
X119499999Y-89599999D03*
X119499999Y-92139999D03*
X119499999Y-94679999D03*
X142359999Y-94679999D03*
X142359999Y-92139999D03*
X142359999Y-89599999D03*
X142359999Y-87059999D03*
X142359999Y-84519999D03*
X142359999Y-81979999D03*
X142359999Y-79439999D03*
X142359999Y-76899999D03*
D13*
X131000000Y-107877500D03*
X131000000Y-106002500D03*
D15*
X159300000Y-103125000D03*
X159300000Y-101475000D03*
D28*
X174700000Y-82500000D03*
X171700000Y-82500000D03*
D29*
X112203000Y-93732000D03*
X112203000Y-92772000D03*
D13*
X139500000Y-107440000D03*
X139500000Y-105565000D03*
D30*
X187399999Y-84999999D03*
D31*
X157350000Y-57112000D03*
X156390000Y-57112000D03*
D32*
X165425000Y-55212000D03*
X167075000Y-55212000D03*
D33*
X110707000Y-88708000D03*
X111667000Y-88708000D03*
D34*
X191960000Y-28790000D03*
D33*
X161600000Y-59600000D03*
X162560000Y-59600000D03*
D14*
X114296000Y-111703500D03*
X114296000Y-113353500D03*
D15*
X153600000Y-103300000D03*
X153600000Y-101650000D03*
D18*
X180919999Y-75899999D03*
D19*
X165679999Y-75899999D03*
D35*
X142500000Y-53292500D03*
X142500000Y-59792500D03*
D36*
X159149999Y-55149999D03*
X159149999Y-56099999D03*
X159149999Y-57049999D03*
X161849999Y-57049999D03*
X161849999Y-55149999D03*
D13*
X114296000Y-107702500D03*
X114296000Y-105827500D03*
X103900000Y-108100000D03*
X103900000Y-106225000D03*
D37*
X191050000Y-35400000D03*
X189400000Y-35400000D03*
D14*
X119500000Y-111694000D03*
X119500000Y-113344000D03*
D13*
X125600000Y-107840000D03*
X125600000Y-105965000D03*
D38*
X111187000Y-91515000D03*
X111187000Y-89965000D03*
D39*
X95859531Y-79703200D03*
X95859531Y-104703200D03*
D40*
X97279530Y-86663199D03*
D41*
X97279531Y-89433200D03*
X97279531Y-92203200D03*
X97279531Y-94973200D03*
X97279531Y-97743200D03*
X94439531Y-88048200D03*
X94439531Y-90818200D03*
X94439531Y-93588200D03*
X94439531Y-96358200D03*
D15*
X179920000Y-88325000D03*
X179920000Y-86675000D03*
D37*
X192625000Y-89400000D03*
X190975000Y-89400000D03*
D32*
X178775000Y-90800000D03*
X180425000Y-90800000D03*
D42*
X132899999Y-53349999D03*
D43*
X132899999Y-66049999D03*
D34*
X179600000Y-106090000D03*
X105200000Y-69900000D03*
D44*
X170495000Y-86995000D03*
X170495000Y-88265000D03*
X170495000Y-89535000D03*
X170495000Y-90805000D03*
X175745000Y-90805000D03*
X175745000Y-89535000D03*
X175745000Y-88265000D03*
X175745000Y-86995000D03*
D15*
X131000000Y-113528500D03*
X131000000Y-111878500D03*
D45*
X186300000Y-66200000D03*
X181900000Y-66200000D03*
D34*
X150540000Y-68230000D03*
D32*
X174095000Y-93500000D03*
X175745000Y-93500000D03*
D46*
X173499999Y-53699999D03*
D47*
X179799999Y-53699999D03*
D48*
X176399999Y-48899999D03*
D49*
X185700000Y-97600000D03*
X193100000Y-97600000D03*
D33*
X165320000Y-104300000D03*
X166280000Y-104300000D03*
D22*
X114300000Y-101625000D03*
X114300000Y-99800000D03*
D50*
X104524000Y-53340000D03*
X127124000Y-53340000D03*
D32*
X103575000Y-83440000D03*
X105225000Y-83440000D03*
D30*
X190999999Y-80799999D03*
D29*
X111380000Y-97320000D03*
X111380000Y-96360000D03*
M02*
