%TF.GenerationSoftware,KiCad,Pcbnew,(7.0.0-0)*%
%TF.CreationDate,2023-11-01T15:12:36+02:00*%
%TF.ProjectId,Untitled,556e7469-746c-4656-942e-6b696361645f,rev?*%
%TF.SameCoordinates,Original*%
%TF.FileFunction,Drillmap*%
%TF.FilePolarity,Positive*%
%FSLAX45Y45*%
G04 Gerber Fmt 4.5, Leading zero omitted, Abs format (unit mm)*
G04 Created by KiCad (PCBNEW (7.0.0-0)) date 2023-11-01 15:12:36*
%MOMM*%
%LPD*%
G01*
G04 APERTURE LIST*
%ADD10C,0.100000*%
%ADD11C,0.200000*%
%ADD12C,0.030000*%
%ADD13C,0.040000*%
%ADD14C,0.050000*%
%ADD15C,0.120000*%
%ADD16C,0.150000*%
%ADD17C,0.160000*%
%ADD18C,0.320000*%
G04 APERTURE END LIST*
D10*
X19798000Y-2300000D02*
X19797000Y-11662000D01*
X9641000Y-11281000D02*
G75*
G03*
X9233000Y-10870000I-409500J1500D01*
G01*
X8427500Y-7594000D02*
X8427500Y-10876000D01*
X9160000Y-7590000D02*
X8427500Y-7594000D01*
X19798000Y-2300000D02*
X9560000Y-2300000D01*
X9641000Y-11662000D02*
X19797000Y-11662000D01*
X9560000Y-2300000D02*
X9560000Y-7180000D01*
X9641000Y-11281000D02*
X9641000Y-11662000D01*
X9160000Y-7590000D02*
G75*
G03*
X9560000Y-7180000I-5000J405000D01*
G01*
X9233000Y-10870000D02*
X8427500Y-10876000D01*
D11*
D12*
X11313400Y-8500200D02*
X11343400Y-8530200D01*
X11343400Y-8500200D02*
X11313400Y-8530200D01*
X11405000Y-8329000D02*
X11435000Y-8359000D01*
X11435000Y-8329000D02*
X11405000Y-8359000D01*
D13*
X10646000Y-9092000D02*
G75*
G03*
X10646000Y-9092000I-20000J0D01*
G01*
X10669000Y-9918000D02*
G75*
G03*
X10669000Y-9918000I-20000J0D01*
G01*
X11076000Y-9534000D02*
G75*
G03*
X11076000Y-9534000I-20000J0D01*
G01*
X11250000Y-9536000D02*
G75*
G03*
X11250000Y-9536000I-20000J0D01*
G01*
X11440000Y-8954000D02*
G75*
G03*
X11440000Y-8954000I-20000J0D01*
G01*
X11530000Y-9747000D02*
G75*
G03*
X11530000Y-9747000I-20000J0D01*
G01*
X12550000Y-8464000D02*
G75*
G03*
X12550000Y-8464000I-20000J0D01*
G01*
X13109000Y-8728000D02*
G75*
G03*
X13109000Y-8728000I-20000J0D01*
G01*
X13500000Y-9460000D02*
G75*
G03*
X13500000Y-9460000I-20000J0D01*
G01*
X13935000Y-8202000D02*
G75*
G03*
X13935000Y-8202000I-20000J0D01*
G01*
X14461500Y-8782200D02*
G75*
G03*
X14461500Y-8782200I-20000J0D01*
G01*
X14940000Y-9010000D02*
G75*
G03*
X14940000Y-9010000I-20000J0D01*
G01*
X15590000Y-5625000D02*
G75*
G03*
X15590000Y-5625000I-20000J0D01*
G01*
X15650000Y-8980000D02*
G75*
G03*
X15650000Y-8980000I-20000J0D01*
G01*
X15710000Y-5813000D02*
G75*
G03*
X15710000Y-5813000I-20000J0D01*
G01*
X15752000Y-5602000D02*
G75*
G03*
X15752000Y-5602000I-20000J0D01*
G01*
X15778000Y-9248000D02*
G75*
G03*
X15778000Y-9248000I-20000J0D01*
G01*
X16180000Y-6070000D02*
G75*
G03*
X16180000Y-6070000I-20000J0D01*
G01*
X16226000Y-5863000D02*
G75*
G03*
X16226000Y-5863000I-20000J0D01*
G01*
X16894000Y-6434000D02*
G75*
G03*
X16894000Y-6434000I-20000J0D01*
G01*
X18300000Y-8700000D02*
G75*
G03*
X18300000Y-8700000I-20000J0D01*
G01*
X18420000Y-8850000D02*
G75*
G03*
X18420000Y-8850000I-20000J0D01*
G01*
X18420000Y-9070000D02*
G75*
G03*
X18420000Y-9070000I-20000J0D01*
G01*
X19110000Y-6070000D02*
G75*
G03*
X19110000Y-6070000I-20000J0D01*
G01*
X19280000Y-8700000D02*
G75*
G03*
X19280000Y-8700000I-20000J0D01*
G01*
D14*
X18740000Y-8475000D02*
X18740000Y-8525000D01*
X18715000Y-8500000D02*
X18765000Y-8500000D01*
X19100000Y-8055000D02*
X19100000Y-8105000D01*
X19075000Y-8080000D02*
X19125000Y-8080000D01*
D10*
X9479309Y-8840176D02*
X9479309Y-8769464D01*
X9408597Y-8769464D01*
X9408597Y-8840176D01*
X9479309Y-8840176D01*
X9479309Y-9117176D02*
X9479309Y-9046464D01*
X9408597Y-9046464D01*
X9408597Y-9117176D01*
X9479309Y-9117176D01*
X9479309Y-9394176D02*
X9479309Y-9323464D01*
X9408597Y-9323464D01*
X9408597Y-9394176D01*
X9479309Y-9394176D01*
X9479309Y-9671176D02*
X9479309Y-9600464D01*
X9408597Y-9600464D01*
X9408597Y-9671176D01*
X9479309Y-9671176D01*
X9763309Y-8701676D02*
X9763309Y-8630964D01*
X9692597Y-8630964D01*
X9692597Y-8701676D01*
X9763309Y-8701676D01*
X9763309Y-8978676D02*
X9763309Y-8907964D01*
X9692597Y-8907964D01*
X9692597Y-8978676D01*
X9763309Y-8978676D01*
X9763309Y-9255676D02*
X9763309Y-9184964D01*
X9692597Y-9184964D01*
X9692597Y-9255676D01*
X9763309Y-9255676D01*
X9763309Y-9532676D02*
X9763309Y-9461964D01*
X9692597Y-9461964D01*
X9692597Y-9532676D01*
X9763309Y-9532676D01*
X9763309Y-9809676D02*
X9763309Y-9738964D01*
X9692597Y-9738964D01*
X9692597Y-9809676D01*
X9763309Y-9809676D01*
X10945356Y-10315356D02*
X10945356Y-10244644D01*
X10874644Y-10244644D01*
X10874644Y-10315356D01*
X10945356Y-10315356D01*
X10945356Y-10569356D02*
X10945356Y-10498644D01*
X10874644Y-10498644D01*
X10874644Y-10569356D01*
X10945356Y-10569356D01*
X10945356Y-10823356D02*
X10945356Y-10752644D01*
X10874644Y-10752644D01*
X10874644Y-10823356D01*
X10945356Y-10823356D01*
X10945356Y-11077356D02*
X10945356Y-11006644D01*
X10874644Y-11006644D01*
X10874644Y-11077356D01*
X10945356Y-11077356D01*
X11985356Y-7725356D02*
X11985356Y-7654644D01*
X11914644Y-7654644D01*
X11914644Y-7725356D01*
X11985356Y-7725356D01*
X11985356Y-7979356D02*
X11985356Y-7908644D01*
X11914644Y-7908644D01*
X11914644Y-7979356D01*
X11985356Y-7979356D01*
X11985356Y-8233356D02*
X11985356Y-8162644D01*
X11914644Y-8162644D01*
X11914644Y-8233356D01*
X11985356Y-8233356D01*
X11985356Y-8487356D02*
X11985356Y-8416644D01*
X11914644Y-8416644D01*
X11914644Y-8487356D01*
X11985356Y-8487356D01*
X11985356Y-8741356D02*
X11985356Y-8670644D01*
X11914644Y-8670644D01*
X11914644Y-8741356D01*
X11985356Y-8741356D01*
X11985356Y-8995356D02*
X11985356Y-8924644D01*
X11914644Y-8924644D01*
X11914644Y-8995356D01*
X11985356Y-8995356D01*
X11985356Y-9249356D02*
X11985356Y-9178644D01*
X11914644Y-9178644D01*
X11914644Y-9249356D01*
X11985356Y-9249356D01*
X11985356Y-9503356D02*
X11985356Y-9432644D01*
X11914644Y-9432644D01*
X11914644Y-9503356D01*
X11985356Y-9503356D01*
X14271356Y-7725356D02*
X14271356Y-7654644D01*
X14200644Y-7654644D01*
X14200644Y-7725356D01*
X14271356Y-7725356D01*
X14271356Y-7979356D02*
X14271356Y-7908644D01*
X14200644Y-7908644D01*
X14200644Y-7979356D01*
X14271356Y-7979356D01*
X14271356Y-8233356D02*
X14271356Y-8162644D01*
X14200644Y-8162644D01*
X14200644Y-8233356D01*
X14271356Y-8233356D01*
X14271356Y-8487356D02*
X14271356Y-8416644D01*
X14200644Y-8416644D01*
X14200644Y-8487356D01*
X14271356Y-8487356D01*
X14271356Y-8741356D02*
X14271356Y-8670644D01*
X14200644Y-8670644D01*
X14200644Y-8741356D01*
X14271356Y-8741356D01*
X14271356Y-8995356D02*
X14271356Y-8924644D01*
X14200644Y-8924644D01*
X14200644Y-8995356D01*
X14271356Y-8995356D01*
X14271356Y-9249356D02*
X14271356Y-9178644D01*
X14200644Y-9178644D01*
X14200644Y-9249356D01*
X14271356Y-9249356D01*
X14271356Y-9503356D02*
X14271356Y-9432644D01*
X14200644Y-9432644D01*
X14200644Y-9503356D01*
X14271356Y-9503356D01*
X15313356Y-9299856D02*
X15313356Y-9229144D01*
X15242644Y-9229144D01*
X15242644Y-9299856D01*
X15313356Y-9299856D01*
X15313356Y-9553856D02*
X15313356Y-9483144D01*
X15242644Y-9483144D01*
X15242644Y-9553856D01*
X15313356Y-9553856D01*
X17385356Y-5405356D02*
X17385356Y-5334644D01*
X17314644Y-5334644D01*
X17314644Y-5405356D01*
X17385356Y-5405356D01*
D11*
X17400000Y-5500000D02*
X17400000Y-5240000D01*
X17400000Y-5240000D02*
G75*
G03*
X17300000Y-5240000I-50000J0D01*
G01*
X17300000Y-5240000D02*
X17300000Y-5500000D01*
X17300000Y-5500000D02*
G75*
G03*
X17400000Y-5500000I50000J0D01*
G01*
D10*
X17675356Y-4925356D02*
X17675356Y-4854644D01*
X17604644Y-4854644D01*
X17604644Y-4925356D01*
X17675356Y-4925356D01*
D11*
X17530000Y-4940000D02*
X17750000Y-4940000D01*
X17750000Y-4940000D02*
G75*
G03*
X17750000Y-4840000I0J50000D01*
G01*
X17750000Y-4840000D02*
X17530000Y-4840000D01*
X17530000Y-4840000D02*
G75*
G03*
X17530000Y-4940000I0J-50000D01*
G01*
D10*
X18015356Y-5405356D02*
X18015356Y-5334644D01*
X17944644Y-5334644D01*
X17944644Y-5405356D01*
X18015356Y-5405356D01*
D11*
X18030000Y-5480000D02*
X18030000Y-5260000D01*
X18030000Y-5260000D02*
G75*
G03*
X17930000Y-5260000I-50000J0D01*
G01*
X17930000Y-5260000D02*
X17930000Y-5480000D01*
X17930000Y-5480000D02*
G75*
G03*
X18030000Y-5480000I50000J0D01*
G01*
D15*
X13290000Y-5395000D02*
X13350000Y-5335000D01*
X13290000Y-5275000D01*
X13230000Y-5335000D01*
X13290000Y-5395000D01*
X13290000Y-6665000D02*
X13350000Y-6605000D01*
X13290000Y-6545000D01*
X13230000Y-6605000D01*
X13290000Y-6665000D01*
D16*
X10377400Y-5259000D02*
X10527400Y-5409000D01*
X10527400Y-5259000D02*
X10377400Y-5409000D01*
X10527400Y-5334000D02*
G75*
G03*
X10527400Y-5334000I-75000J0D01*
G01*
X12637400Y-5259000D02*
X12787400Y-5409000D01*
X12787400Y-5259000D02*
X12637400Y-5409000D01*
X12787400Y-5334000D02*
G75*
G03*
X12787400Y-5334000I-75000J0D01*
G01*
D17*
X16438000Y-9670000D02*
X16598000Y-9830000D01*
X16598000Y-9670000D02*
X16438000Y-9830000D01*
X16518000Y-9670000D02*
X16518000Y-9830000D01*
X16438000Y-9750000D02*
X16598000Y-9750000D01*
X16488000Y-7510000D02*
X16648000Y-7670000D01*
X16648000Y-7510000D02*
X16488000Y-7670000D01*
X16568000Y-7510000D02*
X16568000Y-7670000D01*
X16488000Y-7590000D02*
X16648000Y-7590000D01*
X17962000Y-9670000D02*
X18122000Y-9830000D01*
X18122000Y-9670000D02*
X17962000Y-9830000D01*
X18042000Y-9670000D02*
X18042000Y-9830000D01*
X17962000Y-9750000D02*
X18122000Y-9750000D01*
X18012000Y-7510000D02*
X18172000Y-7670000D01*
X18172000Y-7510000D02*
X18012000Y-7670000D01*
X18092000Y-7510000D02*
X18092000Y-7670000D01*
X18012000Y-7590000D02*
X18172000Y-7590000D01*
D18*
X9425953Y-7810320D02*
X9745953Y-8130320D01*
X9745953Y-7810320D02*
X9425953Y-8130320D01*
X9699091Y-8083458D02*
X9699091Y-7857182D01*
X9472815Y-7857182D01*
X9472815Y-8083458D01*
X9699091Y-8083458D01*
X9425953Y-10310320D02*
X9745953Y-10630320D01*
X9745953Y-10310320D02*
X9425953Y-10630320D01*
X9699091Y-10583458D02*
X9699091Y-10357182D01*
X9472815Y-10357182D01*
X9472815Y-10583458D01*
X9699091Y-10583458D01*
D11*
X8670119Y-11960476D02*
X8670119Y-11760476D01*
X8670119Y-11760476D02*
X8717738Y-11760476D01*
X8717738Y-11760476D02*
X8746310Y-11770000D01*
X8746310Y-11770000D02*
X8765357Y-11789048D01*
X8765357Y-11789048D02*
X8774881Y-11808095D01*
X8774881Y-11808095D02*
X8784405Y-11846190D01*
X8784405Y-11846190D02*
X8784405Y-11874762D01*
X8784405Y-11874762D02*
X8774881Y-11912857D01*
X8774881Y-11912857D02*
X8765357Y-11931905D01*
X8765357Y-11931905D02*
X8746310Y-11950952D01*
X8746310Y-11950952D02*
X8717738Y-11960476D01*
X8717738Y-11960476D02*
X8670119Y-11960476D01*
X8870119Y-11960476D02*
X8870119Y-11827143D01*
X8870119Y-11865238D02*
X8879643Y-11846190D01*
X8879643Y-11846190D02*
X8889167Y-11836667D01*
X8889167Y-11836667D02*
X8908214Y-11827143D01*
X8908214Y-11827143D02*
X8927262Y-11827143D01*
X8993929Y-11960476D02*
X8993929Y-11827143D01*
X8993929Y-11760476D02*
X8984405Y-11770000D01*
X8984405Y-11770000D02*
X8993929Y-11779524D01*
X8993929Y-11779524D02*
X9003452Y-11770000D01*
X9003452Y-11770000D02*
X8993929Y-11760476D01*
X8993929Y-11760476D02*
X8993929Y-11779524D01*
X9117738Y-11960476D02*
X9098690Y-11950952D01*
X9098690Y-11950952D02*
X9089167Y-11931905D01*
X9089167Y-11931905D02*
X9089167Y-11760476D01*
X9222500Y-11960476D02*
X9203452Y-11950952D01*
X9203452Y-11950952D02*
X9193929Y-11931905D01*
X9193929Y-11931905D02*
X9193929Y-11760476D01*
X9418690Y-11960476D02*
X9418690Y-11760476D01*
X9418690Y-11760476D02*
X9485357Y-11903333D01*
X9485357Y-11903333D02*
X9552024Y-11760476D01*
X9552024Y-11760476D02*
X9552024Y-11960476D01*
X9732976Y-11960476D02*
X9732976Y-11855714D01*
X9732976Y-11855714D02*
X9723452Y-11836667D01*
X9723452Y-11836667D02*
X9704405Y-11827143D01*
X9704405Y-11827143D02*
X9666309Y-11827143D01*
X9666309Y-11827143D02*
X9647262Y-11836667D01*
X9732976Y-11950952D02*
X9713929Y-11960476D01*
X9713929Y-11960476D02*
X9666309Y-11960476D01*
X9666309Y-11960476D02*
X9647262Y-11950952D01*
X9647262Y-11950952D02*
X9637738Y-11931905D01*
X9637738Y-11931905D02*
X9637738Y-11912857D01*
X9637738Y-11912857D02*
X9647262Y-11893809D01*
X9647262Y-11893809D02*
X9666309Y-11884286D01*
X9666309Y-11884286D02*
X9713929Y-11884286D01*
X9713929Y-11884286D02*
X9732976Y-11874762D01*
X9828214Y-11827143D02*
X9828214Y-12027143D01*
X9828214Y-11836667D02*
X9847262Y-11827143D01*
X9847262Y-11827143D02*
X9885357Y-11827143D01*
X9885357Y-11827143D02*
X9904405Y-11836667D01*
X9904405Y-11836667D02*
X9913929Y-11846190D01*
X9913929Y-11846190D02*
X9923452Y-11865238D01*
X9923452Y-11865238D02*
X9923452Y-11922381D01*
X9923452Y-11922381D02*
X9913929Y-11941428D01*
X9913929Y-11941428D02*
X9904405Y-11950952D01*
X9904405Y-11950952D02*
X9885357Y-11960476D01*
X9885357Y-11960476D02*
X9847262Y-11960476D01*
X9847262Y-11960476D02*
X9828214Y-11950952D01*
X10009167Y-11941428D02*
X10018690Y-11950952D01*
X10018690Y-11950952D02*
X10009167Y-11960476D01*
X10009167Y-11960476D02*
X9999643Y-11950952D01*
X9999643Y-11950952D02*
X10009167Y-11941428D01*
X10009167Y-11941428D02*
X10009167Y-11960476D01*
X10009167Y-11836667D02*
X10018690Y-11846190D01*
X10018690Y-11846190D02*
X10009167Y-11855714D01*
X10009167Y-11855714D02*
X9999643Y-11846190D01*
X9999643Y-11846190D02*
X10009167Y-11836667D01*
X10009167Y-11836667D02*
X10009167Y-11855714D01*
D12*
X8392500Y-12292000D02*
X8422500Y-12322000D01*
X8422500Y-12292000D02*
X8392500Y-12322000D01*
D11*
X8708214Y-12180476D02*
X8727262Y-12180476D01*
X8727262Y-12180476D02*
X8746310Y-12190000D01*
X8746310Y-12190000D02*
X8755833Y-12199524D01*
X8755833Y-12199524D02*
X8765357Y-12218571D01*
X8765357Y-12218571D02*
X8774881Y-12256667D01*
X8774881Y-12256667D02*
X8774881Y-12304286D01*
X8774881Y-12304286D02*
X8765357Y-12342381D01*
X8765357Y-12342381D02*
X8755833Y-12361428D01*
X8755833Y-12361428D02*
X8746310Y-12370952D01*
X8746310Y-12370952D02*
X8727262Y-12380476D01*
X8727262Y-12380476D02*
X8708214Y-12380476D01*
X8708214Y-12380476D02*
X8689167Y-12370952D01*
X8689167Y-12370952D02*
X8679643Y-12361428D01*
X8679643Y-12361428D02*
X8670119Y-12342381D01*
X8670119Y-12342381D02*
X8660595Y-12304286D01*
X8660595Y-12304286D02*
X8660595Y-12256667D01*
X8660595Y-12256667D02*
X8670119Y-12218571D01*
X8670119Y-12218571D02*
X8679643Y-12199524D01*
X8679643Y-12199524D02*
X8689167Y-12190000D01*
X8689167Y-12190000D02*
X8708214Y-12180476D01*
X8860595Y-12361428D02*
X8870119Y-12370952D01*
X8870119Y-12370952D02*
X8860595Y-12380476D01*
X8860595Y-12380476D02*
X8851071Y-12370952D01*
X8851071Y-12370952D02*
X8860595Y-12361428D01*
X8860595Y-12361428D02*
X8860595Y-12380476D01*
X8936786Y-12180476D02*
X9060595Y-12180476D01*
X9060595Y-12180476D02*
X8993929Y-12256667D01*
X8993929Y-12256667D02*
X9022500Y-12256667D01*
X9022500Y-12256667D02*
X9041548Y-12266190D01*
X9041548Y-12266190D02*
X9051071Y-12275714D01*
X9051071Y-12275714D02*
X9060595Y-12294762D01*
X9060595Y-12294762D02*
X9060595Y-12342381D01*
X9060595Y-12342381D02*
X9051071Y-12361428D01*
X9051071Y-12361428D02*
X9041548Y-12370952D01*
X9041548Y-12370952D02*
X9022500Y-12380476D01*
X9022500Y-12380476D02*
X8965357Y-12380476D01*
X8965357Y-12380476D02*
X8946310Y-12370952D01*
X8946310Y-12370952D02*
X8936786Y-12361428D01*
X9184405Y-12180476D02*
X9203452Y-12180476D01*
X9203452Y-12180476D02*
X9222500Y-12190000D01*
X9222500Y-12190000D02*
X9232024Y-12199524D01*
X9232024Y-12199524D02*
X9241548Y-12218571D01*
X9241548Y-12218571D02*
X9251071Y-12256667D01*
X9251071Y-12256667D02*
X9251071Y-12304286D01*
X9251071Y-12304286D02*
X9241548Y-12342381D01*
X9241548Y-12342381D02*
X9232024Y-12361428D01*
X9232024Y-12361428D02*
X9222500Y-12370952D01*
X9222500Y-12370952D02*
X9203452Y-12380476D01*
X9203452Y-12380476D02*
X9184405Y-12380476D01*
X9184405Y-12380476D02*
X9165357Y-12370952D01*
X9165357Y-12370952D02*
X9155833Y-12361428D01*
X9155833Y-12361428D02*
X9146310Y-12342381D01*
X9146310Y-12342381D02*
X9136786Y-12304286D01*
X9136786Y-12304286D02*
X9136786Y-12256667D01*
X9136786Y-12256667D02*
X9146310Y-12218571D01*
X9146310Y-12218571D02*
X9155833Y-12199524D01*
X9155833Y-12199524D02*
X9165357Y-12190000D01*
X9165357Y-12190000D02*
X9184405Y-12180476D01*
X9374881Y-12180476D02*
X9393929Y-12180476D01*
X9393929Y-12180476D02*
X9412976Y-12190000D01*
X9412976Y-12190000D02*
X9422500Y-12199524D01*
X9422500Y-12199524D02*
X9432024Y-12218571D01*
X9432024Y-12218571D02*
X9441548Y-12256667D01*
X9441548Y-12256667D02*
X9441548Y-12304286D01*
X9441548Y-12304286D02*
X9432024Y-12342381D01*
X9432024Y-12342381D02*
X9422500Y-12361428D01*
X9422500Y-12361428D02*
X9412976Y-12370952D01*
X9412976Y-12370952D02*
X9393929Y-12380476D01*
X9393929Y-12380476D02*
X9374881Y-12380476D01*
X9374881Y-12380476D02*
X9355833Y-12370952D01*
X9355833Y-12370952D02*
X9346310Y-12361428D01*
X9346310Y-12361428D02*
X9336786Y-12342381D01*
X9336786Y-12342381D02*
X9327262Y-12304286D01*
X9327262Y-12304286D02*
X9327262Y-12256667D01*
X9327262Y-12256667D02*
X9336786Y-12218571D01*
X9336786Y-12218571D02*
X9346310Y-12199524D01*
X9346310Y-12199524D02*
X9355833Y-12190000D01*
X9355833Y-12190000D02*
X9374881Y-12180476D01*
X9527262Y-12380476D02*
X9527262Y-12247143D01*
X9527262Y-12266190D02*
X9536786Y-12256667D01*
X9536786Y-12256667D02*
X9555833Y-12247143D01*
X9555833Y-12247143D02*
X9584405Y-12247143D01*
X9584405Y-12247143D02*
X9603452Y-12256667D01*
X9603452Y-12256667D02*
X9612976Y-12275714D01*
X9612976Y-12275714D02*
X9612976Y-12380476D01*
X9612976Y-12275714D02*
X9622500Y-12256667D01*
X9622500Y-12256667D02*
X9641548Y-12247143D01*
X9641548Y-12247143D02*
X9670119Y-12247143D01*
X9670119Y-12247143D02*
X9689167Y-12256667D01*
X9689167Y-12256667D02*
X9698691Y-12275714D01*
X9698691Y-12275714D02*
X9698691Y-12380476D01*
X9793929Y-12380476D02*
X9793929Y-12247143D01*
X9793929Y-12266190D02*
X9803452Y-12256667D01*
X9803452Y-12256667D02*
X9822500Y-12247143D01*
X9822500Y-12247143D02*
X9851072Y-12247143D01*
X9851072Y-12247143D02*
X9870119Y-12256667D01*
X9870119Y-12256667D02*
X9879643Y-12275714D01*
X9879643Y-12275714D02*
X9879643Y-12380476D01*
X9879643Y-12275714D02*
X9889167Y-12256667D01*
X9889167Y-12256667D02*
X9908214Y-12247143D01*
X9908214Y-12247143D02*
X9936786Y-12247143D01*
X9936786Y-12247143D02*
X9955833Y-12256667D01*
X9955833Y-12256667D02*
X9965357Y-12275714D01*
X9965357Y-12275714D02*
X9965357Y-12380476D01*
X10323452Y-12170952D02*
X10152024Y-12428095D01*
X10548214Y-12180476D02*
X10567262Y-12180476D01*
X10567262Y-12180476D02*
X10586310Y-12190000D01*
X10586310Y-12190000D02*
X10595833Y-12199524D01*
X10595833Y-12199524D02*
X10605357Y-12218571D01*
X10605357Y-12218571D02*
X10614881Y-12256667D01*
X10614881Y-12256667D02*
X10614881Y-12304286D01*
X10614881Y-12304286D02*
X10605357Y-12342381D01*
X10605357Y-12342381D02*
X10595833Y-12361428D01*
X10595833Y-12361428D02*
X10586310Y-12370952D01*
X10586310Y-12370952D02*
X10567262Y-12380476D01*
X10567262Y-12380476D02*
X10548214Y-12380476D01*
X10548214Y-12380476D02*
X10529167Y-12370952D01*
X10529167Y-12370952D02*
X10519643Y-12361428D01*
X10519643Y-12361428D02*
X10510119Y-12342381D01*
X10510119Y-12342381D02*
X10500595Y-12304286D01*
X10500595Y-12304286D02*
X10500595Y-12256667D01*
X10500595Y-12256667D02*
X10510119Y-12218571D01*
X10510119Y-12218571D02*
X10519643Y-12199524D01*
X10519643Y-12199524D02*
X10529167Y-12190000D01*
X10529167Y-12190000D02*
X10548214Y-12180476D01*
X10700595Y-12361428D02*
X10710119Y-12370952D01*
X10710119Y-12370952D02*
X10700595Y-12380476D01*
X10700595Y-12380476D02*
X10691072Y-12370952D01*
X10691072Y-12370952D02*
X10700595Y-12361428D01*
X10700595Y-12361428D02*
X10700595Y-12380476D01*
X10833929Y-12180476D02*
X10852976Y-12180476D01*
X10852976Y-12180476D02*
X10872024Y-12190000D01*
X10872024Y-12190000D02*
X10881548Y-12199524D01*
X10881548Y-12199524D02*
X10891072Y-12218571D01*
X10891072Y-12218571D02*
X10900595Y-12256667D01*
X10900595Y-12256667D02*
X10900595Y-12304286D01*
X10900595Y-12304286D02*
X10891072Y-12342381D01*
X10891072Y-12342381D02*
X10881548Y-12361428D01*
X10881548Y-12361428D02*
X10872024Y-12370952D01*
X10872024Y-12370952D02*
X10852976Y-12380476D01*
X10852976Y-12380476D02*
X10833929Y-12380476D01*
X10833929Y-12380476D02*
X10814881Y-12370952D01*
X10814881Y-12370952D02*
X10805357Y-12361428D01*
X10805357Y-12361428D02*
X10795833Y-12342381D01*
X10795833Y-12342381D02*
X10786310Y-12304286D01*
X10786310Y-12304286D02*
X10786310Y-12256667D01*
X10786310Y-12256667D02*
X10795833Y-12218571D01*
X10795833Y-12218571D02*
X10805357Y-12199524D01*
X10805357Y-12199524D02*
X10814881Y-12190000D01*
X10814881Y-12190000D02*
X10833929Y-12180476D01*
X11091072Y-12380476D02*
X10976786Y-12380476D01*
X11033929Y-12380476D02*
X11033929Y-12180476D01*
X11033929Y-12180476D02*
X11014881Y-12209048D01*
X11014881Y-12209048D02*
X10995833Y-12228095D01*
X10995833Y-12228095D02*
X10976786Y-12237619D01*
X11281548Y-12380476D02*
X11167262Y-12380476D01*
X11224405Y-12380476D02*
X11224405Y-12180476D01*
X11224405Y-12180476D02*
X11205357Y-12209048D01*
X11205357Y-12209048D02*
X11186310Y-12228095D01*
X11186310Y-12228095D02*
X11167262Y-12237619D01*
X11395833Y-12266190D02*
X11376786Y-12256667D01*
X11376786Y-12256667D02*
X11367262Y-12247143D01*
X11367262Y-12247143D02*
X11357738Y-12228095D01*
X11357738Y-12228095D02*
X11357738Y-12218571D01*
X11357738Y-12218571D02*
X11367262Y-12199524D01*
X11367262Y-12199524D02*
X11376786Y-12190000D01*
X11376786Y-12190000D02*
X11395833Y-12180476D01*
X11395833Y-12180476D02*
X11433929Y-12180476D01*
X11433929Y-12180476D02*
X11452976Y-12190000D01*
X11452976Y-12190000D02*
X11462500Y-12199524D01*
X11462500Y-12199524D02*
X11472024Y-12218571D01*
X11472024Y-12218571D02*
X11472024Y-12228095D01*
X11472024Y-12228095D02*
X11462500Y-12247143D01*
X11462500Y-12247143D02*
X11452976Y-12256667D01*
X11452976Y-12256667D02*
X11433929Y-12266190D01*
X11433929Y-12266190D02*
X11395833Y-12266190D01*
X11395833Y-12266190D02*
X11376786Y-12275714D01*
X11376786Y-12275714D02*
X11367262Y-12285238D01*
X11367262Y-12285238D02*
X11357738Y-12304286D01*
X11357738Y-12304286D02*
X11357738Y-12342381D01*
X11357738Y-12342381D02*
X11367262Y-12361428D01*
X11367262Y-12361428D02*
X11376786Y-12370952D01*
X11376786Y-12370952D02*
X11395833Y-12380476D01*
X11395833Y-12380476D02*
X11433929Y-12380476D01*
X11433929Y-12380476D02*
X11452976Y-12370952D01*
X11452976Y-12370952D02*
X11462500Y-12361428D01*
X11462500Y-12361428D02*
X11472024Y-12342381D01*
X11472024Y-12342381D02*
X11472024Y-12304286D01*
X11472024Y-12304286D02*
X11462500Y-12285238D01*
X11462500Y-12285238D02*
X11452976Y-12275714D01*
X11452976Y-12275714D02*
X11433929Y-12266190D01*
X11548214Y-12180476D02*
X11548214Y-12218571D01*
X11624405Y-12180476D02*
X11624405Y-12218571D01*
X11887262Y-12456667D02*
X11877738Y-12447143D01*
X11877738Y-12447143D02*
X11858691Y-12418571D01*
X11858691Y-12418571D02*
X11849167Y-12399524D01*
X11849167Y-12399524D02*
X11839643Y-12370952D01*
X11839643Y-12370952D02*
X11830119Y-12323333D01*
X11830119Y-12323333D02*
X11830119Y-12285238D01*
X11830119Y-12285238D02*
X11839643Y-12237619D01*
X11839643Y-12237619D02*
X11849167Y-12209048D01*
X11849167Y-12209048D02*
X11858691Y-12190000D01*
X11858691Y-12190000D02*
X11877738Y-12161428D01*
X11877738Y-12161428D02*
X11887262Y-12151905D01*
X11953929Y-12199524D02*
X11963452Y-12190000D01*
X11963452Y-12190000D02*
X11982500Y-12180476D01*
X11982500Y-12180476D02*
X12030119Y-12180476D01*
X12030119Y-12180476D02*
X12049167Y-12190000D01*
X12049167Y-12190000D02*
X12058691Y-12199524D01*
X12058691Y-12199524D02*
X12068214Y-12218571D01*
X12068214Y-12218571D02*
X12068214Y-12237619D01*
X12068214Y-12237619D02*
X12058691Y-12266190D01*
X12058691Y-12266190D02*
X11944405Y-12380476D01*
X11944405Y-12380476D02*
X12068214Y-12380476D01*
X12273929Y-12380476D02*
X12273929Y-12180476D01*
X12359643Y-12380476D02*
X12359643Y-12275714D01*
X12359643Y-12275714D02*
X12350119Y-12256667D01*
X12350119Y-12256667D02*
X12331072Y-12247143D01*
X12331072Y-12247143D02*
X12302500Y-12247143D01*
X12302500Y-12247143D02*
X12283452Y-12256667D01*
X12283452Y-12256667D02*
X12273929Y-12266190D01*
X12483452Y-12380476D02*
X12464405Y-12370952D01*
X12464405Y-12370952D02*
X12454881Y-12361428D01*
X12454881Y-12361428D02*
X12445357Y-12342381D01*
X12445357Y-12342381D02*
X12445357Y-12285238D01*
X12445357Y-12285238D02*
X12454881Y-12266190D01*
X12454881Y-12266190D02*
X12464405Y-12256667D01*
X12464405Y-12256667D02*
X12483452Y-12247143D01*
X12483452Y-12247143D02*
X12512024Y-12247143D01*
X12512024Y-12247143D02*
X12531072Y-12256667D01*
X12531072Y-12256667D02*
X12540595Y-12266190D01*
X12540595Y-12266190D02*
X12550119Y-12285238D01*
X12550119Y-12285238D02*
X12550119Y-12342381D01*
X12550119Y-12342381D02*
X12540595Y-12361428D01*
X12540595Y-12361428D02*
X12531072Y-12370952D01*
X12531072Y-12370952D02*
X12512024Y-12380476D01*
X12512024Y-12380476D02*
X12483452Y-12380476D01*
X12664405Y-12380476D02*
X12645357Y-12370952D01*
X12645357Y-12370952D02*
X12635833Y-12351905D01*
X12635833Y-12351905D02*
X12635833Y-12180476D01*
X12816786Y-12370952D02*
X12797738Y-12380476D01*
X12797738Y-12380476D02*
X12759643Y-12380476D01*
X12759643Y-12380476D02*
X12740595Y-12370952D01*
X12740595Y-12370952D02*
X12731072Y-12351905D01*
X12731072Y-12351905D02*
X12731072Y-12275714D01*
X12731072Y-12275714D02*
X12740595Y-12256667D01*
X12740595Y-12256667D02*
X12759643Y-12247143D01*
X12759643Y-12247143D02*
X12797738Y-12247143D01*
X12797738Y-12247143D02*
X12816786Y-12256667D01*
X12816786Y-12256667D02*
X12826310Y-12275714D01*
X12826310Y-12275714D02*
X12826310Y-12294762D01*
X12826310Y-12294762D02*
X12731072Y-12313809D01*
X12902500Y-12370952D02*
X12921548Y-12380476D01*
X12921548Y-12380476D02*
X12959643Y-12380476D01*
X12959643Y-12380476D02*
X12978691Y-12370952D01*
X12978691Y-12370952D02*
X12988214Y-12351905D01*
X12988214Y-12351905D02*
X12988214Y-12342381D01*
X12988214Y-12342381D02*
X12978691Y-12323333D01*
X12978691Y-12323333D02*
X12959643Y-12313809D01*
X12959643Y-12313809D02*
X12931072Y-12313809D01*
X12931072Y-12313809D02*
X12912024Y-12304286D01*
X12912024Y-12304286D02*
X12902500Y-12285238D01*
X12902500Y-12285238D02*
X12902500Y-12275714D01*
X12902500Y-12275714D02*
X12912024Y-12256667D01*
X12912024Y-12256667D02*
X12931072Y-12247143D01*
X12931072Y-12247143D02*
X12959643Y-12247143D01*
X12959643Y-12247143D02*
X12978691Y-12256667D01*
X13054881Y-12456667D02*
X13064405Y-12447143D01*
X13064405Y-12447143D02*
X13083453Y-12418571D01*
X13083453Y-12418571D02*
X13092976Y-12399524D01*
X13092976Y-12399524D02*
X13102500Y-12370952D01*
X13102500Y-12370952D02*
X13112024Y-12323333D01*
X13112024Y-12323333D02*
X13112024Y-12285238D01*
X13112024Y-12285238D02*
X13102500Y-12237619D01*
X13102500Y-12237619D02*
X13092976Y-12209048D01*
X13092976Y-12209048D02*
X13083453Y-12190000D01*
X13083453Y-12190000D02*
X13064405Y-12161428D01*
X13064405Y-12161428D02*
X13054881Y-12151905D01*
D13*
X8422500Y-12571000D02*
G75*
G03*
X8422500Y-12571000I-20000J0D01*
G01*
D11*
X8708214Y-12444476D02*
X8727262Y-12444476D01*
X8727262Y-12444476D02*
X8746310Y-12454000D01*
X8746310Y-12454000D02*
X8755833Y-12463524D01*
X8755833Y-12463524D02*
X8765357Y-12482571D01*
X8765357Y-12482571D02*
X8774881Y-12520667D01*
X8774881Y-12520667D02*
X8774881Y-12568286D01*
X8774881Y-12568286D02*
X8765357Y-12606381D01*
X8765357Y-12606381D02*
X8755833Y-12625428D01*
X8755833Y-12625428D02*
X8746310Y-12634952D01*
X8746310Y-12634952D02*
X8727262Y-12644476D01*
X8727262Y-12644476D02*
X8708214Y-12644476D01*
X8708214Y-12644476D02*
X8689167Y-12634952D01*
X8689167Y-12634952D02*
X8679643Y-12625428D01*
X8679643Y-12625428D02*
X8670119Y-12606381D01*
X8670119Y-12606381D02*
X8660595Y-12568286D01*
X8660595Y-12568286D02*
X8660595Y-12520667D01*
X8660595Y-12520667D02*
X8670119Y-12482571D01*
X8670119Y-12482571D02*
X8679643Y-12463524D01*
X8679643Y-12463524D02*
X8689167Y-12454000D01*
X8689167Y-12454000D02*
X8708214Y-12444476D01*
X8860595Y-12625428D02*
X8870119Y-12634952D01*
X8870119Y-12634952D02*
X8860595Y-12644476D01*
X8860595Y-12644476D02*
X8851071Y-12634952D01*
X8851071Y-12634952D02*
X8860595Y-12625428D01*
X8860595Y-12625428D02*
X8860595Y-12644476D01*
X9041548Y-12511143D02*
X9041548Y-12644476D01*
X8993929Y-12434952D02*
X8946310Y-12577809D01*
X8946310Y-12577809D02*
X9070119Y-12577809D01*
X9184405Y-12444476D02*
X9203452Y-12444476D01*
X9203452Y-12444476D02*
X9222500Y-12454000D01*
X9222500Y-12454000D02*
X9232024Y-12463524D01*
X9232024Y-12463524D02*
X9241548Y-12482571D01*
X9241548Y-12482571D02*
X9251071Y-12520667D01*
X9251071Y-12520667D02*
X9251071Y-12568286D01*
X9251071Y-12568286D02*
X9241548Y-12606381D01*
X9241548Y-12606381D02*
X9232024Y-12625428D01*
X9232024Y-12625428D02*
X9222500Y-12634952D01*
X9222500Y-12634952D02*
X9203452Y-12644476D01*
X9203452Y-12644476D02*
X9184405Y-12644476D01*
X9184405Y-12644476D02*
X9165357Y-12634952D01*
X9165357Y-12634952D02*
X9155833Y-12625428D01*
X9155833Y-12625428D02*
X9146310Y-12606381D01*
X9146310Y-12606381D02*
X9136786Y-12568286D01*
X9136786Y-12568286D02*
X9136786Y-12520667D01*
X9136786Y-12520667D02*
X9146310Y-12482571D01*
X9146310Y-12482571D02*
X9155833Y-12463524D01*
X9155833Y-12463524D02*
X9165357Y-12454000D01*
X9165357Y-12454000D02*
X9184405Y-12444476D01*
X9374881Y-12444476D02*
X9393929Y-12444476D01*
X9393929Y-12444476D02*
X9412976Y-12454000D01*
X9412976Y-12454000D02*
X9422500Y-12463524D01*
X9422500Y-12463524D02*
X9432024Y-12482571D01*
X9432024Y-12482571D02*
X9441548Y-12520667D01*
X9441548Y-12520667D02*
X9441548Y-12568286D01*
X9441548Y-12568286D02*
X9432024Y-12606381D01*
X9432024Y-12606381D02*
X9422500Y-12625428D01*
X9422500Y-12625428D02*
X9412976Y-12634952D01*
X9412976Y-12634952D02*
X9393929Y-12644476D01*
X9393929Y-12644476D02*
X9374881Y-12644476D01*
X9374881Y-12644476D02*
X9355833Y-12634952D01*
X9355833Y-12634952D02*
X9346310Y-12625428D01*
X9346310Y-12625428D02*
X9336786Y-12606381D01*
X9336786Y-12606381D02*
X9327262Y-12568286D01*
X9327262Y-12568286D02*
X9327262Y-12520667D01*
X9327262Y-12520667D02*
X9336786Y-12482571D01*
X9336786Y-12482571D02*
X9346310Y-12463524D01*
X9346310Y-12463524D02*
X9355833Y-12454000D01*
X9355833Y-12454000D02*
X9374881Y-12444476D01*
X9527262Y-12644476D02*
X9527262Y-12511143D01*
X9527262Y-12530190D02*
X9536786Y-12520667D01*
X9536786Y-12520667D02*
X9555833Y-12511143D01*
X9555833Y-12511143D02*
X9584405Y-12511143D01*
X9584405Y-12511143D02*
X9603452Y-12520667D01*
X9603452Y-12520667D02*
X9612976Y-12539714D01*
X9612976Y-12539714D02*
X9612976Y-12644476D01*
X9612976Y-12539714D02*
X9622500Y-12520667D01*
X9622500Y-12520667D02*
X9641548Y-12511143D01*
X9641548Y-12511143D02*
X9670119Y-12511143D01*
X9670119Y-12511143D02*
X9689167Y-12520667D01*
X9689167Y-12520667D02*
X9698691Y-12539714D01*
X9698691Y-12539714D02*
X9698691Y-12644476D01*
X9793929Y-12644476D02*
X9793929Y-12511143D01*
X9793929Y-12530190D02*
X9803452Y-12520667D01*
X9803452Y-12520667D02*
X9822500Y-12511143D01*
X9822500Y-12511143D02*
X9851072Y-12511143D01*
X9851072Y-12511143D02*
X9870119Y-12520667D01*
X9870119Y-12520667D02*
X9879643Y-12539714D01*
X9879643Y-12539714D02*
X9879643Y-12644476D01*
X9879643Y-12539714D02*
X9889167Y-12520667D01*
X9889167Y-12520667D02*
X9908214Y-12511143D01*
X9908214Y-12511143D02*
X9936786Y-12511143D01*
X9936786Y-12511143D02*
X9955833Y-12520667D01*
X9955833Y-12520667D02*
X9965357Y-12539714D01*
X9965357Y-12539714D02*
X9965357Y-12644476D01*
X10323452Y-12434952D02*
X10152024Y-12692095D01*
X10548214Y-12444476D02*
X10567262Y-12444476D01*
X10567262Y-12444476D02*
X10586310Y-12454000D01*
X10586310Y-12454000D02*
X10595833Y-12463524D01*
X10595833Y-12463524D02*
X10605357Y-12482571D01*
X10605357Y-12482571D02*
X10614881Y-12520667D01*
X10614881Y-12520667D02*
X10614881Y-12568286D01*
X10614881Y-12568286D02*
X10605357Y-12606381D01*
X10605357Y-12606381D02*
X10595833Y-12625428D01*
X10595833Y-12625428D02*
X10586310Y-12634952D01*
X10586310Y-12634952D02*
X10567262Y-12644476D01*
X10567262Y-12644476D02*
X10548214Y-12644476D01*
X10548214Y-12644476D02*
X10529167Y-12634952D01*
X10529167Y-12634952D02*
X10519643Y-12625428D01*
X10519643Y-12625428D02*
X10510119Y-12606381D01*
X10510119Y-12606381D02*
X10500595Y-12568286D01*
X10500595Y-12568286D02*
X10500595Y-12520667D01*
X10500595Y-12520667D02*
X10510119Y-12482571D01*
X10510119Y-12482571D02*
X10519643Y-12463524D01*
X10519643Y-12463524D02*
X10529167Y-12454000D01*
X10529167Y-12454000D02*
X10548214Y-12444476D01*
X10700595Y-12625428D02*
X10710119Y-12634952D01*
X10710119Y-12634952D02*
X10700595Y-12644476D01*
X10700595Y-12644476D02*
X10691072Y-12634952D01*
X10691072Y-12634952D02*
X10700595Y-12625428D01*
X10700595Y-12625428D02*
X10700595Y-12644476D01*
X10833929Y-12444476D02*
X10852976Y-12444476D01*
X10852976Y-12444476D02*
X10872024Y-12454000D01*
X10872024Y-12454000D02*
X10881548Y-12463524D01*
X10881548Y-12463524D02*
X10891072Y-12482571D01*
X10891072Y-12482571D02*
X10900595Y-12520667D01*
X10900595Y-12520667D02*
X10900595Y-12568286D01*
X10900595Y-12568286D02*
X10891072Y-12606381D01*
X10891072Y-12606381D02*
X10881548Y-12625428D01*
X10881548Y-12625428D02*
X10872024Y-12634952D01*
X10872024Y-12634952D02*
X10852976Y-12644476D01*
X10852976Y-12644476D02*
X10833929Y-12644476D01*
X10833929Y-12644476D02*
X10814881Y-12634952D01*
X10814881Y-12634952D02*
X10805357Y-12625428D01*
X10805357Y-12625428D02*
X10795833Y-12606381D01*
X10795833Y-12606381D02*
X10786310Y-12568286D01*
X10786310Y-12568286D02*
X10786310Y-12520667D01*
X10786310Y-12520667D02*
X10795833Y-12482571D01*
X10795833Y-12482571D02*
X10805357Y-12463524D01*
X10805357Y-12463524D02*
X10814881Y-12454000D01*
X10814881Y-12454000D02*
X10833929Y-12444476D01*
X11091072Y-12644476D02*
X10976786Y-12644476D01*
X11033929Y-12644476D02*
X11033929Y-12444476D01*
X11033929Y-12444476D02*
X11014881Y-12473048D01*
X11014881Y-12473048D02*
X10995833Y-12492095D01*
X10995833Y-12492095D02*
X10976786Y-12501619D01*
X11272024Y-12444476D02*
X11176786Y-12444476D01*
X11176786Y-12444476D02*
X11167262Y-12539714D01*
X11167262Y-12539714D02*
X11176786Y-12530190D01*
X11176786Y-12530190D02*
X11195833Y-12520667D01*
X11195833Y-12520667D02*
X11243452Y-12520667D01*
X11243452Y-12520667D02*
X11262500Y-12530190D01*
X11262500Y-12530190D02*
X11272024Y-12539714D01*
X11272024Y-12539714D02*
X11281548Y-12558762D01*
X11281548Y-12558762D02*
X11281548Y-12606381D01*
X11281548Y-12606381D02*
X11272024Y-12625428D01*
X11272024Y-12625428D02*
X11262500Y-12634952D01*
X11262500Y-12634952D02*
X11243452Y-12644476D01*
X11243452Y-12644476D02*
X11195833Y-12644476D01*
X11195833Y-12644476D02*
X11176786Y-12634952D01*
X11176786Y-12634952D02*
X11167262Y-12625428D01*
X11348214Y-12444476D02*
X11481548Y-12444476D01*
X11481548Y-12444476D02*
X11395833Y-12644476D01*
X11548214Y-12444476D02*
X11548214Y-12482571D01*
X11624405Y-12444476D02*
X11624405Y-12482571D01*
X11887262Y-12720667D02*
X11877738Y-12711143D01*
X11877738Y-12711143D02*
X11858691Y-12682571D01*
X11858691Y-12682571D02*
X11849167Y-12663524D01*
X11849167Y-12663524D02*
X11839643Y-12634952D01*
X11839643Y-12634952D02*
X11830119Y-12587333D01*
X11830119Y-12587333D02*
X11830119Y-12549238D01*
X11830119Y-12549238D02*
X11839643Y-12501619D01*
X11839643Y-12501619D02*
X11849167Y-12473048D01*
X11849167Y-12473048D02*
X11858691Y-12454000D01*
X11858691Y-12454000D02*
X11877738Y-12425428D01*
X11877738Y-12425428D02*
X11887262Y-12415905D01*
X11953929Y-12463524D02*
X11963452Y-12454000D01*
X11963452Y-12454000D02*
X11982500Y-12444476D01*
X11982500Y-12444476D02*
X12030119Y-12444476D01*
X12030119Y-12444476D02*
X12049167Y-12454000D01*
X12049167Y-12454000D02*
X12058691Y-12463524D01*
X12058691Y-12463524D02*
X12068214Y-12482571D01*
X12068214Y-12482571D02*
X12068214Y-12501619D01*
X12068214Y-12501619D02*
X12058691Y-12530190D01*
X12058691Y-12530190D02*
X11944405Y-12644476D01*
X11944405Y-12644476D02*
X12068214Y-12644476D01*
X12249167Y-12444476D02*
X12153929Y-12444476D01*
X12153929Y-12444476D02*
X12144405Y-12539714D01*
X12144405Y-12539714D02*
X12153929Y-12530190D01*
X12153929Y-12530190D02*
X12172976Y-12520667D01*
X12172976Y-12520667D02*
X12220595Y-12520667D01*
X12220595Y-12520667D02*
X12239643Y-12530190D01*
X12239643Y-12530190D02*
X12249167Y-12539714D01*
X12249167Y-12539714D02*
X12258691Y-12558762D01*
X12258691Y-12558762D02*
X12258691Y-12606381D01*
X12258691Y-12606381D02*
X12249167Y-12625428D01*
X12249167Y-12625428D02*
X12239643Y-12634952D01*
X12239643Y-12634952D02*
X12220595Y-12644476D01*
X12220595Y-12644476D02*
X12172976Y-12644476D01*
X12172976Y-12644476D02*
X12153929Y-12634952D01*
X12153929Y-12634952D02*
X12144405Y-12625428D01*
X12464405Y-12644476D02*
X12464405Y-12444476D01*
X12550119Y-12644476D02*
X12550119Y-12539714D01*
X12550119Y-12539714D02*
X12540595Y-12520667D01*
X12540595Y-12520667D02*
X12521548Y-12511143D01*
X12521548Y-12511143D02*
X12492976Y-12511143D01*
X12492976Y-12511143D02*
X12473929Y-12520667D01*
X12473929Y-12520667D02*
X12464405Y-12530190D01*
X12673929Y-12644476D02*
X12654881Y-12634952D01*
X12654881Y-12634952D02*
X12645357Y-12625428D01*
X12645357Y-12625428D02*
X12635833Y-12606381D01*
X12635833Y-12606381D02*
X12635833Y-12549238D01*
X12635833Y-12549238D02*
X12645357Y-12530190D01*
X12645357Y-12530190D02*
X12654881Y-12520667D01*
X12654881Y-12520667D02*
X12673929Y-12511143D01*
X12673929Y-12511143D02*
X12702500Y-12511143D01*
X12702500Y-12511143D02*
X12721548Y-12520667D01*
X12721548Y-12520667D02*
X12731072Y-12530190D01*
X12731072Y-12530190D02*
X12740595Y-12549238D01*
X12740595Y-12549238D02*
X12740595Y-12606381D01*
X12740595Y-12606381D02*
X12731072Y-12625428D01*
X12731072Y-12625428D02*
X12721548Y-12634952D01*
X12721548Y-12634952D02*
X12702500Y-12644476D01*
X12702500Y-12644476D02*
X12673929Y-12644476D01*
X12854881Y-12644476D02*
X12835833Y-12634952D01*
X12835833Y-12634952D02*
X12826310Y-12615905D01*
X12826310Y-12615905D02*
X12826310Y-12444476D01*
X13007262Y-12634952D02*
X12988214Y-12644476D01*
X12988214Y-12644476D02*
X12950119Y-12644476D01*
X12950119Y-12644476D02*
X12931072Y-12634952D01*
X12931072Y-12634952D02*
X12921548Y-12615905D01*
X12921548Y-12615905D02*
X12921548Y-12539714D01*
X12921548Y-12539714D02*
X12931072Y-12520667D01*
X12931072Y-12520667D02*
X12950119Y-12511143D01*
X12950119Y-12511143D02*
X12988214Y-12511143D01*
X12988214Y-12511143D02*
X13007262Y-12520667D01*
X13007262Y-12520667D02*
X13016786Y-12539714D01*
X13016786Y-12539714D02*
X13016786Y-12558762D01*
X13016786Y-12558762D02*
X12921548Y-12577809D01*
X13092976Y-12634952D02*
X13112024Y-12644476D01*
X13112024Y-12644476D02*
X13150119Y-12644476D01*
X13150119Y-12644476D02*
X13169167Y-12634952D01*
X13169167Y-12634952D02*
X13178691Y-12615905D01*
X13178691Y-12615905D02*
X13178691Y-12606381D01*
X13178691Y-12606381D02*
X13169167Y-12587333D01*
X13169167Y-12587333D02*
X13150119Y-12577809D01*
X13150119Y-12577809D02*
X13121548Y-12577809D01*
X13121548Y-12577809D02*
X13102500Y-12568286D01*
X13102500Y-12568286D02*
X13092976Y-12549238D01*
X13092976Y-12549238D02*
X13092976Y-12539714D01*
X13092976Y-12539714D02*
X13102500Y-12520667D01*
X13102500Y-12520667D02*
X13121548Y-12511143D01*
X13121548Y-12511143D02*
X13150119Y-12511143D01*
X13150119Y-12511143D02*
X13169167Y-12520667D01*
X13245357Y-12720667D02*
X13254881Y-12711143D01*
X13254881Y-12711143D02*
X13273929Y-12682571D01*
X13273929Y-12682571D02*
X13283453Y-12663524D01*
X13283453Y-12663524D02*
X13292976Y-12634952D01*
X13292976Y-12634952D02*
X13302500Y-12587333D01*
X13302500Y-12587333D02*
X13302500Y-12549238D01*
X13302500Y-12549238D02*
X13292976Y-12501619D01*
X13292976Y-12501619D02*
X13283453Y-12473048D01*
X13283453Y-12473048D02*
X13273929Y-12454000D01*
X13273929Y-12454000D02*
X13254881Y-12425428D01*
X13254881Y-12425428D02*
X13245357Y-12415905D01*
D14*
X8397500Y-12810000D02*
X8397500Y-12860000D01*
X8372500Y-12835000D02*
X8422500Y-12835000D01*
D11*
X8708214Y-12708476D02*
X8727262Y-12708476D01*
X8727262Y-12708476D02*
X8746310Y-12718000D01*
X8746310Y-12718000D02*
X8755833Y-12727524D01*
X8755833Y-12727524D02*
X8765357Y-12746571D01*
X8765357Y-12746571D02*
X8774881Y-12784667D01*
X8774881Y-12784667D02*
X8774881Y-12832286D01*
X8774881Y-12832286D02*
X8765357Y-12870381D01*
X8765357Y-12870381D02*
X8755833Y-12889428D01*
X8755833Y-12889428D02*
X8746310Y-12898952D01*
X8746310Y-12898952D02*
X8727262Y-12908476D01*
X8727262Y-12908476D02*
X8708214Y-12908476D01*
X8708214Y-12908476D02*
X8689167Y-12898952D01*
X8689167Y-12898952D02*
X8679643Y-12889428D01*
X8679643Y-12889428D02*
X8670119Y-12870381D01*
X8670119Y-12870381D02*
X8660595Y-12832286D01*
X8660595Y-12832286D02*
X8660595Y-12784667D01*
X8660595Y-12784667D02*
X8670119Y-12746571D01*
X8670119Y-12746571D02*
X8679643Y-12727524D01*
X8679643Y-12727524D02*
X8689167Y-12718000D01*
X8689167Y-12718000D02*
X8708214Y-12708476D01*
X8860595Y-12889428D02*
X8870119Y-12898952D01*
X8870119Y-12898952D02*
X8860595Y-12908476D01*
X8860595Y-12908476D02*
X8851071Y-12898952D01*
X8851071Y-12898952D02*
X8860595Y-12889428D01*
X8860595Y-12889428D02*
X8860595Y-12908476D01*
X9051071Y-12708476D02*
X8955833Y-12708476D01*
X8955833Y-12708476D02*
X8946310Y-12803714D01*
X8946310Y-12803714D02*
X8955833Y-12794190D01*
X8955833Y-12794190D02*
X8974881Y-12784667D01*
X8974881Y-12784667D02*
X9022500Y-12784667D01*
X9022500Y-12784667D02*
X9041548Y-12794190D01*
X9041548Y-12794190D02*
X9051071Y-12803714D01*
X9051071Y-12803714D02*
X9060595Y-12822762D01*
X9060595Y-12822762D02*
X9060595Y-12870381D01*
X9060595Y-12870381D02*
X9051071Y-12889428D01*
X9051071Y-12889428D02*
X9041548Y-12898952D01*
X9041548Y-12898952D02*
X9022500Y-12908476D01*
X9022500Y-12908476D02*
X8974881Y-12908476D01*
X8974881Y-12908476D02*
X8955833Y-12898952D01*
X8955833Y-12898952D02*
X8946310Y-12889428D01*
X9184405Y-12708476D02*
X9203452Y-12708476D01*
X9203452Y-12708476D02*
X9222500Y-12718000D01*
X9222500Y-12718000D02*
X9232024Y-12727524D01*
X9232024Y-12727524D02*
X9241548Y-12746571D01*
X9241548Y-12746571D02*
X9251071Y-12784667D01*
X9251071Y-12784667D02*
X9251071Y-12832286D01*
X9251071Y-12832286D02*
X9241548Y-12870381D01*
X9241548Y-12870381D02*
X9232024Y-12889428D01*
X9232024Y-12889428D02*
X9222500Y-12898952D01*
X9222500Y-12898952D02*
X9203452Y-12908476D01*
X9203452Y-12908476D02*
X9184405Y-12908476D01*
X9184405Y-12908476D02*
X9165357Y-12898952D01*
X9165357Y-12898952D02*
X9155833Y-12889428D01*
X9155833Y-12889428D02*
X9146310Y-12870381D01*
X9146310Y-12870381D02*
X9136786Y-12832286D01*
X9136786Y-12832286D02*
X9136786Y-12784667D01*
X9136786Y-12784667D02*
X9146310Y-12746571D01*
X9146310Y-12746571D02*
X9155833Y-12727524D01*
X9155833Y-12727524D02*
X9165357Y-12718000D01*
X9165357Y-12718000D02*
X9184405Y-12708476D01*
X9374881Y-12708476D02*
X9393929Y-12708476D01*
X9393929Y-12708476D02*
X9412976Y-12718000D01*
X9412976Y-12718000D02*
X9422500Y-12727524D01*
X9422500Y-12727524D02*
X9432024Y-12746571D01*
X9432024Y-12746571D02*
X9441548Y-12784667D01*
X9441548Y-12784667D02*
X9441548Y-12832286D01*
X9441548Y-12832286D02*
X9432024Y-12870381D01*
X9432024Y-12870381D02*
X9422500Y-12889428D01*
X9422500Y-12889428D02*
X9412976Y-12898952D01*
X9412976Y-12898952D02*
X9393929Y-12908476D01*
X9393929Y-12908476D02*
X9374881Y-12908476D01*
X9374881Y-12908476D02*
X9355833Y-12898952D01*
X9355833Y-12898952D02*
X9346310Y-12889428D01*
X9346310Y-12889428D02*
X9336786Y-12870381D01*
X9336786Y-12870381D02*
X9327262Y-12832286D01*
X9327262Y-12832286D02*
X9327262Y-12784667D01*
X9327262Y-12784667D02*
X9336786Y-12746571D01*
X9336786Y-12746571D02*
X9346310Y-12727524D01*
X9346310Y-12727524D02*
X9355833Y-12718000D01*
X9355833Y-12718000D02*
X9374881Y-12708476D01*
X9527262Y-12908476D02*
X9527262Y-12775143D01*
X9527262Y-12794190D02*
X9536786Y-12784667D01*
X9536786Y-12784667D02*
X9555833Y-12775143D01*
X9555833Y-12775143D02*
X9584405Y-12775143D01*
X9584405Y-12775143D02*
X9603452Y-12784667D01*
X9603452Y-12784667D02*
X9612976Y-12803714D01*
X9612976Y-12803714D02*
X9612976Y-12908476D01*
X9612976Y-12803714D02*
X9622500Y-12784667D01*
X9622500Y-12784667D02*
X9641548Y-12775143D01*
X9641548Y-12775143D02*
X9670119Y-12775143D01*
X9670119Y-12775143D02*
X9689167Y-12784667D01*
X9689167Y-12784667D02*
X9698691Y-12803714D01*
X9698691Y-12803714D02*
X9698691Y-12908476D01*
X9793929Y-12908476D02*
X9793929Y-12775143D01*
X9793929Y-12794190D02*
X9803452Y-12784667D01*
X9803452Y-12784667D02*
X9822500Y-12775143D01*
X9822500Y-12775143D02*
X9851072Y-12775143D01*
X9851072Y-12775143D02*
X9870119Y-12784667D01*
X9870119Y-12784667D02*
X9879643Y-12803714D01*
X9879643Y-12803714D02*
X9879643Y-12908476D01*
X9879643Y-12803714D02*
X9889167Y-12784667D01*
X9889167Y-12784667D02*
X9908214Y-12775143D01*
X9908214Y-12775143D02*
X9936786Y-12775143D01*
X9936786Y-12775143D02*
X9955833Y-12784667D01*
X9955833Y-12784667D02*
X9965357Y-12803714D01*
X9965357Y-12803714D02*
X9965357Y-12908476D01*
X10323452Y-12698952D02*
X10152024Y-12956095D01*
X10548214Y-12708476D02*
X10567262Y-12708476D01*
X10567262Y-12708476D02*
X10586310Y-12718000D01*
X10586310Y-12718000D02*
X10595833Y-12727524D01*
X10595833Y-12727524D02*
X10605357Y-12746571D01*
X10605357Y-12746571D02*
X10614881Y-12784667D01*
X10614881Y-12784667D02*
X10614881Y-12832286D01*
X10614881Y-12832286D02*
X10605357Y-12870381D01*
X10605357Y-12870381D02*
X10595833Y-12889428D01*
X10595833Y-12889428D02*
X10586310Y-12898952D01*
X10586310Y-12898952D02*
X10567262Y-12908476D01*
X10567262Y-12908476D02*
X10548214Y-12908476D01*
X10548214Y-12908476D02*
X10529167Y-12898952D01*
X10529167Y-12898952D02*
X10519643Y-12889428D01*
X10519643Y-12889428D02*
X10510119Y-12870381D01*
X10510119Y-12870381D02*
X10500595Y-12832286D01*
X10500595Y-12832286D02*
X10500595Y-12784667D01*
X10500595Y-12784667D02*
X10510119Y-12746571D01*
X10510119Y-12746571D02*
X10519643Y-12727524D01*
X10519643Y-12727524D02*
X10529167Y-12718000D01*
X10529167Y-12718000D02*
X10548214Y-12708476D01*
X10700595Y-12889428D02*
X10710119Y-12898952D01*
X10710119Y-12898952D02*
X10700595Y-12908476D01*
X10700595Y-12908476D02*
X10691072Y-12898952D01*
X10691072Y-12898952D02*
X10700595Y-12889428D01*
X10700595Y-12889428D02*
X10700595Y-12908476D01*
X10833929Y-12708476D02*
X10852976Y-12708476D01*
X10852976Y-12708476D02*
X10872024Y-12718000D01*
X10872024Y-12718000D02*
X10881548Y-12727524D01*
X10881548Y-12727524D02*
X10891072Y-12746571D01*
X10891072Y-12746571D02*
X10900595Y-12784667D01*
X10900595Y-12784667D02*
X10900595Y-12832286D01*
X10900595Y-12832286D02*
X10891072Y-12870381D01*
X10891072Y-12870381D02*
X10881548Y-12889428D01*
X10881548Y-12889428D02*
X10872024Y-12898952D01*
X10872024Y-12898952D02*
X10852976Y-12908476D01*
X10852976Y-12908476D02*
X10833929Y-12908476D01*
X10833929Y-12908476D02*
X10814881Y-12898952D01*
X10814881Y-12898952D02*
X10805357Y-12889428D01*
X10805357Y-12889428D02*
X10795833Y-12870381D01*
X10795833Y-12870381D02*
X10786310Y-12832286D01*
X10786310Y-12832286D02*
X10786310Y-12784667D01*
X10786310Y-12784667D02*
X10795833Y-12746571D01*
X10795833Y-12746571D02*
X10805357Y-12727524D01*
X10805357Y-12727524D02*
X10814881Y-12718000D01*
X10814881Y-12718000D02*
X10833929Y-12708476D01*
X11091072Y-12908476D02*
X10976786Y-12908476D01*
X11033929Y-12908476D02*
X11033929Y-12708476D01*
X11033929Y-12708476D02*
X11014881Y-12737048D01*
X11014881Y-12737048D02*
X10995833Y-12756095D01*
X10995833Y-12756095D02*
X10976786Y-12765619D01*
X11186310Y-12908476D02*
X11224405Y-12908476D01*
X11224405Y-12908476D02*
X11243452Y-12898952D01*
X11243452Y-12898952D02*
X11252976Y-12889428D01*
X11252976Y-12889428D02*
X11272024Y-12860857D01*
X11272024Y-12860857D02*
X11281548Y-12822762D01*
X11281548Y-12822762D02*
X11281548Y-12746571D01*
X11281548Y-12746571D02*
X11272024Y-12727524D01*
X11272024Y-12727524D02*
X11262500Y-12718000D01*
X11262500Y-12718000D02*
X11243452Y-12708476D01*
X11243452Y-12708476D02*
X11205357Y-12708476D01*
X11205357Y-12708476D02*
X11186310Y-12718000D01*
X11186310Y-12718000D02*
X11176786Y-12727524D01*
X11176786Y-12727524D02*
X11167262Y-12746571D01*
X11167262Y-12746571D02*
X11167262Y-12794190D01*
X11167262Y-12794190D02*
X11176786Y-12813238D01*
X11176786Y-12813238D02*
X11186310Y-12822762D01*
X11186310Y-12822762D02*
X11205357Y-12832286D01*
X11205357Y-12832286D02*
X11243452Y-12832286D01*
X11243452Y-12832286D02*
X11262500Y-12822762D01*
X11262500Y-12822762D02*
X11272024Y-12813238D01*
X11272024Y-12813238D02*
X11281548Y-12794190D01*
X11348214Y-12708476D02*
X11481548Y-12708476D01*
X11481548Y-12708476D02*
X11395833Y-12908476D01*
X11548214Y-12708476D02*
X11548214Y-12746571D01*
X11624405Y-12708476D02*
X11624405Y-12746571D01*
X11887262Y-12984667D02*
X11877738Y-12975143D01*
X11877738Y-12975143D02*
X11858691Y-12946571D01*
X11858691Y-12946571D02*
X11849167Y-12927524D01*
X11849167Y-12927524D02*
X11839643Y-12898952D01*
X11839643Y-12898952D02*
X11830119Y-12851333D01*
X11830119Y-12851333D02*
X11830119Y-12813238D01*
X11830119Y-12813238D02*
X11839643Y-12765619D01*
X11839643Y-12765619D02*
X11849167Y-12737048D01*
X11849167Y-12737048D02*
X11858691Y-12718000D01*
X11858691Y-12718000D02*
X11877738Y-12689428D01*
X11877738Y-12689428D02*
X11887262Y-12679905D01*
X11953929Y-12727524D02*
X11963452Y-12718000D01*
X11963452Y-12718000D02*
X11982500Y-12708476D01*
X11982500Y-12708476D02*
X12030119Y-12708476D01*
X12030119Y-12708476D02*
X12049167Y-12718000D01*
X12049167Y-12718000D02*
X12058691Y-12727524D01*
X12058691Y-12727524D02*
X12068214Y-12746571D01*
X12068214Y-12746571D02*
X12068214Y-12765619D01*
X12068214Y-12765619D02*
X12058691Y-12794190D01*
X12058691Y-12794190D02*
X11944405Y-12908476D01*
X11944405Y-12908476D02*
X12068214Y-12908476D01*
X12273929Y-12908476D02*
X12273929Y-12708476D01*
X12359643Y-12908476D02*
X12359643Y-12803714D01*
X12359643Y-12803714D02*
X12350119Y-12784667D01*
X12350119Y-12784667D02*
X12331072Y-12775143D01*
X12331072Y-12775143D02*
X12302500Y-12775143D01*
X12302500Y-12775143D02*
X12283452Y-12784667D01*
X12283452Y-12784667D02*
X12273929Y-12794190D01*
X12483452Y-12908476D02*
X12464405Y-12898952D01*
X12464405Y-12898952D02*
X12454881Y-12889428D01*
X12454881Y-12889428D02*
X12445357Y-12870381D01*
X12445357Y-12870381D02*
X12445357Y-12813238D01*
X12445357Y-12813238D02*
X12454881Y-12794190D01*
X12454881Y-12794190D02*
X12464405Y-12784667D01*
X12464405Y-12784667D02*
X12483452Y-12775143D01*
X12483452Y-12775143D02*
X12512024Y-12775143D01*
X12512024Y-12775143D02*
X12531072Y-12784667D01*
X12531072Y-12784667D02*
X12540595Y-12794190D01*
X12540595Y-12794190D02*
X12550119Y-12813238D01*
X12550119Y-12813238D02*
X12550119Y-12870381D01*
X12550119Y-12870381D02*
X12540595Y-12889428D01*
X12540595Y-12889428D02*
X12531072Y-12898952D01*
X12531072Y-12898952D02*
X12512024Y-12908476D01*
X12512024Y-12908476D02*
X12483452Y-12908476D01*
X12664405Y-12908476D02*
X12645357Y-12898952D01*
X12645357Y-12898952D02*
X12635833Y-12879905D01*
X12635833Y-12879905D02*
X12635833Y-12708476D01*
X12816786Y-12898952D02*
X12797738Y-12908476D01*
X12797738Y-12908476D02*
X12759643Y-12908476D01*
X12759643Y-12908476D02*
X12740595Y-12898952D01*
X12740595Y-12898952D02*
X12731072Y-12879905D01*
X12731072Y-12879905D02*
X12731072Y-12803714D01*
X12731072Y-12803714D02*
X12740595Y-12784667D01*
X12740595Y-12784667D02*
X12759643Y-12775143D01*
X12759643Y-12775143D02*
X12797738Y-12775143D01*
X12797738Y-12775143D02*
X12816786Y-12784667D01*
X12816786Y-12784667D02*
X12826310Y-12803714D01*
X12826310Y-12803714D02*
X12826310Y-12822762D01*
X12826310Y-12822762D02*
X12731072Y-12841809D01*
X12902500Y-12898952D02*
X12921548Y-12908476D01*
X12921548Y-12908476D02*
X12959643Y-12908476D01*
X12959643Y-12908476D02*
X12978691Y-12898952D01*
X12978691Y-12898952D02*
X12988214Y-12879905D01*
X12988214Y-12879905D02*
X12988214Y-12870381D01*
X12988214Y-12870381D02*
X12978691Y-12851333D01*
X12978691Y-12851333D02*
X12959643Y-12841809D01*
X12959643Y-12841809D02*
X12931072Y-12841809D01*
X12931072Y-12841809D02*
X12912024Y-12832286D01*
X12912024Y-12832286D02*
X12902500Y-12813238D01*
X12902500Y-12813238D02*
X12902500Y-12803714D01*
X12902500Y-12803714D02*
X12912024Y-12784667D01*
X12912024Y-12784667D02*
X12931072Y-12775143D01*
X12931072Y-12775143D02*
X12959643Y-12775143D01*
X12959643Y-12775143D02*
X12978691Y-12784667D01*
X13054881Y-12984667D02*
X13064405Y-12975143D01*
X13064405Y-12975143D02*
X13083453Y-12946571D01*
X13083453Y-12946571D02*
X13092976Y-12927524D01*
X13092976Y-12927524D02*
X13102500Y-12898952D01*
X13102500Y-12898952D02*
X13112024Y-12851333D01*
X13112024Y-12851333D02*
X13112024Y-12813238D01*
X13112024Y-12813238D02*
X13102500Y-12765619D01*
X13102500Y-12765619D02*
X13092976Y-12737048D01*
X13092976Y-12737048D02*
X13083453Y-12718000D01*
X13083453Y-12718000D02*
X13064405Y-12689428D01*
X13064405Y-12689428D02*
X13054881Y-12679905D01*
D10*
X8407856Y-13134356D02*
X8407856Y-13063644D01*
X8337144Y-13063644D01*
X8337144Y-13134356D01*
X8407856Y-13134356D01*
D11*
X8774881Y-13172476D02*
X8660595Y-13172476D01*
X8717738Y-13172476D02*
X8717738Y-12972476D01*
X8717738Y-12972476D02*
X8698690Y-13001048D01*
X8698690Y-13001048D02*
X8679643Y-13020095D01*
X8679643Y-13020095D02*
X8660595Y-13029619D01*
X8860595Y-13153428D02*
X8870119Y-13162952D01*
X8870119Y-13162952D02*
X8860595Y-13172476D01*
X8860595Y-13172476D02*
X8851071Y-13162952D01*
X8851071Y-13162952D02*
X8860595Y-13153428D01*
X8860595Y-13153428D02*
X8860595Y-13172476D01*
X8993929Y-12972476D02*
X9012976Y-12972476D01*
X9012976Y-12972476D02*
X9032024Y-12982000D01*
X9032024Y-12982000D02*
X9041548Y-12991524D01*
X9041548Y-12991524D02*
X9051071Y-13010571D01*
X9051071Y-13010571D02*
X9060595Y-13048667D01*
X9060595Y-13048667D02*
X9060595Y-13096286D01*
X9060595Y-13096286D02*
X9051071Y-13134381D01*
X9051071Y-13134381D02*
X9041548Y-13153428D01*
X9041548Y-13153428D02*
X9032024Y-13162952D01*
X9032024Y-13162952D02*
X9012976Y-13172476D01*
X9012976Y-13172476D02*
X8993929Y-13172476D01*
X8993929Y-13172476D02*
X8974881Y-13162952D01*
X8974881Y-13162952D02*
X8965357Y-13153428D01*
X8965357Y-13153428D02*
X8955833Y-13134381D01*
X8955833Y-13134381D02*
X8946310Y-13096286D01*
X8946310Y-13096286D02*
X8946310Y-13048667D01*
X8946310Y-13048667D02*
X8955833Y-13010571D01*
X8955833Y-13010571D02*
X8965357Y-12991524D01*
X8965357Y-12991524D02*
X8974881Y-12982000D01*
X8974881Y-12982000D02*
X8993929Y-12972476D01*
X9184405Y-12972476D02*
X9203452Y-12972476D01*
X9203452Y-12972476D02*
X9222500Y-12982000D01*
X9222500Y-12982000D02*
X9232024Y-12991524D01*
X9232024Y-12991524D02*
X9241548Y-13010571D01*
X9241548Y-13010571D02*
X9251071Y-13048667D01*
X9251071Y-13048667D02*
X9251071Y-13096286D01*
X9251071Y-13096286D02*
X9241548Y-13134381D01*
X9241548Y-13134381D02*
X9232024Y-13153428D01*
X9232024Y-13153428D02*
X9222500Y-13162952D01*
X9222500Y-13162952D02*
X9203452Y-13172476D01*
X9203452Y-13172476D02*
X9184405Y-13172476D01*
X9184405Y-13172476D02*
X9165357Y-13162952D01*
X9165357Y-13162952D02*
X9155833Y-13153428D01*
X9155833Y-13153428D02*
X9146310Y-13134381D01*
X9146310Y-13134381D02*
X9136786Y-13096286D01*
X9136786Y-13096286D02*
X9136786Y-13048667D01*
X9136786Y-13048667D02*
X9146310Y-13010571D01*
X9146310Y-13010571D02*
X9155833Y-12991524D01*
X9155833Y-12991524D02*
X9165357Y-12982000D01*
X9165357Y-12982000D02*
X9184405Y-12972476D01*
X9374881Y-12972476D02*
X9393929Y-12972476D01*
X9393929Y-12972476D02*
X9412976Y-12982000D01*
X9412976Y-12982000D02*
X9422500Y-12991524D01*
X9422500Y-12991524D02*
X9432024Y-13010571D01*
X9432024Y-13010571D02*
X9441548Y-13048667D01*
X9441548Y-13048667D02*
X9441548Y-13096286D01*
X9441548Y-13096286D02*
X9432024Y-13134381D01*
X9432024Y-13134381D02*
X9422500Y-13153428D01*
X9422500Y-13153428D02*
X9412976Y-13162952D01*
X9412976Y-13162952D02*
X9393929Y-13172476D01*
X9393929Y-13172476D02*
X9374881Y-13172476D01*
X9374881Y-13172476D02*
X9355833Y-13162952D01*
X9355833Y-13162952D02*
X9346310Y-13153428D01*
X9346310Y-13153428D02*
X9336786Y-13134381D01*
X9336786Y-13134381D02*
X9327262Y-13096286D01*
X9327262Y-13096286D02*
X9327262Y-13048667D01*
X9327262Y-13048667D02*
X9336786Y-13010571D01*
X9336786Y-13010571D02*
X9346310Y-12991524D01*
X9346310Y-12991524D02*
X9355833Y-12982000D01*
X9355833Y-12982000D02*
X9374881Y-12972476D01*
X9527262Y-13172476D02*
X9527262Y-13039143D01*
X9527262Y-13058190D02*
X9536786Y-13048667D01*
X9536786Y-13048667D02*
X9555833Y-13039143D01*
X9555833Y-13039143D02*
X9584405Y-13039143D01*
X9584405Y-13039143D02*
X9603452Y-13048667D01*
X9603452Y-13048667D02*
X9612976Y-13067714D01*
X9612976Y-13067714D02*
X9612976Y-13172476D01*
X9612976Y-13067714D02*
X9622500Y-13048667D01*
X9622500Y-13048667D02*
X9641548Y-13039143D01*
X9641548Y-13039143D02*
X9670119Y-13039143D01*
X9670119Y-13039143D02*
X9689167Y-13048667D01*
X9689167Y-13048667D02*
X9698691Y-13067714D01*
X9698691Y-13067714D02*
X9698691Y-13172476D01*
X9793929Y-13172476D02*
X9793929Y-13039143D01*
X9793929Y-13058190D02*
X9803452Y-13048667D01*
X9803452Y-13048667D02*
X9822500Y-13039143D01*
X9822500Y-13039143D02*
X9851072Y-13039143D01*
X9851072Y-13039143D02*
X9870119Y-13048667D01*
X9870119Y-13048667D02*
X9879643Y-13067714D01*
X9879643Y-13067714D02*
X9879643Y-13172476D01*
X9879643Y-13067714D02*
X9889167Y-13048667D01*
X9889167Y-13048667D02*
X9908214Y-13039143D01*
X9908214Y-13039143D02*
X9936786Y-13039143D01*
X9936786Y-13039143D02*
X9955833Y-13048667D01*
X9955833Y-13048667D02*
X9965357Y-13067714D01*
X9965357Y-13067714D02*
X9965357Y-13172476D01*
X10323452Y-12962952D02*
X10152024Y-13220095D01*
X10548214Y-12972476D02*
X10567262Y-12972476D01*
X10567262Y-12972476D02*
X10586310Y-12982000D01*
X10586310Y-12982000D02*
X10595833Y-12991524D01*
X10595833Y-12991524D02*
X10605357Y-13010571D01*
X10605357Y-13010571D02*
X10614881Y-13048667D01*
X10614881Y-13048667D02*
X10614881Y-13096286D01*
X10614881Y-13096286D02*
X10605357Y-13134381D01*
X10605357Y-13134381D02*
X10595833Y-13153428D01*
X10595833Y-13153428D02*
X10586310Y-13162952D01*
X10586310Y-13162952D02*
X10567262Y-13172476D01*
X10567262Y-13172476D02*
X10548214Y-13172476D01*
X10548214Y-13172476D02*
X10529167Y-13162952D01*
X10529167Y-13162952D02*
X10519643Y-13153428D01*
X10519643Y-13153428D02*
X10510119Y-13134381D01*
X10510119Y-13134381D02*
X10500595Y-13096286D01*
X10500595Y-13096286D02*
X10500595Y-13048667D01*
X10500595Y-13048667D02*
X10510119Y-13010571D01*
X10510119Y-13010571D02*
X10519643Y-12991524D01*
X10519643Y-12991524D02*
X10529167Y-12982000D01*
X10529167Y-12982000D02*
X10548214Y-12972476D01*
X10700595Y-13153428D02*
X10710119Y-13162952D01*
X10710119Y-13162952D02*
X10700595Y-13172476D01*
X10700595Y-13172476D02*
X10691072Y-13162952D01*
X10691072Y-13162952D02*
X10700595Y-13153428D01*
X10700595Y-13153428D02*
X10700595Y-13172476D01*
X10833929Y-12972476D02*
X10852976Y-12972476D01*
X10852976Y-12972476D02*
X10872024Y-12982000D01*
X10872024Y-12982000D02*
X10881548Y-12991524D01*
X10881548Y-12991524D02*
X10891072Y-13010571D01*
X10891072Y-13010571D02*
X10900595Y-13048667D01*
X10900595Y-13048667D02*
X10900595Y-13096286D01*
X10900595Y-13096286D02*
X10891072Y-13134381D01*
X10891072Y-13134381D02*
X10881548Y-13153428D01*
X10881548Y-13153428D02*
X10872024Y-13162952D01*
X10872024Y-13162952D02*
X10852976Y-13172476D01*
X10852976Y-13172476D02*
X10833929Y-13172476D01*
X10833929Y-13172476D02*
X10814881Y-13162952D01*
X10814881Y-13162952D02*
X10805357Y-13153428D01*
X10805357Y-13153428D02*
X10795833Y-13134381D01*
X10795833Y-13134381D02*
X10786310Y-13096286D01*
X10786310Y-13096286D02*
X10786310Y-13048667D01*
X10786310Y-13048667D02*
X10795833Y-13010571D01*
X10795833Y-13010571D02*
X10805357Y-12991524D01*
X10805357Y-12991524D02*
X10814881Y-12982000D01*
X10814881Y-12982000D02*
X10833929Y-12972476D01*
X10967262Y-12972476D02*
X11091072Y-12972476D01*
X11091072Y-12972476D02*
X11024405Y-13048667D01*
X11024405Y-13048667D02*
X11052976Y-13048667D01*
X11052976Y-13048667D02*
X11072024Y-13058190D01*
X11072024Y-13058190D02*
X11081548Y-13067714D01*
X11081548Y-13067714D02*
X11091072Y-13086762D01*
X11091072Y-13086762D02*
X11091072Y-13134381D01*
X11091072Y-13134381D02*
X11081548Y-13153428D01*
X11081548Y-13153428D02*
X11072024Y-13162952D01*
X11072024Y-13162952D02*
X11052976Y-13172476D01*
X11052976Y-13172476D02*
X10995833Y-13172476D01*
X10995833Y-13172476D02*
X10976786Y-13162952D01*
X10976786Y-13162952D02*
X10967262Y-13153428D01*
X11186310Y-13172476D02*
X11224405Y-13172476D01*
X11224405Y-13172476D02*
X11243452Y-13162952D01*
X11243452Y-13162952D02*
X11252976Y-13153428D01*
X11252976Y-13153428D02*
X11272024Y-13124857D01*
X11272024Y-13124857D02*
X11281548Y-13086762D01*
X11281548Y-13086762D02*
X11281548Y-13010571D01*
X11281548Y-13010571D02*
X11272024Y-12991524D01*
X11272024Y-12991524D02*
X11262500Y-12982000D01*
X11262500Y-12982000D02*
X11243452Y-12972476D01*
X11243452Y-12972476D02*
X11205357Y-12972476D01*
X11205357Y-12972476D02*
X11186310Y-12982000D01*
X11186310Y-12982000D02*
X11176786Y-12991524D01*
X11176786Y-12991524D02*
X11167262Y-13010571D01*
X11167262Y-13010571D02*
X11167262Y-13058190D01*
X11167262Y-13058190D02*
X11176786Y-13077238D01*
X11176786Y-13077238D02*
X11186310Y-13086762D01*
X11186310Y-13086762D02*
X11205357Y-13096286D01*
X11205357Y-13096286D02*
X11243452Y-13096286D01*
X11243452Y-13096286D02*
X11262500Y-13086762D01*
X11262500Y-13086762D02*
X11272024Y-13077238D01*
X11272024Y-13077238D02*
X11281548Y-13058190D01*
X11452976Y-13039143D02*
X11452976Y-13172476D01*
X11405357Y-12962952D02*
X11357738Y-13105809D01*
X11357738Y-13105809D02*
X11481548Y-13105809D01*
X11548214Y-12972476D02*
X11548214Y-13010571D01*
X11624405Y-12972476D02*
X11624405Y-13010571D01*
X11887262Y-13248667D02*
X11877738Y-13239143D01*
X11877738Y-13239143D02*
X11858691Y-13210571D01*
X11858691Y-13210571D02*
X11849167Y-13191524D01*
X11849167Y-13191524D02*
X11839643Y-13162952D01*
X11839643Y-13162952D02*
X11830119Y-13115333D01*
X11830119Y-13115333D02*
X11830119Y-13077238D01*
X11830119Y-13077238D02*
X11839643Y-13029619D01*
X11839643Y-13029619D02*
X11849167Y-13001048D01*
X11849167Y-13001048D02*
X11858691Y-12982000D01*
X11858691Y-12982000D02*
X11877738Y-12953428D01*
X11877738Y-12953428D02*
X11887262Y-12943905D01*
X11944405Y-12972476D02*
X12068214Y-12972476D01*
X12068214Y-12972476D02*
X12001548Y-13048667D01*
X12001548Y-13048667D02*
X12030119Y-13048667D01*
X12030119Y-13048667D02*
X12049167Y-13058190D01*
X12049167Y-13058190D02*
X12058691Y-13067714D01*
X12058691Y-13067714D02*
X12068214Y-13086762D01*
X12068214Y-13086762D02*
X12068214Y-13134381D01*
X12068214Y-13134381D02*
X12058691Y-13153428D01*
X12058691Y-13153428D02*
X12049167Y-13162952D01*
X12049167Y-13162952D02*
X12030119Y-13172476D01*
X12030119Y-13172476D02*
X11972976Y-13172476D01*
X11972976Y-13172476D02*
X11953929Y-13162952D01*
X11953929Y-13162952D02*
X11944405Y-13153428D01*
X12258691Y-13172476D02*
X12144405Y-13172476D01*
X12201548Y-13172476D02*
X12201548Y-12972476D01*
X12201548Y-12972476D02*
X12182500Y-13001048D01*
X12182500Y-13001048D02*
X12163452Y-13020095D01*
X12163452Y-13020095D02*
X12144405Y-13029619D01*
X12464405Y-13172476D02*
X12464405Y-12972476D01*
X12550119Y-13172476D02*
X12550119Y-13067714D01*
X12550119Y-13067714D02*
X12540595Y-13048667D01*
X12540595Y-13048667D02*
X12521548Y-13039143D01*
X12521548Y-13039143D02*
X12492976Y-13039143D01*
X12492976Y-13039143D02*
X12473929Y-13048667D01*
X12473929Y-13048667D02*
X12464405Y-13058190D01*
X12673929Y-13172476D02*
X12654881Y-13162952D01*
X12654881Y-13162952D02*
X12645357Y-13153428D01*
X12645357Y-13153428D02*
X12635833Y-13134381D01*
X12635833Y-13134381D02*
X12635833Y-13077238D01*
X12635833Y-13077238D02*
X12645357Y-13058190D01*
X12645357Y-13058190D02*
X12654881Y-13048667D01*
X12654881Y-13048667D02*
X12673929Y-13039143D01*
X12673929Y-13039143D02*
X12702500Y-13039143D01*
X12702500Y-13039143D02*
X12721548Y-13048667D01*
X12721548Y-13048667D02*
X12731072Y-13058190D01*
X12731072Y-13058190D02*
X12740595Y-13077238D01*
X12740595Y-13077238D02*
X12740595Y-13134381D01*
X12740595Y-13134381D02*
X12731072Y-13153428D01*
X12731072Y-13153428D02*
X12721548Y-13162952D01*
X12721548Y-13162952D02*
X12702500Y-13172476D01*
X12702500Y-13172476D02*
X12673929Y-13172476D01*
X12854881Y-13172476D02*
X12835833Y-13162952D01*
X12835833Y-13162952D02*
X12826310Y-13143905D01*
X12826310Y-13143905D02*
X12826310Y-12972476D01*
X13007262Y-13162952D02*
X12988214Y-13172476D01*
X12988214Y-13172476D02*
X12950119Y-13172476D01*
X12950119Y-13172476D02*
X12931072Y-13162952D01*
X12931072Y-13162952D02*
X12921548Y-13143905D01*
X12921548Y-13143905D02*
X12921548Y-13067714D01*
X12921548Y-13067714D02*
X12931072Y-13048667D01*
X12931072Y-13048667D02*
X12950119Y-13039143D01*
X12950119Y-13039143D02*
X12988214Y-13039143D01*
X12988214Y-13039143D02*
X13007262Y-13048667D01*
X13007262Y-13048667D02*
X13016786Y-13067714D01*
X13016786Y-13067714D02*
X13016786Y-13086762D01*
X13016786Y-13086762D02*
X12921548Y-13105809D01*
X13092976Y-13162952D02*
X13112024Y-13172476D01*
X13112024Y-13172476D02*
X13150119Y-13172476D01*
X13150119Y-13172476D02*
X13169167Y-13162952D01*
X13169167Y-13162952D02*
X13178691Y-13143905D01*
X13178691Y-13143905D02*
X13178691Y-13134381D01*
X13178691Y-13134381D02*
X13169167Y-13115333D01*
X13169167Y-13115333D02*
X13150119Y-13105809D01*
X13150119Y-13105809D02*
X13121548Y-13105809D01*
X13121548Y-13105809D02*
X13102500Y-13096286D01*
X13102500Y-13096286D02*
X13092976Y-13077238D01*
X13092976Y-13077238D02*
X13092976Y-13067714D01*
X13092976Y-13067714D02*
X13102500Y-13048667D01*
X13102500Y-13048667D02*
X13121548Y-13039143D01*
X13121548Y-13039143D02*
X13150119Y-13039143D01*
X13150119Y-13039143D02*
X13169167Y-13048667D01*
X13384405Y-13096286D02*
X13536786Y-13096286D01*
X13460595Y-13172476D02*
X13460595Y-13020095D01*
X13732976Y-12972476D02*
X13856786Y-12972476D01*
X13856786Y-12972476D02*
X13790119Y-13048667D01*
X13790119Y-13048667D02*
X13818691Y-13048667D01*
X13818691Y-13048667D02*
X13837738Y-13058190D01*
X13837738Y-13058190D02*
X13847262Y-13067714D01*
X13847262Y-13067714D02*
X13856786Y-13086762D01*
X13856786Y-13086762D02*
X13856786Y-13134381D01*
X13856786Y-13134381D02*
X13847262Y-13153428D01*
X13847262Y-13153428D02*
X13837738Y-13162952D01*
X13837738Y-13162952D02*
X13818691Y-13172476D01*
X13818691Y-13172476D02*
X13761548Y-13172476D01*
X13761548Y-13172476D02*
X13742500Y-13162952D01*
X13742500Y-13162952D02*
X13732976Y-13153428D01*
X14052976Y-13162952D02*
X14072024Y-13172476D01*
X14072024Y-13172476D02*
X14110119Y-13172476D01*
X14110119Y-13172476D02*
X14129167Y-13162952D01*
X14129167Y-13162952D02*
X14138691Y-13143905D01*
X14138691Y-13143905D02*
X14138691Y-13134381D01*
X14138691Y-13134381D02*
X14129167Y-13115333D01*
X14129167Y-13115333D02*
X14110119Y-13105809D01*
X14110119Y-13105809D02*
X14081548Y-13105809D01*
X14081548Y-13105809D02*
X14062500Y-13096286D01*
X14062500Y-13096286D02*
X14052976Y-13077238D01*
X14052976Y-13077238D02*
X14052976Y-13067714D01*
X14052976Y-13067714D02*
X14062500Y-13048667D01*
X14062500Y-13048667D02*
X14081548Y-13039143D01*
X14081548Y-13039143D02*
X14110119Y-13039143D01*
X14110119Y-13039143D02*
X14129167Y-13048667D01*
X14252976Y-13172476D02*
X14233929Y-13162952D01*
X14233929Y-13162952D02*
X14224405Y-13143905D01*
X14224405Y-13143905D02*
X14224405Y-12972476D01*
X14357738Y-13172476D02*
X14338691Y-13162952D01*
X14338691Y-13162952D02*
X14329167Y-13153428D01*
X14329167Y-13153428D02*
X14319643Y-13134381D01*
X14319643Y-13134381D02*
X14319643Y-13077238D01*
X14319643Y-13077238D02*
X14329167Y-13058190D01*
X14329167Y-13058190D02*
X14338691Y-13048667D01*
X14338691Y-13048667D02*
X14357738Y-13039143D01*
X14357738Y-13039143D02*
X14386310Y-13039143D01*
X14386310Y-13039143D02*
X14405357Y-13048667D01*
X14405357Y-13048667D02*
X14414881Y-13058190D01*
X14414881Y-13058190D02*
X14424405Y-13077238D01*
X14424405Y-13077238D02*
X14424405Y-13134381D01*
X14424405Y-13134381D02*
X14414881Y-13153428D01*
X14414881Y-13153428D02*
X14405357Y-13162952D01*
X14405357Y-13162952D02*
X14386310Y-13172476D01*
X14386310Y-13172476D02*
X14357738Y-13172476D01*
X14481548Y-13039143D02*
X14557738Y-13039143D01*
X14510119Y-12972476D02*
X14510119Y-13143905D01*
X14510119Y-13143905D02*
X14519643Y-13162952D01*
X14519643Y-13162952D02*
X14538691Y-13172476D01*
X14538691Y-13172476D02*
X14557738Y-13172476D01*
X14614881Y-13162952D02*
X14633929Y-13172476D01*
X14633929Y-13172476D02*
X14672024Y-13172476D01*
X14672024Y-13172476D02*
X14691072Y-13162952D01*
X14691072Y-13162952D02*
X14700595Y-13143905D01*
X14700595Y-13143905D02*
X14700595Y-13134381D01*
X14700595Y-13134381D02*
X14691072Y-13115333D01*
X14691072Y-13115333D02*
X14672024Y-13105809D01*
X14672024Y-13105809D02*
X14643453Y-13105809D01*
X14643453Y-13105809D02*
X14624405Y-13096286D01*
X14624405Y-13096286D02*
X14614881Y-13077238D01*
X14614881Y-13077238D02*
X14614881Y-13067714D01*
X14614881Y-13067714D02*
X14624405Y-13048667D01*
X14624405Y-13048667D02*
X14643453Y-13039143D01*
X14643453Y-13039143D02*
X14672024Y-13039143D01*
X14672024Y-13039143D02*
X14691072Y-13048667D01*
X14767262Y-13248667D02*
X14776786Y-13239143D01*
X14776786Y-13239143D02*
X14795834Y-13210571D01*
X14795834Y-13210571D02*
X14805357Y-13191524D01*
X14805357Y-13191524D02*
X14814881Y-13162952D01*
X14814881Y-13162952D02*
X14824405Y-13115333D01*
X14824405Y-13115333D02*
X14824405Y-13077238D01*
X14824405Y-13077238D02*
X14814881Y-13029619D01*
X14814881Y-13029619D02*
X14805357Y-13001048D01*
X14805357Y-13001048D02*
X14795834Y-12982000D01*
X14795834Y-12982000D02*
X14776786Y-12953428D01*
X14776786Y-12953428D02*
X14767262Y-12943905D01*
D15*
X8362500Y-13423000D02*
X8422500Y-13363000D01*
X8362500Y-13303000D01*
X8302500Y-13363000D01*
X8362500Y-13423000D01*
D11*
X8774881Y-13436476D02*
X8660595Y-13436476D01*
X8717738Y-13436476D02*
X8717738Y-13236476D01*
X8717738Y-13236476D02*
X8698690Y-13265048D01*
X8698690Y-13265048D02*
X8679643Y-13284095D01*
X8679643Y-13284095D02*
X8660595Y-13293619D01*
X8860595Y-13417428D02*
X8870119Y-13426952D01*
X8870119Y-13426952D02*
X8860595Y-13436476D01*
X8860595Y-13436476D02*
X8851071Y-13426952D01*
X8851071Y-13426952D02*
X8860595Y-13417428D01*
X8860595Y-13417428D02*
X8860595Y-13436476D01*
X8946310Y-13255524D02*
X8955833Y-13246000D01*
X8955833Y-13246000D02*
X8974881Y-13236476D01*
X8974881Y-13236476D02*
X9022500Y-13236476D01*
X9022500Y-13236476D02*
X9041548Y-13246000D01*
X9041548Y-13246000D02*
X9051071Y-13255524D01*
X9051071Y-13255524D02*
X9060595Y-13274571D01*
X9060595Y-13274571D02*
X9060595Y-13293619D01*
X9060595Y-13293619D02*
X9051071Y-13322190D01*
X9051071Y-13322190D02*
X8936786Y-13436476D01*
X8936786Y-13436476D02*
X9060595Y-13436476D01*
X9184405Y-13236476D02*
X9203452Y-13236476D01*
X9203452Y-13236476D02*
X9222500Y-13246000D01*
X9222500Y-13246000D02*
X9232024Y-13255524D01*
X9232024Y-13255524D02*
X9241548Y-13274571D01*
X9241548Y-13274571D02*
X9251071Y-13312667D01*
X9251071Y-13312667D02*
X9251071Y-13360286D01*
X9251071Y-13360286D02*
X9241548Y-13398381D01*
X9241548Y-13398381D02*
X9232024Y-13417428D01*
X9232024Y-13417428D02*
X9222500Y-13426952D01*
X9222500Y-13426952D02*
X9203452Y-13436476D01*
X9203452Y-13436476D02*
X9184405Y-13436476D01*
X9184405Y-13436476D02*
X9165357Y-13426952D01*
X9165357Y-13426952D02*
X9155833Y-13417428D01*
X9155833Y-13417428D02*
X9146310Y-13398381D01*
X9146310Y-13398381D02*
X9136786Y-13360286D01*
X9136786Y-13360286D02*
X9136786Y-13312667D01*
X9136786Y-13312667D02*
X9146310Y-13274571D01*
X9146310Y-13274571D02*
X9155833Y-13255524D01*
X9155833Y-13255524D02*
X9165357Y-13246000D01*
X9165357Y-13246000D02*
X9184405Y-13236476D01*
X9374881Y-13236476D02*
X9393929Y-13236476D01*
X9393929Y-13236476D02*
X9412976Y-13246000D01*
X9412976Y-13246000D02*
X9422500Y-13255524D01*
X9422500Y-13255524D02*
X9432024Y-13274571D01*
X9432024Y-13274571D02*
X9441548Y-13312667D01*
X9441548Y-13312667D02*
X9441548Y-13360286D01*
X9441548Y-13360286D02*
X9432024Y-13398381D01*
X9432024Y-13398381D02*
X9422500Y-13417428D01*
X9422500Y-13417428D02*
X9412976Y-13426952D01*
X9412976Y-13426952D02*
X9393929Y-13436476D01*
X9393929Y-13436476D02*
X9374881Y-13436476D01*
X9374881Y-13436476D02*
X9355833Y-13426952D01*
X9355833Y-13426952D02*
X9346310Y-13417428D01*
X9346310Y-13417428D02*
X9336786Y-13398381D01*
X9336786Y-13398381D02*
X9327262Y-13360286D01*
X9327262Y-13360286D02*
X9327262Y-13312667D01*
X9327262Y-13312667D02*
X9336786Y-13274571D01*
X9336786Y-13274571D02*
X9346310Y-13255524D01*
X9346310Y-13255524D02*
X9355833Y-13246000D01*
X9355833Y-13246000D02*
X9374881Y-13236476D01*
X9527262Y-13436476D02*
X9527262Y-13303143D01*
X9527262Y-13322190D02*
X9536786Y-13312667D01*
X9536786Y-13312667D02*
X9555833Y-13303143D01*
X9555833Y-13303143D02*
X9584405Y-13303143D01*
X9584405Y-13303143D02*
X9603452Y-13312667D01*
X9603452Y-13312667D02*
X9612976Y-13331714D01*
X9612976Y-13331714D02*
X9612976Y-13436476D01*
X9612976Y-13331714D02*
X9622500Y-13312667D01*
X9622500Y-13312667D02*
X9641548Y-13303143D01*
X9641548Y-13303143D02*
X9670119Y-13303143D01*
X9670119Y-13303143D02*
X9689167Y-13312667D01*
X9689167Y-13312667D02*
X9698691Y-13331714D01*
X9698691Y-13331714D02*
X9698691Y-13436476D01*
X9793929Y-13436476D02*
X9793929Y-13303143D01*
X9793929Y-13322190D02*
X9803452Y-13312667D01*
X9803452Y-13312667D02*
X9822500Y-13303143D01*
X9822500Y-13303143D02*
X9851072Y-13303143D01*
X9851072Y-13303143D02*
X9870119Y-13312667D01*
X9870119Y-13312667D02*
X9879643Y-13331714D01*
X9879643Y-13331714D02*
X9879643Y-13436476D01*
X9879643Y-13331714D02*
X9889167Y-13312667D01*
X9889167Y-13312667D02*
X9908214Y-13303143D01*
X9908214Y-13303143D02*
X9936786Y-13303143D01*
X9936786Y-13303143D02*
X9955833Y-13312667D01*
X9955833Y-13312667D02*
X9965357Y-13331714D01*
X9965357Y-13331714D02*
X9965357Y-13436476D01*
X10323452Y-13226952D02*
X10152024Y-13484095D01*
X10548214Y-13236476D02*
X10567262Y-13236476D01*
X10567262Y-13236476D02*
X10586310Y-13246000D01*
X10586310Y-13246000D02*
X10595833Y-13255524D01*
X10595833Y-13255524D02*
X10605357Y-13274571D01*
X10605357Y-13274571D02*
X10614881Y-13312667D01*
X10614881Y-13312667D02*
X10614881Y-13360286D01*
X10614881Y-13360286D02*
X10605357Y-13398381D01*
X10605357Y-13398381D02*
X10595833Y-13417428D01*
X10595833Y-13417428D02*
X10586310Y-13426952D01*
X10586310Y-13426952D02*
X10567262Y-13436476D01*
X10567262Y-13436476D02*
X10548214Y-13436476D01*
X10548214Y-13436476D02*
X10529167Y-13426952D01*
X10529167Y-13426952D02*
X10519643Y-13417428D01*
X10519643Y-13417428D02*
X10510119Y-13398381D01*
X10510119Y-13398381D02*
X10500595Y-13360286D01*
X10500595Y-13360286D02*
X10500595Y-13312667D01*
X10500595Y-13312667D02*
X10510119Y-13274571D01*
X10510119Y-13274571D02*
X10519643Y-13255524D01*
X10519643Y-13255524D02*
X10529167Y-13246000D01*
X10529167Y-13246000D02*
X10548214Y-13236476D01*
X10700595Y-13417428D02*
X10710119Y-13426952D01*
X10710119Y-13426952D02*
X10700595Y-13436476D01*
X10700595Y-13436476D02*
X10691072Y-13426952D01*
X10691072Y-13426952D02*
X10700595Y-13417428D01*
X10700595Y-13417428D02*
X10700595Y-13436476D01*
X10833929Y-13236476D02*
X10852976Y-13236476D01*
X10852976Y-13236476D02*
X10872024Y-13246000D01*
X10872024Y-13246000D02*
X10881548Y-13255524D01*
X10881548Y-13255524D02*
X10891072Y-13274571D01*
X10891072Y-13274571D02*
X10900595Y-13312667D01*
X10900595Y-13312667D02*
X10900595Y-13360286D01*
X10900595Y-13360286D02*
X10891072Y-13398381D01*
X10891072Y-13398381D02*
X10881548Y-13417428D01*
X10881548Y-13417428D02*
X10872024Y-13426952D01*
X10872024Y-13426952D02*
X10852976Y-13436476D01*
X10852976Y-13436476D02*
X10833929Y-13436476D01*
X10833929Y-13436476D02*
X10814881Y-13426952D01*
X10814881Y-13426952D02*
X10805357Y-13417428D01*
X10805357Y-13417428D02*
X10795833Y-13398381D01*
X10795833Y-13398381D02*
X10786310Y-13360286D01*
X10786310Y-13360286D02*
X10786310Y-13312667D01*
X10786310Y-13312667D02*
X10795833Y-13274571D01*
X10795833Y-13274571D02*
X10805357Y-13255524D01*
X10805357Y-13255524D02*
X10814881Y-13246000D01*
X10814881Y-13246000D02*
X10833929Y-13236476D01*
X11072024Y-13303143D02*
X11072024Y-13436476D01*
X11024405Y-13226952D02*
X10976786Y-13369809D01*
X10976786Y-13369809D02*
X11100595Y-13369809D01*
X11157738Y-13236476D02*
X11291071Y-13236476D01*
X11291071Y-13236476D02*
X11205357Y-13436476D01*
X11357738Y-13255524D02*
X11367262Y-13246000D01*
X11367262Y-13246000D02*
X11386310Y-13236476D01*
X11386310Y-13236476D02*
X11433929Y-13236476D01*
X11433929Y-13236476D02*
X11452976Y-13246000D01*
X11452976Y-13246000D02*
X11462500Y-13255524D01*
X11462500Y-13255524D02*
X11472024Y-13274571D01*
X11472024Y-13274571D02*
X11472024Y-13293619D01*
X11472024Y-13293619D02*
X11462500Y-13322190D01*
X11462500Y-13322190D02*
X11348214Y-13436476D01*
X11348214Y-13436476D02*
X11472024Y-13436476D01*
X11548214Y-13236476D02*
X11548214Y-13274571D01*
X11624405Y-13236476D02*
X11624405Y-13274571D01*
X11887262Y-13512667D02*
X11877738Y-13503143D01*
X11877738Y-13503143D02*
X11858691Y-13474571D01*
X11858691Y-13474571D02*
X11849167Y-13455524D01*
X11849167Y-13455524D02*
X11839643Y-13426952D01*
X11839643Y-13426952D02*
X11830119Y-13379333D01*
X11830119Y-13379333D02*
X11830119Y-13341238D01*
X11830119Y-13341238D02*
X11839643Y-13293619D01*
X11839643Y-13293619D02*
X11849167Y-13265048D01*
X11849167Y-13265048D02*
X11858691Y-13246000D01*
X11858691Y-13246000D02*
X11877738Y-13217428D01*
X11877738Y-13217428D02*
X11887262Y-13207905D01*
X11953929Y-13255524D02*
X11963452Y-13246000D01*
X11963452Y-13246000D02*
X11982500Y-13236476D01*
X11982500Y-13236476D02*
X12030119Y-13236476D01*
X12030119Y-13236476D02*
X12049167Y-13246000D01*
X12049167Y-13246000D02*
X12058691Y-13255524D01*
X12058691Y-13255524D02*
X12068214Y-13274571D01*
X12068214Y-13274571D02*
X12068214Y-13293619D01*
X12068214Y-13293619D02*
X12058691Y-13322190D01*
X12058691Y-13322190D02*
X11944405Y-13436476D01*
X11944405Y-13436476D02*
X12068214Y-13436476D01*
X12273929Y-13436476D02*
X12273929Y-13236476D01*
X12359643Y-13436476D02*
X12359643Y-13331714D01*
X12359643Y-13331714D02*
X12350119Y-13312667D01*
X12350119Y-13312667D02*
X12331072Y-13303143D01*
X12331072Y-13303143D02*
X12302500Y-13303143D01*
X12302500Y-13303143D02*
X12283452Y-13312667D01*
X12283452Y-13312667D02*
X12273929Y-13322190D01*
X12483452Y-13436476D02*
X12464405Y-13426952D01*
X12464405Y-13426952D02*
X12454881Y-13417428D01*
X12454881Y-13417428D02*
X12445357Y-13398381D01*
X12445357Y-13398381D02*
X12445357Y-13341238D01*
X12445357Y-13341238D02*
X12454881Y-13322190D01*
X12454881Y-13322190D02*
X12464405Y-13312667D01*
X12464405Y-13312667D02*
X12483452Y-13303143D01*
X12483452Y-13303143D02*
X12512024Y-13303143D01*
X12512024Y-13303143D02*
X12531072Y-13312667D01*
X12531072Y-13312667D02*
X12540595Y-13322190D01*
X12540595Y-13322190D02*
X12550119Y-13341238D01*
X12550119Y-13341238D02*
X12550119Y-13398381D01*
X12550119Y-13398381D02*
X12540595Y-13417428D01*
X12540595Y-13417428D02*
X12531072Y-13426952D01*
X12531072Y-13426952D02*
X12512024Y-13436476D01*
X12512024Y-13436476D02*
X12483452Y-13436476D01*
X12664405Y-13436476D02*
X12645357Y-13426952D01*
X12645357Y-13426952D02*
X12635833Y-13407905D01*
X12635833Y-13407905D02*
X12635833Y-13236476D01*
X12816786Y-13426952D02*
X12797738Y-13436476D01*
X12797738Y-13436476D02*
X12759643Y-13436476D01*
X12759643Y-13436476D02*
X12740595Y-13426952D01*
X12740595Y-13426952D02*
X12731072Y-13407905D01*
X12731072Y-13407905D02*
X12731072Y-13331714D01*
X12731072Y-13331714D02*
X12740595Y-13312667D01*
X12740595Y-13312667D02*
X12759643Y-13303143D01*
X12759643Y-13303143D02*
X12797738Y-13303143D01*
X12797738Y-13303143D02*
X12816786Y-13312667D01*
X12816786Y-13312667D02*
X12826310Y-13331714D01*
X12826310Y-13331714D02*
X12826310Y-13350762D01*
X12826310Y-13350762D02*
X12731072Y-13369809D01*
X12902500Y-13426952D02*
X12921548Y-13436476D01*
X12921548Y-13436476D02*
X12959643Y-13436476D01*
X12959643Y-13436476D02*
X12978691Y-13426952D01*
X12978691Y-13426952D02*
X12988214Y-13407905D01*
X12988214Y-13407905D02*
X12988214Y-13398381D01*
X12988214Y-13398381D02*
X12978691Y-13379333D01*
X12978691Y-13379333D02*
X12959643Y-13369809D01*
X12959643Y-13369809D02*
X12931072Y-13369809D01*
X12931072Y-13369809D02*
X12912024Y-13360286D01*
X12912024Y-13360286D02*
X12902500Y-13341238D01*
X12902500Y-13341238D02*
X12902500Y-13331714D01*
X12902500Y-13331714D02*
X12912024Y-13312667D01*
X12912024Y-13312667D02*
X12931072Y-13303143D01*
X12931072Y-13303143D02*
X12959643Y-13303143D01*
X12959643Y-13303143D02*
X12978691Y-13312667D01*
X13054881Y-13512667D02*
X13064405Y-13503143D01*
X13064405Y-13503143D02*
X13083453Y-13474571D01*
X13083453Y-13474571D02*
X13092976Y-13455524D01*
X13092976Y-13455524D02*
X13102500Y-13426952D01*
X13102500Y-13426952D02*
X13112024Y-13379333D01*
X13112024Y-13379333D02*
X13112024Y-13341238D01*
X13112024Y-13341238D02*
X13102500Y-13293619D01*
X13102500Y-13293619D02*
X13092976Y-13265048D01*
X13092976Y-13265048D02*
X13083453Y-13246000D01*
X13083453Y-13246000D02*
X13064405Y-13217428D01*
X13064405Y-13217428D02*
X13054881Y-13207905D01*
D16*
X8272500Y-13552000D02*
X8422500Y-13702000D01*
X8422500Y-13552000D02*
X8272500Y-13702000D01*
X8422500Y-13627000D02*
G75*
G03*
X8422500Y-13627000I-75000J0D01*
G01*
D11*
X8774881Y-13700476D02*
X8660595Y-13700476D01*
X8717738Y-13700476D02*
X8717738Y-13500476D01*
X8717738Y-13500476D02*
X8698690Y-13529048D01*
X8698690Y-13529048D02*
X8679643Y-13548095D01*
X8679643Y-13548095D02*
X8660595Y-13557619D01*
X8860595Y-13681428D02*
X8870119Y-13690952D01*
X8870119Y-13690952D02*
X8860595Y-13700476D01*
X8860595Y-13700476D02*
X8851071Y-13690952D01*
X8851071Y-13690952D02*
X8860595Y-13681428D01*
X8860595Y-13681428D02*
X8860595Y-13700476D01*
X9051071Y-13500476D02*
X8955833Y-13500476D01*
X8955833Y-13500476D02*
X8946310Y-13595714D01*
X8946310Y-13595714D02*
X8955833Y-13586190D01*
X8955833Y-13586190D02*
X8974881Y-13576667D01*
X8974881Y-13576667D02*
X9022500Y-13576667D01*
X9022500Y-13576667D02*
X9041548Y-13586190D01*
X9041548Y-13586190D02*
X9051071Y-13595714D01*
X9051071Y-13595714D02*
X9060595Y-13614762D01*
X9060595Y-13614762D02*
X9060595Y-13662381D01*
X9060595Y-13662381D02*
X9051071Y-13681428D01*
X9051071Y-13681428D02*
X9041548Y-13690952D01*
X9041548Y-13690952D02*
X9022500Y-13700476D01*
X9022500Y-13700476D02*
X8974881Y-13700476D01*
X8974881Y-13700476D02*
X8955833Y-13690952D01*
X8955833Y-13690952D02*
X8946310Y-13681428D01*
X9184405Y-13500476D02*
X9203452Y-13500476D01*
X9203452Y-13500476D02*
X9222500Y-13510000D01*
X9222500Y-13510000D02*
X9232024Y-13519524D01*
X9232024Y-13519524D02*
X9241548Y-13538571D01*
X9241548Y-13538571D02*
X9251071Y-13576667D01*
X9251071Y-13576667D02*
X9251071Y-13624286D01*
X9251071Y-13624286D02*
X9241548Y-13662381D01*
X9241548Y-13662381D02*
X9232024Y-13681428D01*
X9232024Y-13681428D02*
X9222500Y-13690952D01*
X9222500Y-13690952D02*
X9203452Y-13700476D01*
X9203452Y-13700476D02*
X9184405Y-13700476D01*
X9184405Y-13700476D02*
X9165357Y-13690952D01*
X9165357Y-13690952D02*
X9155833Y-13681428D01*
X9155833Y-13681428D02*
X9146310Y-13662381D01*
X9146310Y-13662381D02*
X9136786Y-13624286D01*
X9136786Y-13624286D02*
X9136786Y-13576667D01*
X9136786Y-13576667D02*
X9146310Y-13538571D01*
X9146310Y-13538571D02*
X9155833Y-13519524D01*
X9155833Y-13519524D02*
X9165357Y-13510000D01*
X9165357Y-13510000D02*
X9184405Y-13500476D01*
X9374881Y-13500476D02*
X9393929Y-13500476D01*
X9393929Y-13500476D02*
X9412976Y-13510000D01*
X9412976Y-13510000D02*
X9422500Y-13519524D01*
X9422500Y-13519524D02*
X9432024Y-13538571D01*
X9432024Y-13538571D02*
X9441548Y-13576667D01*
X9441548Y-13576667D02*
X9441548Y-13624286D01*
X9441548Y-13624286D02*
X9432024Y-13662381D01*
X9432024Y-13662381D02*
X9422500Y-13681428D01*
X9422500Y-13681428D02*
X9412976Y-13690952D01*
X9412976Y-13690952D02*
X9393929Y-13700476D01*
X9393929Y-13700476D02*
X9374881Y-13700476D01*
X9374881Y-13700476D02*
X9355833Y-13690952D01*
X9355833Y-13690952D02*
X9346310Y-13681428D01*
X9346310Y-13681428D02*
X9336786Y-13662381D01*
X9336786Y-13662381D02*
X9327262Y-13624286D01*
X9327262Y-13624286D02*
X9327262Y-13576667D01*
X9327262Y-13576667D02*
X9336786Y-13538571D01*
X9336786Y-13538571D02*
X9346310Y-13519524D01*
X9346310Y-13519524D02*
X9355833Y-13510000D01*
X9355833Y-13510000D02*
X9374881Y-13500476D01*
X9527262Y-13700476D02*
X9527262Y-13567143D01*
X9527262Y-13586190D02*
X9536786Y-13576667D01*
X9536786Y-13576667D02*
X9555833Y-13567143D01*
X9555833Y-13567143D02*
X9584405Y-13567143D01*
X9584405Y-13567143D02*
X9603452Y-13576667D01*
X9603452Y-13576667D02*
X9612976Y-13595714D01*
X9612976Y-13595714D02*
X9612976Y-13700476D01*
X9612976Y-13595714D02*
X9622500Y-13576667D01*
X9622500Y-13576667D02*
X9641548Y-13567143D01*
X9641548Y-13567143D02*
X9670119Y-13567143D01*
X9670119Y-13567143D02*
X9689167Y-13576667D01*
X9689167Y-13576667D02*
X9698691Y-13595714D01*
X9698691Y-13595714D02*
X9698691Y-13700476D01*
X9793929Y-13700476D02*
X9793929Y-13567143D01*
X9793929Y-13586190D02*
X9803452Y-13576667D01*
X9803452Y-13576667D02*
X9822500Y-13567143D01*
X9822500Y-13567143D02*
X9851072Y-13567143D01*
X9851072Y-13567143D02*
X9870119Y-13576667D01*
X9870119Y-13576667D02*
X9879643Y-13595714D01*
X9879643Y-13595714D02*
X9879643Y-13700476D01*
X9879643Y-13595714D02*
X9889167Y-13576667D01*
X9889167Y-13576667D02*
X9908214Y-13567143D01*
X9908214Y-13567143D02*
X9936786Y-13567143D01*
X9936786Y-13567143D02*
X9955833Y-13576667D01*
X9955833Y-13576667D02*
X9965357Y-13595714D01*
X9965357Y-13595714D02*
X9965357Y-13700476D01*
X10323452Y-13490952D02*
X10152024Y-13748095D01*
X10548214Y-13500476D02*
X10567262Y-13500476D01*
X10567262Y-13500476D02*
X10586310Y-13510000D01*
X10586310Y-13510000D02*
X10595833Y-13519524D01*
X10595833Y-13519524D02*
X10605357Y-13538571D01*
X10605357Y-13538571D02*
X10614881Y-13576667D01*
X10614881Y-13576667D02*
X10614881Y-13624286D01*
X10614881Y-13624286D02*
X10605357Y-13662381D01*
X10605357Y-13662381D02*
X10595833Y-13681428D01*
X10595833Y-13681428D02*
X10586310Y-13690952D01*
X10586310Y-13690952D02*
X10567262Y-13700476D01*
X10567262Y-13700476D02*
X10548214Y-13700476D01*
X10548214Y-13700476D02*
X10529167Y-13690952D01*
X10529167Y-13690952D02*
X10519643Y-13681428D01*
X10519643Y-13681428D02*
X10510119Y-13662381D01*
X10510119Y-13662381D02*
X10500595Y-13624286D01*
X10500595Y-13624286D02*
X10500595Y-13576667D01*
X10500595Y-13576667D02*
X10510119Y-13538571D01*
X10510119Y-13538571D02*
X10519643Y-13519524D01*
X10519643Y-13519524D02*
X10529167Y-13510000D01*
X10529167Y-13510000D02*
X10548214Y-13500476D01*
X10700595Y-13681428D02*
X10710119Y-13690952D01*
X10710119Y-13690952D02*
X10700595Y-13700476D01*
X10700595Y-13700476D02*
X10691072Y-13690952D01*
X10691072Y-13690952D02*
X10700595Y-13681428D01*
X10700595Y-13681428D02*
X10700595Y-13700476D01*
X10833929Y-13500476D02*
X10852976Y-13500476D01*
X10852976Y-13500476D02*
X10872024Y-13510000D01*
X10872024Y-13510000D02*
X10881548Y-13519524D01*
X10881548Y-13519524D02*
X10891072Y-13538571D01*
X10891072Y-13538571D02*
X10900595Y-13576667D01*
X10900595Y-13576667D02*
X10900595Y-13624286D01*
X10900595Y-13624286D02*
X10891072Y-13662381D01*
X10891072Y-13662381D02*
X10881548Y-13681428D01*
X10881548Y-13681428D02*
X10872024Y-13690952D01*
X10872024Y-13690952D02*
X10852976Y-13700476D01*
X10852976Y-13700476D02*
X10833929Y-13700476D01*
X10833929Y-13700476D02*
X10814881Y-13690952D01*
X10814881Y-13690952D02*
X10805357Y-13681428D01*
X10805357Y-13681428D02*
X10795833Y-13662381D01*
X10795833Y-13662381D02*
X10786310Y-13624286D01*
X10786310Y-13624286D02*
X10786310Y-13576667D01*
X10786310Y-13576667D02*
X10795833Y-13538571D01*
X10795833Y-13538571D02*
X10805357Y-13519524D01*
X10805357Y-13519524D02*
X10814881Y-13510000D01*
X10814881Y-13510000D02*
X10833929Y-13500476D01*
X11081548Y-13500476D02*
X10986310Y-13500476D01*
X10986310Y-13500476D02*
X10976786Y-13595714D01*
X10976786Y-13595714D02*
X10986310Y-13586190D01*
X10986310Y-13586190D02*
X11005357Y-13576667D01*
X11005357Y-13576667D02*
X11052976Y-13576667D01*
X11052976Y-13576667D02*
X11072024Y-13586190D01*
X11072024Y-13586190D02*
X11081548Y-13595714D01*
X11081548Y-13595714D02*
X11091072Y-13614762D01*
X11091072Y-13614762D02*
X11091072Y-13662381D01*
X11091072Y-13662381D02*
X11081548Y-13681428D01*
X11081548Y-13681428D02*
X11072024Y-13690952D01*
X11072024Y-13690952D02*
X11052976Y-13700476D01*
X11052976Y-13700476D02*
X11005357Y-13700476D01*
X11005357Y-13700476D02*
X10986310Y-13690952D01*
X10986310Y-13690952D02*
X10976786Y-13681428D01*
X11186310Y-13700476D02*
X11224405Y-13700476D01*
X11224405Y-13700476D02*
X11243452Y-13690952D01*
X11243452Y-13690952D02*
X11252976Y-13681428D01*
X11252976Y-13681428D02*
X11272024Y-13652857D01*
X11272024Y-13652857D02*
X11281548Y-13614762D01*
X11281548Y-13614762D02*
X11281548Y-13538571D01*
X11281548Y-13538571D02*
X11272024Y-13519524D01*
X11272024Y-13519524D02*
X11262500Y-13510000D01*
X11262500Y-13510000D02*
X11243452Y-13500476D01*
X11243452Y-13500476D02*
X11205357Y-13500476D01*
X11205357Y-13500476D02*
X11186310Y-13510000D01*
X11186310Y-13510000D02*
X11176786Y-13519524D01*
X11176786Y-13519524D02*
X11167262Y-13538571D01*
X11167262Y-13538571D02*
X11167262Y-13586190D01*
X11167262Y-13586190D02*
X11176786Y-13605238D01*
X11176786Y-13605238D02*
X11186310Y-13614762D01*
X11186310Y-13614762D02*
X11205357Y-13624286D01*
X11205357Y-13624286D02*
X11243452Y-13624286D01*
X11243452Y-13624286D02*
X11262500Y-13614762D01*
X11262500Y-13614762D02*
X11272024Y-13605238D01*
X11272024Y-13605238D02*
X11281548Y-13586190D01*
X11472024Y-13700476D02*
X11357738Y-13700476D01*
X11414881Y-13700476D02*
X11414881Y-13500476D01*
X11414881Y-13500476D02*
X11395833Y-13529048D01*
X11395833Y-13529048D02*
X11376786Y-13548095D01*
X11376786Y-13548095D02*
X11357738Y-13557619D01*
X11548214Y-13500476D02*
X11548214Y-13538571D01*
X11624405Y-13500476D02*
X11624405Y-13538571D01*
X11887262Y-13776667D02*
X11877738Y-13767143D01*
X11877738Y-13767143D02*
X11858691Y-13738571D01*
X11858691Y-13738571D02*
X11849167Y-13719524D01*
X11849167Y-13719524D02*
X11839643Y-13690952D01*
X11839643Y-13690952D02*
X11830119Y-13643333D01*
X11830119Y-13643333D02*
X11830119Y-13605238D01*
X11830119Y-13605238D02*
X11839643Y-13557619D01*
X11839643Y-13557619D02*
X11849167Y-13529048D01*
X11849167Y-13529048D02*
X11858691Y-13510000D01*
X11858691Y-13510000D02*
X11877738Y-13481428D01*
X11877738Y-13481428D02*
X11887262Y-13471905D01*
X11953929Y-13519524D02*
X11963452Y-13510000D01*
X11963452Y-13510000D02*
X11982500Y-13500476D01*
X11982500Y-13500476D02*
X12030119Y-13500476D01*
X12030119Y-13500476D02*
X12049167Y-13510000D01*
X12049167Y-13510000D02*
X12058691Y-13519524D01*
X12058691Y-13519524D02*
X12068214Y-13538571D01*
X12068214Y-13538571D02*
X12068214Y-13557619D01*
X12068214Y-13557619D02*
X12058691Y-13586190D01*
X12058691Y-13586190D02*
X11944405Y-13700476D01*
X11944405Y-13700476D02*
X12068214Y-13700476D01*
X12273929Y-13700476D02*
X12273929Y-13500476D01*
X12359643Y-13700476D02*
X12359643Y-13595714D01*
X12359643Y-13595714D02*
X12350119Y-13576667D01*
X12350119Y-13576667D02*
X12331072Y-13567143D01*
X12331072Y-13567143D02*
X12302500Y-13567143D01*
X12302500Y-13567143D02*
X12283452Y-13576667D01*
X12283452Y-13576667D02*
X12273929Y-13586190D01*
X12483452Y-13700476D02*
X12464405Y-13690952D01*
X12464405Y-13690952D02*
X12454881Y-13681428D01*
X12454881Y-13681428D02*
X12445357Y-13662381D01*
X12445357Y-13662381D02*
X12445357Y-13605238D01*
X12445357Y-13605238D02*
X12454881Y-13586190D01*
X12454881Y-13586190D02*
X12464405Y-13576667D01*
X12464405Y-13576667D02*
X12483452Y-13567143D01*
X12483452Y-13567143D02*
X12512024Y-13567143D01*
X12512024Y-13567143D02*
X12531072Y-13576667D01*
X12531072Y-13576667D02*
X12540595Y-13586190D01*
X12540595Y-13586190D02*
X12550119Y-13605238D01*
X12550119Y-13605238D02*
X12550119Y-13662381D01*
X12550119Y-13662381D02*
X12540595Y-13681428D01*
X12540595Y-13681428D02*
X12531072Y-13690952D01*
X12531072Y-13690952D02*
X12512024Y-13700476D01*
X12512024Y-13700476D02*
X12483452Y-13700476D01*
X12664405Y-13700476D02*
X12645357Y-13690952D01*
X12645357Y-13690952D02*
X12635833Y-13671905D01*
X12635833Y-13671905D02*
X12635833Y-13500476D01*
X12816786Y-13690952D02*
X12797738Y-13700476D01*
X12797738Y-13700476D02*
X12759643Y-13700476D01*
X12759643Y-13700476D02*
X12740595Y-13690952D01*
X12740595Y-13690952D02*
X12731072Y-13671905D01*
X12731072Y-13671905D02*
X12731072Y-13595714D01*
X12731072Y-13595714D02*
X12740595Y-13576667D01*
X12740595Y-13576667D02*
X12759643Y-13567143D01*
X12759643Y-13567143D02*
X12797738Y-13567143D01*
X12797738Y-13567143D02*
X12816786Y-13576667D01*
X12816786Y-13576667D02*
X12826310Y-13595714D01*
X12826310Y-13595714D02*
X12826310Y-13614762D01*
X12826310Y-13614762D02*
X12731072Y-13633809D01*
X12902500Y-13690952D02*
X12921548Y-13700476D01*
X12921548Y-13700476D02*
X12959643Y-13700476D01*
X12959643Y-13700476D02*
X12978691Y-13690952D01*
X12978691Y-13690952D02*
X12988214Y-13671905D01*
X12988214Y-13671905D02*
X12988214Y-13662381D01*
X12988214Y-13662381D02*
X12978691Y-13643333D01*
X12978691Y-13643333D02*
X12959643Y-13633809D01*
X12959643Y-13633809D02*
X12931072Y-13633809D01*
X12931072Y-13633809D02*
X12912024Y-13624286D01*
X12912024Y-13624286D02*
X12902500Y-13605238D01*
X12902500Y-13605238D02*
X12902500Y-13595714D01*
X12902500Y-13595714D02*
X12912024Y-13576667D01*
X12912024Y-13576667D02*
X12931072Y-13567143D01*
X12931072Y-13567143D02*
X12959643Y-13567143D01*
X12959643Y-13567143D02*
X12978691Y-13576667D01*
X13054881Y-13776667D02*
X13064405Y-13767143D01*
X13064405Y-13767143D02*
X13083453Y-13738571D01*
X13083453Y-13738571D02*
X13092976Y-13719524D01*
X13092976Y-13719524D02*
X13102500Y-13690952D01*
X13102500Y-13690952D02*
X13112024Y-13643333D01*
X13112024Y-13643333D02*
X13112024Y-13605238D01*
X13112024Y-13605238D02*
X13102500Y-13557619D01*
X13102500Y-13557619D02*
X13092976Y-13529048D01*
X13092976Y-13529048D02*
X13083453Y-13510000D01*
X13083453Y-13510000D02*
X13064405Y-13481428D01*
X13064405Y-13481428D02*
X13054881Y-13471905D01*
D17*
X8262500Y-13817000D02*
X8422500Y-13977000D01*
X8422500Y-13817000D02*
X8262500Y-13977000D01*
X8342500Y-13817000D02*
X8342500Y-13977000D01*
X8262500Y-13897000D02*
X8422500Y-13897000D01*
D11*
X8774881Y-13970476D02*
X8660595Y-13970476D01*
X8717738Y-13970476D02*
X8717738Y-13770476D01*
X8717738Y-13770476D02*
X8698690Y-13799048D01*
X8698690Y-13799048D02*
X8679643Y-13818095D01*
X8679643Y-13818095D02*
X8660595Y-13827619D01*
X8860595Y-13951428D02*
X8870119Y-13960952D01*
X8870119Y-13960952D02*
X8860595Y-13970476D01*
X8860595Y-13970476D02*
X8851071Y-13960952D01*
X8851071Y-13960952D02*
X8860595Y-13951428D01*
X8860595Y-13951428D02*
X8860595Y-13970476D01*
X9041548Y-13770476D02*
X9003452Y-13770476D01*
X9003452Y-13770476D02*
X8984405Y-13780000D01*
X8984405Y-13780000D02*
X8974881Y-13789524D01*
X8974881Y-13789524D02*
X8955833Y-13818095D01*
X8955833Y-13818095D02*
X8946310Y-13856190D01*
X8946310Y-13856190D02*
X8946310Y-13932381D01*
X8946310Y-13932381D02*
X8955833Y-13951428D01*
X8955833Y-13951428D02*
X8965357Y-13960952D01*
X8965357Y-13960952D02*
X8984405Y-13970476D01*
X8984405Y-13970476D02*
X9022500Y-13970476D01*
X9022500Y-13970476D02*
X9041548Y-13960952D01*
X9041548Y-13960952D02*
X9051071Y-13951428D01*
X9051071Y-13951428D02*
X9060595Y-13932381D01*
X9060595Y-13932381D02*
X9060595Y-13884762D01*
X9060595Y-13884762D02*
X9051071Y-13865714D01*
X9051071Y-13865714D02*
X9041548Y-13856190D01*
X9041548Y-13856190D02*
X9022500Y-13846667D01*
X9022500Y-13846667D02*
X8984405Y-13846667D01*
X8984405Y-13846667D02*
X8965357Y-13856190D01*
X8965357Y-13856190D02*
X8955833Y-13865714D01*
X8955833Y-13865714D02*
X8946310Y-13884762D01*
X9184405Y-13770476D02*
X9203452Y-13770476D01*
X9203452Y-13770476D02*
X9222500Y-13780000D01*
X9222500Y-13780000D02*
X9232024Y-13789524D01*
X9232024Y-13789524D02*
X9241548Y-13808571D01*
X9241548Y-13808571D02*
X9251071Y-13846667D01*
X9251071Y-13846667D02*
X9251071Y-13894286D01*
X9251071Y-13894286D02*
X9241548Y-13932381D01*
X9241548Y-13932381D02*
X9232024Y-13951428D01*
X9232024Y-13951428D02*
X9222500Y-13960952D01*
X9222500Y-13960952D02*
X9203452Y-13970476D01*
X9203452Y-13970476D02*
X9184405Y-13970476D01*
X9184405Y-13970476D02*
X9165357Y-13960952D01*
X9165357Y-13960952D02*
X9155833Y-13951428D01*
X9155833Y-13951428D02*
X9146310Y-13932381D01*
X9146310Y-13932381D02*
X9136786Y-13894286D01*
X9136786Y-13894286D02*
X9136786Y-13846667D01*
X9136786Y-13846667D02*
X9146310Y-13808571D01*
X9146310Y-13808571D02*
X9155833Y-13789524D01*
X9155833Y-13789524D02*
X9165357Y-13780000D01*
X9165357Y-13780000D02*
X9184405Y-13770476D01*
X9374881Y-13770476D02*
X9393929Y-13770476D01*
X9393929Y-13770476D02*
X9412976Y-13780000D01*
X9412976Y-13780000D02*
X9422500Y-13789524D01*
X9422500Y-13789524D02*
X9432024Y-13808571D01*
X9432024Y-13808571D02*
X9441548Y-13846667D01*
X9441548Y-13846667D02*
X9441548Y-13894286D01*
X9441548Y-13894286D02*
X9432024Y-13932381D01*
X9432024Y-13932381D02*
X9422500Y-13951428D01*
X9422500Y-13951428D02*
X9412976Y-13960952D01*
X9412976Y-13960952D02*
X9393929Y-13970476D01*
X9393929Y-13970476D02*
X9374881Y-13970476D01*
X9374881Y-13970476D02*
X9355833Y-13960952D01*
X9355833Y-13960952D02*
X9346310Y-13951428D01*
X9346310Y-13951428D02*
X9336786Y-13932381D01*
X9336786Y-13932381D02*
X9327262Y-13894286D01*
X9327262Y-13894286D02*
X9327262Y-13846667D01*
X9327262Y-13846667D02*
X9336786Y-13808571D01*
X9336786Y-13808571D02*
X9346310Y-13789524D01*
X9346310Y-13789524D02*
X9355833Y-13780000D01*
X9355833Y-13780000D02*
X9374881Y-13770476D01*
X9527262Y-13970476D02*
X9527262Y-13837143D01*
X9527262Y-13856190D02*
X9536786Y-13846667D01*
X9536786Y-13846667D02*
X9555833Y-13837143D01*
X9555833Y-13837143D02*
X9584405Y-13837143D01*
X9584405Y-13837143D02*
X9603452Y-13846667D01*
X9603452Y-13846667D02*
X9612976Y-13865714D01*
X9612976Y-13865714D02*
X9612976Y-13970476D01*
X9612976Y-13865714D02*
X9622500Y-13846667D01*
X9622500Y-13846667D02*
X9641548Y-13837143D01*
X9641548Y-13837143D02*
X9670119Y-13837143D01*
X9670119Y-13837143D02*
X9689167Y-13846667D01*
X9689167Y-13846667D02*
X9698691Y-13865714D01*
X9698691Y-13865714D02*
X9698691Y-13970476D01*
X9793929Y-13970476D02*
X9793929Y-13837143D01*
X9793929Y-13856190D02*
X9803452Y-13846667D01*
X9803452Y-13846667D02*
X9822500Y-13837143D01*
X9822500Y-13837143D02*
X9851072Y-13837143D01*
X9851072Y-13837143D02*
X9870119Y-13846667D01*
X9870119Y-13846667D02*
X9879643Y-13865714D01*
X9879643Y-13865714D02*
X9879643Y-13970476D01*
X9879643Y-13865714D02*
X9889167Y-13846667D01*
X9889167Y-13846667D02*
X9908214Y-13837143D01*
X9908214Y-13837143D02*
X9936786Y-13837143D01*
X9936786Y-13837143D02*
X9955833Y-13846667D01*
X9955833Y-13846667D02*
X9965357Y-13865714D01*
X9965357Y-13865714D02*
X9965357Y-13970476D01*
X10323452Y-13760952D02*
X10152024Y-14018095D01*
X10548214Y-13770476D02*
X10567262Y-13770476D01*
X10567262Y-13770476D02*
X10586310Y-13780000D01*
X10586310Y-13780000D02*
X10595833Y-13789524D01*
X10595833Y-13789524D02*
X10605357Y-13808571D01*
X10605357Y-13808571D02*
X10614881Y-13846667D01*
X10614881Y-13846667D02*
X10614881Y-13894286D01*
X10614881Y-13894286D02*
X10605357Y-13932381D01*
X10605357Y-13932381D02*
X10595833Y-13951428D01*
X10595833Y-13951428D02*
X10586310Y-13960952D01*
X10586310Y-13960952D02*
X10567262Y-13970476D01*
X10567262Y-13970476D02*
X10548214Y-13970476D01*
X10548214Y-13970476D02*
X10529167Y-13960952D01*
X10529167Y-13960952D02*
X10519643Y-13951428D01*
X10519643Y-13951428D02*
X10510119Y-13932381D01*
X10510119Y-13932381D02*
X10500595Y-13894286D01*
X10500595Y-13894286D02*
X10500595Y-13846667D01*
X10500595Y-13846667D02*
X10510119Y-13808571D01*
X10510119Y-13808571D02*
X10519643Y-13789524D01*
X10519643Y-13789524D02*
X10529167Y-13780000D01*
X10529167Y-13780000D02*
X10548214Y-13770476D01*
X10700595Y-13951428D02*
X10710119Y-13960952D01*
X10710119Y-13960952D02*
X10700595Y-13970476D01*
X10700595Y-13970476D02*
X10691072Y-13960952D01*
X10691072Y-13960952D02*
X10700595Y-13951428D01*
X10700595Y-13951428D02*
X10700595Y-13970476D01*
X10833929Y-13770476D02*
X10852976Y-13770476D01*
X10852976Y-13770476D02*
X10872024Y-13780000D01*
X10872024Y-13780000D02*
X10881548Y-13789524D01*
X10881548Y-13789524D02*
X10891072Y-13808571D01*
X10891072Y-13808571D02*
X10900595Y-13846667D01*
X10900595Y-13846667D02*
X10900595Y-13894286D01*
X10900595Y-13894286D02*
X10891072Y-13932381D01*
X10891072Y-13932381D02*
X10881548Y-13951428D01*
X10881548Y-13951428D02*
X10872024Y-13960952D01*
X10872024Y-13960952D02*
X10852976Y-13970476D01*
X10852976Y-13970476D02*
X10833929Y-13970476D01*
X10833929Y-13970476D02*
X10814881Y-13960952D01*
X10814881Y-13960952D02*
X10805357Y-13951428D01*
X10805357Y-13951428D02*
X10795833Y-13932381D01*
X10795833Y-13932381D02*
X10786310Y-13894286D01*
X10786310Y-13894286D02*
X10786310Y-13846667D01*
X10786310Y-13846667D02*
X10795833Y-13808571D01*
X10795833Y-13808571D02*
X10805357Y-13789524D01*
X10805357Y-13789524D02*
X10814881Y-13780000D01*
X10814881Y-13780000D02*
X10833929Y-13770476D01*
X11072024Y-13770476D02*
X11033929Y-13770476D01*
X11033929Y-13770476D02*
X11014881Y-13780000D01*
X11014881Y-13780000D02*
X11005357Y-13789524D01*
X11005357Y-13789524D02*
X10986310Y-13818095D01*
X10986310Y-13818095D02*
X10976786Y-13856190D01*
X10976786Y-13856190D02*
X10976786Y-13932381D01*
X10976786Y-13932381D02*
X10986310Y-13951428D01*
X10986310Y-13951428D02*
X10995833Y-13960952D01*
X10995833Y-13960952D02*
X11014881Y-13970476D01*
X11014881Y-13970476D02*
X11052976Y-13970476D01*
X11052976Y-13970476D02*
X11072024Y-13960952D01*
X11072024Y-13960952D02*
X11081548Y-13951428D01*
X11081548Y-13951428D02*
X11091072Y-13932381D01*
X11091072Y-13932381D02*
X11091072Y-13884762D01*
X11091072Y-13884762D02*
X11081548Y-13865714D01*
X11081548Y-13865714D02*
X11072024Y-13856190D01*
X11072024Y-13856190D02*
X11052976Y-13846667D01*
X11052976Y-13846667D02*
X11014881Y-13846667D01*
X11014881Y-13846667D02*
X10995833Y-13856190D01*
X10995833Y-13856190D02*
X10986310Y-13865714D01*
X10986310Y-13865714D02*
X10976786Y-13884762D01*
X11157738Y-13770476D02*
X11281548Y-13770476D01*
X11281548Y-13770476D02*
X11214881Y-13846667D01*
X11214881Y-13846667D02*
X11243452Y-13846667D01*
X11243452Y-13846667D02*
X11262500Y-13856190D01*
X11262500Y-13856190D02*
X11272024Y-13865714D01*
X11272024Y-13865714D02*
X11281548Y-13884762D01*
X11281548Y-13884762D02*
X11281548Y-13932381D01*
X11281548Y-13932381D02*
X11272024Y-13951428D01*
X11272024Y-13951428D02*
X11262500Y-13960952D01*
X11262500Y-13960952D02*
X11243452Y-13970476D01*
X11243452Y-13970476D02*
X11186310Y-13970476D01*
X11186310Y-13970476D02*
X11167262Y-13960952D01*
X11167262Y-13960952D02*
X11157738Y-13951428D01*
X11405357Y-13770476D02*
X11424405Y-13770476D01*
X11424405Y-13770476D02*
X11443452Y-13780000D01*
X11443452Y-13780000D02*
X11452976Y-13789524D01*
X11452976Y-13789524D02*
X11462500Y-13808571D01*
X11462500Y-13808571D02*
X11472024Y-13846667D01*
X11472024Y-13846667D02*
X11472024Y-13894286D01*
X11472024Y-13894286D02*
X11462500Y-13932381D01*
X11462500Y-13932381D02*
X11452976Y-13951428D01*
X11452976Y-13951428D02*
X11443452Y-13960952D01*
X11443452Y-13960952D02*
X11424405Y-13970476D01*
X11424405Y-13970476D02*
X11405357Y-13970476D01*
X11405357Y-13970476D02*
X11386310Y-13960952D01*
X11386310Y-13960952D02*
X11376786Y-13951428D01*
X11376786Y-13951428D02*
X11367262Y-13932381D01*
X11367262Y-13932381D02*
X11357738Y-13894286D01*
X11357738Y-13894286D02*
X11357738Y-13846667D01*
X11357738Y-13846667D02*
X11367262Y-13808571D01*
X11367262Y-13808571D02*
X11376786Y-13789524D01*
X11376786Y-13789524D02*
X11386310Y-13780000D01*
X11386310Y-13780000D02*
X11405357Y-13770476D01*
X11548214Y-13770476D02*
X11548214Y-13808571D01*
X11624405Y-13770476D02*
X11624405Y-13808571D01*
X11887262Y-14046667D02*
X11877738Y-14037143D01*
X11877738Y-14037143D02*
X11858691Y-14008571D01*
X11858691Y-14008571D02*
X11849167Y-13989524D01*
X11849167Y-13989524D02*
X11839643Y-13960952D01*
X11839643Y-13960952D02*
X11830119Y-13913333D01*
X11830119Y-13913333D02*
X11830119Y-13875238D01*
X11830119Y-13875238D02*
X11839643Y-13827619D01*
X11839643Y-13827619D02*
X11849167Y-13799048D01*
X11849167Y-13799048D02*
X11858691Y-13780000D01*
X11858691Y-13780000D02*
X11877738Y-13751428D01*
X11877738Y-13751428D02*
X11887262Y-13741905D01*
X12049167Y-13837143D02*
X12049167Y-13970476D01*
X12001548Y-13760952D02*
X11953929Y-13903809D01*
X11953929Y-13903809D02*
X12077738Y-13903809D01*
X12273929Y-13970476D02*
X12273929Y-13770476D01*
X12359643Y-13970476D02*
X12359643Y-13865714D01*
X12359643Y-13865714D02*
X12350119Y-13846667D01*
X12350119Y-13846667D02*
X12331072Y-13837143D01*
X12331072Y-13837143D02*
X12302500Y-13837143D01*
X12302500Y-13837143D02*
X12283452Y-13846667D01*
X12283452Y-13846667D02*
X12273929Y-13856190D01*
X12483452Y-13970476D02*
X12464405Y-13960952D01*
X12464405Y-13960952D02*
X12454881Y-13951428D01*
X12454881Y-13951428D02*
X12445357Y-13932381D01*
X12445357Y-13932381D02*
X12445357Y-13875238D01*
X12445357Y-13875238D02*
X12454881Y-13856190D01*
X12454881Y-13856190D02*
X12464405Y-13846667D01*
X12464405Y-13846667D02*
X12483452Y-13837143D01*
X12483452Y-13837143D02*
X12512024Y-13837143D01*
X12512024Y-13837143D02*
X12531072Y-13846667D01*
X12531072Y-13846667D02*
X12540595Y-13856190D01*
X12540595Y-13856190D02*
X12550119Y-13875238D01*
X12550119Y-13875238D02*
X12550119Y-13932381D01*
X12550119Y-13932381D02*
X12540595Y-13951428D01*
X12540595Y-13951428D02*
X12531072Y-13960952D01*
X12531072Y-13960952D02*
X12512024Y-13970476D01*
X12512024Y-13970476D02*
X12483452Y-13970476D01*
X12664405Y-13970476D02*
X12645357Y-13960952D01*
X12645357Y-13960952D02*
X12635833Y-13941905D01*
X12635833Y-13941905D02*
X12635833Y-13770476D01*
X12816786Y-13960952D02*
X12797738Y-13970476D01*
X12797738Y-13970476D02*
X12759643Y-13970476D01*
X12759643Y-13970476D02*
X12740595Y-13960952D01*
X12740595Y-13960952D02*
X12731072Y-13941905D01*
X12731072Y-13941905D02*
X12731072Y-13865714D01*
X12731072Y-13865714D02*
X12740595Y-13846667D01*
X12740595Y-13846667D02*
X12759643Y-13837143D01*
X12759643Y-13837143D02*
X12797738Y-13837143D01*
X12797738Y-13837143D02*
X12816786Y-13846667D01*
X12816786Y-13846667D02*
X12826310Y-13865714D01*
X12826310Y-13865714D02*
X12826310Y-13884762D01*
X12826310Y-13884762D02*
X12731072Y-13903809D01*
X12902500Y-13960952D02*
X12921548Y-13970476D01*
X12921548Y-13970476D02*
X12959643Y-13970476D01*
X12959643Y-13970476D02*
X12978691Y-13960952D01*
X12978691Y-13960952D02*
X12988214Y-13941905D01*
X12988214Y-13941905D02*
X12988214Y-13932381D01*
X12988214Y-13932381D02*
X12978691Y-13913333D01*
X12978691Y-13913333D02*
X12959643Y-13903809D01*
X12959643Y-13903809D02*
X12931072Y-13903809D01*
X12931072Y-13903809D02*
X12912024Y-13894286D01*
X12912024Y-13894286D02*
X12902500Y-13875238D01*
X12902500Y-13875238D02*
X12902500Y-13865714D01*
X12902500Y-13865714D02*
X12912024Y-13846667D01*
X12912024Y-13846667D02*
X12931072Y-13837143D01*
X12931072Y-13837143D02*
X12959643Y-13837143D01*
X12959643Y-13837143D02*
X12978691Y-13846667D01*
X13054881Y-14046667D02*
X13064405Y-14037143D01*
X13064405Y-14037143D02*
X13083453Y-14008571D01*
X13083453Y-14008571D02*
X13092976Y-13989524D01*
X13092976Y-13989524D02*
X13102500Y-13960952D01*
X13102500Y-13960952D02*
X13112024Y-13913333D01*
X13112024Y-13913333D02*
X13112024Y-13875238D01*
X13112024Y-13875238D02*
X13102500Y-13827619D01*
X13102500Y-13827619D02*
X13092976Y-13799048D01*
X13092976Y-13799048D02*
X13083453Y-13780000D01*
X13083453Y-13780000D02*
X13064405Y-13751428D01*
X13064405Y-13751428D02*
X13054881Y-13741905D01*
X8222500Y-14077000D02*
X8422500Y-14277000D01*
X8422500Y-14077000D02*
X8222500Y-14277000D01*
X8393211Y-14247711D02*
X8393211Y-14106289D01*
X8251789Y-14106289D01*
X8251789Y-14247711D01*
X8393211Y-14247711D01*
X8651071Y-14050476D02*
X8774881Y-14050476D01*
X8774881Y-14050476D02*
X8708214Y-14126667D01*
X8708214Y-14126667D02*
X8736786Y-14126667D01*
X8736786Y-14126667D02*
X8755833Y-14136190D01*
X8755833Y-14136190D02*
X8765357Y-14145714D01*
X8765357Y-14145714D02*
X8774881Y-14164762D01*
X8774881Y-14164762D02*
X8774881Y-14212381D01*
X8774881Y-14212381D02*
X8765357Y-14231428D01*
X8765357Y-14231428D02*
X8755833Y-14240952D01*
X8755833Y-14240952D02*
X8736786Y-14250476D01*
X8736786Y-14250476D02*
X8679643Y-14250476D01*
X8679643Y-14250476D02*
X8660595Y-14240952D01*
X8660595Y-14240952D02*
X8651071Y-14231428D01*
X8860595Y-14231428D02*
X8870119Y-14240952D01*
X8870119Y-14240952D02*
X8860595Y-14250476D01*
X8860595Y-14250476D02*
X8851071Y-14240952D01*
X8851071Y-14240952D02*
X8860595Y-14231428D01*
X8860595Y-14231428D02*
X8860595Y-14250476D01*
X8946310Y-14069524D02*
X8955833Y-14060000D01*
X8955833Y-14060000D02*
X8974881Y-14050476D01*
X8974881Y-14050476D02*
X9022500Y-14050476D01*
X9022500Y-14050476D02*
X9041548Y-14060000D01*
X9041548Y-14060000D02*
X9051071Y-14069524D01*
X9051071Y-14069524D02*
X9060595Y-14088571D01*
X9060595Y-14088571D02*
X9060595Y-14107619D01*
X9060595Y-14107619D02*
X9051071Y-14136190D01*
X9051071Y-14136190D02*
X8936786Y-14250476D01*
X8936786Y-14250476D02*
X9060595Y-14250476D01*
X9184405Y-14050476D02*
X9203452Y-14050476D01*
X9203452Y-14050476D02*
X9222500Y-14060000D01*
X9222500Y-14060000D02*
X9232024Y-14069524D01*
X9232024Y-14069524D02*
X9241548Y-14088571D01*
X9241548Y-14088571D02*
X9251071Y-14126667D01*
X9251071Y-14126667D02*
X9251071Y-14174286D01*
X9251071Y-14174286D02*
X9241548Y-14212381D01*
X9241548Y-14212381D02*
X9232024Y-14231428D01*
X9232024Y-14231428D02*
X9222500Y-14240952D01*
X9222500Y-14240952D02*
X9203452Y-14250476D01*
X9203452Y-14250476D02*
X9184405Y-14250476D01*
X9184405Y-14250476D02*
X9165357Y-14240952D01*
X9165357Y-14240952D02*
X9155833Y-14231428D01*
X9155833Y-14231428D02*
X9146310Y-14212381D01*
X9146310Y-14212381D02*
X9136786Y-14174286D01*
X9136786Y-14174286D02*
X9136786Y-14126667D01*
X9136786Y-14126667D02*
X9146310Y-14088571D01*
X9146310Y-14088571D02*
X9155833Y-14069524D01*
X9155833Y-14069524D02*
X9165357Y-14060000D01*
X9165357Y-14060000D02*
X9184405Y-14050476D01*
X9374881Y-14050476D02*
X9393929Y-14050476D01*
X9393929Y-14050476D02*
X9412976Y-14060000D01*
X9412976Y-14060000D02*
X9422500Y-14069524D01*
X9422500Y-14069524D02*
X9432024Y-14088571D01*
X9432024Y-14088571D02*
X9441548Y-14126667D01*
X9441548Y-14126667D02*
X9441548Y-14174286D01*
X9441548Y-14174286D02*
X9432024Y-14212381D01*
X9432024Y-14212381D02*
X9422500Y-14231428D01*
X9422500Y-14231428D02*
X9412976Y-14240952D01*
X9412976Y-14240952D02*
X9393929Y-14250476D01*
X9393929Y-14250476D02*
X9374881Y-14250476D01*
X9374881Y-14250476D02*
X9355833Y-14240952D01*
X9355833Y-14240952D02*
X9346310Y-14231428D01*
X9346310Y-14231428D02*
X9336786Y-14212381D01*
X9336786Y-14212381D02*
X9327262Y-14174286D01*
X9327262Y-14174286D02*
X9327262Y-14126667D01*
X9327262Y-14126667D02*
X9336786Y-14088571D01*
X9336786Y-14088571D02*
X9346310Y-14069524D01*
X9346310Y-14069524D02*
X9355833Y-14060000D01*
X9355833Y-14060000D02*
X9374881Y-14050476D01*
X9527262Y-14250476D02*
X9527262Y-14117143D01*
X9527262Y-14136190D02*
X9536786Y-14126667D01*
X9536786Y-14126667D02*
X9555833Y-14117143D01*
X9555833Y-14117143D02*
X9584405Y-14117143D01*
X9584405Y-14117143D02*
X9603452Y-14126667D01*
X9603452Y-14126667D02*
X9612976Y-14145714D01*
X9612976Y-14145714D02*
X9612976Y-14250476D01*
X9612976Y-14145714D02*
X9622500Y-14126667D01*
X9622500Y-14126667D02*
X9641548Y-14117143D01*
X9641548Y-14117143D02*
X9670119Y-14117143D01*
X9670119Y-14117143D02*
X9689167Y-14126667D01*
X9689167Y-14126667D02*
X9698691Y-14145714D01*
X9698691Y-14145714D02*
X9698691Y-14250476D01*
X9793929Y-14250476D02*
X9793929Y-14117143D01*
X9793929Y-14136190D02*
X9803452Y-14126667D01*
X9803452Y-14126667D02*
X9822500Y-14117143D01*
X9822500Y-14117143D02*
X9851072Y-14117143D01*
X9851072Y-14117143D02*
X9870119Y-14126667D01*
X9870119Y-14126667D02*
X9879643Y-14145714D01*
X9879643Y-14145714D02*
X9879643Y-14250476D01*
X9879643Y-14145714D02*
X9889167Y-14126667D01*
X9889167Y-14126667D02*
X9908214Y-14117143D01*
X9908214Y-14117143D02*
X9936786Y-14117143D01*
X9936786Y-14117143D02*
X9955833Y-14126667D01*
X9955833Y-14126667D02*
X9965357Y-14145714D01*
X9965357Y-14145714D02*
X9965357Y-14250476D01*
X10323452Y-14040952D02*
X10152024Y-14298095D01*
X10548214Y-14050476D02*
X10567262Y-14050476D01*
X10567262Y-14050476D02*
X10586310Y-14060000D01*
X10586310Y-14060000D02*
X10595833Y-14069524D01*
X10595833Y-14069524D02*
X10605357Y-14088571D01*
X10605357Y-14088571D02*
X10614881Y-14126667D01*
X10614881Y-14126667D02*
X10614881Y-14174286D01*
X10614881Y-14174286D02*
X10605357Y-14212381D01*
X10605357Y-14212381D02*
X10595833Y-14231428D01*
X10595833Y-14231428D02*
X10586310Y-14240952D01*
X10586310Y-14240952D02*
X10567262Y-14250476D01*
X10567262Y-14250476D02*
X10548214Y-14250476D01*
X10548214Y-14250476D02*
X10529167Y-14240952D01*
X10529167Y-14240952D02*
X10519643Y-14231428D01*
X10519643Y-14231428D02*
X10510119Y-14212381D01*
X10510119Y-14212381D02*
X10500595Y-14174286D01*
X10500595Y-14174286D02*
X10500595Y-14126667D01*
X10500595Y-14126667D02*
X10510119Y-14088571D01*
X10510119Y-14088571D02*
X10519643Y-14069524D01*
X10519643Y-14069524D02*
X10529167Y-14060000D01*
X10529167Y-14060000D02*
X10548214Y-14050476D01*
X10700595Y-14231428D02*
X10710119Y-14240952D01*
X10710119Y-14240952D02*
X10700595Y-14250476D01*
X10700595Y-14250476D02*
X10691072Y-14240952D01*
X10691072Y-14240952D02*
X10700595Y-14231428D01*
X10700595Y-14231428D02*
X10700595Y-14250476D01*
X10900595Y-14250476D02*
X10786310Y-14250476D01*
X10843452Y-14250476D02*
X10843452Y-14050476D01*
X10843452Y-14050476D02*
X10824405Y-14079048D01*
X10824405Y-14079048D02*
X10805357Y-14098095D01*
X10805357Y-14098095D02*
X10786310Y-14107619D01*
X10976786Y-14069524D02*
X10986310Y-14060000D01*
X10986310Y-14060000D02*
X11005357Y-14050476D01*
X11005357Y-14050476D02*
X11052976Y-14050476D01*
X11052976Y-14050476D02*
X11072024Y-14060000D01*
X11072024Y-14060000D02*
X11081548Y-14069524D01*
X11081548Y-14069524D02*
X11091072Y-14088571D01*
X11091072Y-14088571D02*
X11091072Y-14107619D01*
X11091072Y-14107619D02*
X11081548Y-14136190D01*
X11081548Y-14136190D02*
X10967262Y-14250476D01*
X10967262Y-14250476D02*
X11091072Y-14250476D01*
X11262500Y-14050476D02*
X11224405Y-14050476D01*
X11224405Y-14050476D02*
X11205357Y-14060000D01*
X11205357Y-14060000D02*
X11195833Y-14069524D01*
X11195833Y-14069524D02*
X11176786Y-14098095D01*
X11176786Y-14098095D02*
X11167262Y-14136190D01*
X11167262Y-14136190D02*
X11167262Y-14212381D01*
X11167262Y-14212381D02*
X11176786Y-14231428D01*
X11176786Y-14231428D02*
X11186310Y-14240952D01*
X11186310Y-14240952D02*
X11205357Y-14250476D01*
X11205357Y-14250476D02*
X11243452Y-14250476D01*
X11243452Y-14250476D02*
X11262500Y-14240952D01*
X11262500Y-14240952D02*
X11272024Y-14231428D01*
X11272024Y-14231428D02*
X11281548Y-14212381D01*
X11281548Y-14212381D02*
X11281548Y-14164762D01*
X11281548Y-14164762D02*
X11272024Y-14145714D01*
X11272024Y-14145714D02*
X11262500Y-14136190D01*
X11262500Y-14136190D02*
X11243452Y-14126667D01*
X11243452Y-14126667D02*
X11205357Y-14126667D01*
X11205357Y-14126667D02*
X11186310Y-14136190D01*
X11186310Y-14136190D02*
X11176786Y-14145714D01*
X11176786Y-14145714D02*
X11167262Y-14164762D01*
X11405357Y-14050476D02*
X11424405Y-14050476D01*
X11424405Y-14050476D02*
X11443452Y-14060000D01*
X11443452Y-14060000D02*
X11452976Y-14069524D01*
X11452976Y-14069524D02*
X11462500Y-14088571D01*
X11462500Y-14088571D02*
X11472024Y-14126667D01*
X11472024Y-14126667D02*
X11472024Y-14174286D01*
X11472024Y-14174286D02*
X11462500Y-14212381D01*
X11462500Y-14212381D02*
X11452976Y-14231428D01*
X11452976Y-14231428D02*
X11443452Y-14240952D01*
X11443452Y-14240952D02*
X11424405Y-14250476D01*
X11424405Y-14250476D02*
X11405357Y-14250476D01*
X11405357Y-14250476D02*
X11386310Y-14240952D01*
X11386310Y-14240952D02*
X11376786Y-14231428D01*
X11376786Y-14231428D02*
X11367262Y-14212381D01*
X11367262Y-14212381D02*
X11357738Y-14174286D01*
X11357738Y-14174286D02*
X11357738Y-14126667D01*
X11357738Y-14126667D02*
X11367262Y-14088571D01*
X11367262Y-14088571D02*
X11376786Y-14069524D01*
X11376786Y-14069524D02*
X11386310Y-14060000D01*
X11386310Y-14060000D02*
X11405357Y-14050476D01*
X11548214Y-14050476D02*
X11548214Y-14088571D01*
X11624405Y-14050476D02*
X11624405Y-14088571D01*
X11887262Y-14326667D02*
X11877738Y-14317143D01*
X11877738Y-14317143D02*
X11858691Y-14288571D01*
X11858691Y-14288571D02*
X11849167Y-14269524D01*
X11849167Y-14269524D02*
X11839643Y-14240952D01*
X11839643Y-14240952D02*
X11830119Y-14193333D01*
X11830119Y-14193333D02*
X11830119Y-14155238D01*
X11830119Y-14155238D02*
X11839643Y-14107619D01*
X11839643Y-14107619D02*
X11849167Y-14079048D01*
X11849167Y-14079048D02*
X11858691Y-14060000D01*
X11858691Y-14060000D02*
X11877738Y-14031428D01*
X11877738Y-14031428D02*
X11887262Y-14021905D01*
X11953929Y-14069524D02*
X11963452Y-14060000D01*
X11963452Y-14060000D02*
X11982500Y-14050476D01*
X11982500Y-14050476D02*
X12030119Y-14050476D01*
X12030119Y-14050476D02*
X12049167Y-14060000D01*
X12049167Y-14060000D02*
X12058691Y-14069524D01*
X12058691Y-14069524D02*
X12068214Y-14088571D01*
X12068214Y-14088571D02*
X12068214Y-14107619D01*
X12068214Y-14107619D02*
X12058691Y-14136190D01*
X12058691Y-14136190D02*
X11944405Y-14250476D01*
X11944405Y-14250476D02*
X12068214Y-14250476D01*
X12273929Y-14250476D02*
X12273929Y-14050476D01*
X12359643Y-14250476D02*
X12359643Y-14145714D01*
X12359643Y-14145714D02*
X12350119Y-14126667D01*
X12350119Y-14126667D02*
X12331072Y-14117143D01*
X12331072Y-14117143D02*
X12302500Y-14117143D01*
X12302500Y-14117143D02*
X12283452Y-14126667D01*
X12283452Y-14126667D02*
X12273929Y-14136190D01*
X12483452Y-14250476D02*
X12464405Y-14240952D01*
X12464405Y-14240952D02*
X12454881Y-14231428D01*
X12454881Y-14231428D02*
X12445357Y-14212381D01*
X12445357Y-14212381D02*
X12445357Y-14155238D01*
X12445357Y-14155238D02*
X12454881Y-14136190D01*
X12454881Y-14136190D02*
X12464405Y-14126667D01*
X12464405Y-14126667D02*
X12483452Y-14117143D01*
X12483452Y-14117143D02*
X12512024Y-14117143D01*
X12512024Y-14117143D02*
X12531072Y-14126667D01*
X12531072Y-14126667D02*
X12540595Y-14136190D01*
X12540595Y-14136190D02*
X12550119Y-14155238D01*
X12550119Y-14155238D02*
X12550119Y-14212381D01*
X12550119Y-14212381D02*
X12540595Y-14231428D01*
X12540595Y-14231428D02*
X12531072Y-14240952D01*
X12531072Y-14240952D02*
X12512024Y-14250476D01*
X12512024Y-14250476D02*
X12483452Y-14250476D01*
X12664405Y-14250476D02*
X12645357Y-14240952D01*
X12645357Y-14240952D02*
X12635833Y-14221905D01*
X12635833Y-14221905D02*
X12635833Y-14050476D01*
X12816786Y-14240952D02*
X12797738Y-14250476D01*
X12797738Y-14250476D02*
X12759643Y-14250476D01*
X12759643Y-14250476D02*
X12740595Y-14240952D01*
X12740595Y-14240952D02*
X12731072Y-14221905D01*
X12731072Y-14221905D02*
X12731072Y-14145714D01*
X12731072Y-14145714D02*
X12740595Y-14126667D01*
X12740595Y-14126667D02*
X12759643Y-14117143D01*
X12759643Y-14117143D02*
X12797738Y-14117143D01*
X12797738Y-14117143D02*
X12816786Y-14126667D01*
X12816786Y-14126667D02*
X12826310Y-14145714D01*
X12826310Y-14145714D02*
X12826310Y-14164762D01*
X12826310Y-14164762D02*
X12731072Y-14183809D01*
X12902500Y-14240952D02*
X12921548Y-14250476D01*
X12921548Y-14250476D02*
X12959643Y-14250476D01*
X12959643Y-14250476D02*
X12978691Y-14240952D01*
X12978691Y-14240952D02*
X12988214Y-14221905D01*
X12988214Y-14221905D02*
X12988214Y-14212381D01*
X12988214Y-14212381D02*
X12978691Y-14193333D01*
X12978691Y-14193333D02*
X12959643Y-14183809D01*
X12959643Y-14183809D02*
X12931072Y-14183809D01*
X12931072Y-14183809D02*
X12912024Y-14174286D01*
X12912024Y-14174286D02*
X12902500Y-14155238D01*
X12902500Y-14155238D02*
X12902500Y-14145714D01*
X12902500Y-14145714D02*
X12912024Y-14126667D01*
X12912024Y-14126667D02*
X12931072Y-14117143D01*
X12931072Y-14117143D02*
X12959643Y-14117143D01*
X12959643Y-14117143D02*
X12978691Y-14126667D01*
X13054881Y-14326667D02*
X13064405Y-14317143D01*
X13064405Y-14317143D02*
X13083453Y-14288571D01*
X13083453Y-14288571D02*
X13092976Y-14269524D01*
X13092976Y-14269524D02*
X13102500Y-14240952D01*
X13102500Y-14240952D02*
X13112024Y-14193333D01*
X13112024Y-14193333D02*
X13112024Y-14155238D01*
X13112024Y-14155238D02*
X13102500Y-14107619D01*
X13102500Y-14107619D02*
X13092976Y-14079048D01*
X13092976Y-14079048D02*
X13083453Y-14060000D01*
X13083453Y-14060000D02*
X13064405Y-14031428D01*
X13064405Y-14031428D02*
X13054881Y-14021905D01*
M02*
