G04 #@! TF.GenerationSoftware,KiCad,Pcbnew,(7.0.0-0)*
G04 #@! TF.CreationDate,2023-11-03T12:50:16+02:00*
G04 #@! TF.ProjectId,Untitled,556e7469-746c-4656-942e-6b696361645f,rev?*
G04 #@! TF.SameCoordinates,Original*
G04 #@! TF.FileFunction,Paste,Top*
G04 #@! TF.FilePolarity,Positive*
%FSLAX46Y46*%
G04 Gerber Fmt 4.6, Leading zero omitted, Abs format (unit mm)*
G04 Created by KiCad (PCBNEW (7.0.0-0)) date 2023-11-03 12:50:16*
%MOMM*%
%LPD*%
G01*
G04 APERTURE LIST*
G04 Aperture macros list*
%AMRoundRect*
0 Rectangle with rounded corners*
0 $1 Rounding radius*
0 $2 $3 $4 $5 $6 $7 $8 $9 X,Y pos of 4 corners*
0 Add a 4 corners polygon primitive as box body*
4,1,4,$2,$3,$4,$5,$6,$7,$8,$9,$2,$3,0*
0 Add four circle primitives for the rounded corners*
1,1,$1+$1,$2,$3*
1,1,$1+$1,$4,$5*
1,1,$1+$1,$6,$7*
1,1,$1+$1,$8,$9*
0 Add four rect primitives between the rounded corners*
20,1,$1+$1,$2,$3,$4,$5,0*
20,1,$1+$1,$4,$5,$6,$7,0*
20,1,$1+$1,$6,$7,$8,$9,0*
20,1,$1+$1,$8,$9,$2,$3,0*%
G04 Aperture macros list end*
%ADD10R,3.175000X4.950000*%
%ADD11RoundRect,0.225000X-0.250000X0.225000X-0.250000X-0.225000X0.250000X-0.225000X0.250000X0.225000X0*%
%ADD12RoundRect,0.243750X0.456250X-0.243750X0.456250X0.243750X-0.456250X0.243750X-0.456250X-0.243750X0*%
%ADD13RoundRect,0.200000X-0.275000X0.200000X-0.275000X-0.200000X0.275000X-0.200000X0.275000X0.200000X0*%
%ADD14RoundRect,0.200000X0.275000X-0.200000X0.275000X0.200000X-0.275000X0.200000X-0.275000X-0.200000X0*%
%ADD15RoundRect,0.135000X0.200000X0.135000X-0.200000X0.135000X-0.200000X-0.135000X0.200000X-0.135000X0*%
%ADD16RoundRect,0.062500X0.350000X0.062500X-0.350000X0.062500X-0.350000X-0.062500X0.350000X-0.062500X0*%
%ADD17RoundRect,0.225000X0.225000X0.250000X-0.225000X0.250000X-0.225000X-0.250000X0.225000X-0.250000X0*%
%ADD18RoundRect,0.150000X0.825000X0.150000X-0.825000X0.150000X-0.825000X-0.150000X0.825000X-0.150000X0*%
%ADD19R,7.340000X6.350000*%
%ADD20RoundRect,0.140000X0.170000X-0.140000X0.170000X0.140000X-0.170000X0.140000X-0.170000X-0.140000X0*%
%ADD21RoundRect,0.140000X0.140000X0.170000X-0.140000X0.170000X-0.140000X-0.170000X0.140000X-0.170000X0*%
%ADD22RoundRect,0.200000X-0.200000X-0.275000X0.200000X-0.275000X0.200000X0.275000X-0.200000X0.275000X0*%
%ADD23RoundRect,0.140000X-0.140000X-0.170000X0.140000X-0.170000X0.140000X0.170000X-0.140000X0.170000X0*%
%ADD24RoundRect,0.250000X-1.000000X1.500000X-1.000000X-1.500000X1.000000X-1.500000X1.000000X1.500000X0*%
%ADD25R,1.560000X0.650000*%
%ADD26RoundRect,0.200000X0.200000X0.275000X-0.200000X0.275000X-0.200000X-0.275000X0.200000X-0.275000X0*%
%ADD27RoundRect,0.225000X0.250000X-0.225000X0.250000X0.225000X-0.250000X0.225000X-0.250000X-0.225000X0*%
%ADD28RoundRect,0.150000X-0.675000X-0.150000X0.675000X-0.150000X0.675000X0.150000X-0.675000X0.150000X0*%
%ADD29RoundRect,0.250000X1.250000X0.550000X-1.250000X0.550000X-1.250000X-0.550000X1.250000X-0.550000X0*%
%ADD30RoundRect,0.250000X-1.950000X-1.000000X1.950000X-1.000000X1.950000X1.000000X-1.950000X1.000000X0*%
G04 APERTURE END LIST*
D10*
X177707499Y-80263999D03*
X168692499Y-80263999D03*
D11*
X164900000Y-62225000D03*
X164900000Y-63775000D03*
D12*
X119500000Y-107677500D03*
X119500000Y-105802500D03*
D13*
X103900000Y-111925500D03*
X103900000Y-113575500D03*
X139500000Y-111949000D03*
X139500000Y-113599000D03*
D14*
X154150000Y-56712000D03*
X154150000Y-55062000D03*
D13*
X125600000Y-111935000D03*
X125600000Y-113585000D03*
D14*
X149241000Y-103188000D03*
X149241000Y-101538000D03*
D15*
X152855000Y-89092000D03*
X152855000Y-88412000D03*
X152035000Y-89092000D03*
X152035000Y-88412000D03*
D16*
X153882500Y-89252000D03*
X153882500Y-88752000D03*
X153882500Y-88252000D03*
X151007500Y-88252000D03*
X151007500Y-88752000D03*
X151007500Y-89252000D03*
D17*
X165576000Y-89366000D03*
X164026000Y-89366000D03*
D18*
X108647000Y-95312000D03*
X108647000Y-94042000D03*
X108647000Y-92772000D03*
X108647000Y-91502000D03*
X108647000Y-90232000D03*
X108647000Y-88962000D03*
X108647000Y-87692000D03*
X108647000Y-86422000D03*
X103697000Y-86422000D03*
X103697000Y-87692000D03*
X103697000Y-88962000D03*
X103697000Y-90232000D03*
X103697000Y-91502000D03*
X103697000Y-92772000D03*
X103697000Y-94042000D03*
X103697000Y-95312000D03*
D14*
X103900000Y-101725000D03*
X103900000Y-100075000D03*
D19*
X182941599Y-35458399D03*
X104281599Y-35458399D03*
D12*
X131000000Y-107877500D03*
X131000000Y-106002500D03*
D14*
X159300000Y-103125000D03*
X159300000Y-101475000D03*
D20*
X112203000Y-93732000D03*
X112203000Y-92772000D03*
D12*
X139500000Y-107440000D03*
X139500000Y-105565000D03*
D21*
X157350000Y-57112000D03*
X156390000Y-57112000D03*
D22*
X165425000Y-55212000D03*
X167075000Y-55212000D03*
D23*
X110707000Y-88708000D03*
X111667000Y-88708000D03*
X161600000Y-59600000D03*
X162560000Y-59600000D03*
D13*
X114296000Y-111703500D03*
X114296000Y-113353500D03*
D14*
X153600000Y-103300000D03*
X153600000Y-101650000D03*
D24*
X142500000Y-53292500D03*
X142500000Y-59792500D03*
D25*
X159149999Y-55149999D03*
X159149999Y-56099999D03*
X159149999Y-57049999D03*
X161849999Y-57049999D03*
X161849999Y-55149999D03*
D12*
X114296000Y-107702500D03*
X114296000Y-105827500D03*
X103900000Y-108100000D03*
X103900000Y-106225000D03*
D26*
X191050000Y-35400000D03*
X189400000Y-35400000D03*
D13*
X119500000Y-111694000D03*
X119500000Y-113344000D03*
D12*
X125600000Y-107840000D03*
X125600000Y-105965000D03*
D27*
X111187000Y-91515000D03*
X111187000Y-89965000D03*
D14*
X179920000Y-88325000D03*
X179920000Y-86675000D03*
D26*
X192625000Y-89400000D03*
X190975000Y-89400000D03*
D22*
X178775000Y-90800000D03*
X180425000Y-90800000D03*
D28*
X170495000Y-86995000D03*
X170495000Y-88265000D03*
X170495000Y-89535000D03*
X170495000Y-90805000D03*
X175745000Y-90805000D03*
X175745000Y-89535000D03*
X175745000Y-88265000D03*
X175745000Y-86995000D03*
D14*
X131000000Y-113528500D03*
X131000000Y-111878500D03*
D29*
X186300000Y-66200000D03*
X181900000Y-66200000D03*
D22*
X174095000Y-93500000D03*
X175745000Y-93500000D03*
D30*
X185700000Y-97600000D03*
X193100000Y-97600000D03*
D23*
X165320000Y-104300000D03*
X166280000Y-104300000D03*
D14*
X114300000Y-101537500D03*
X114300000Y-99887500D03*
D22*
X103575000Y-83440000D03*
X105225000Y-83440000D03*
D20*
X111380000Y-97320000D03*
X111380000Y-96360000D03*
M02*
