G04 #@! TF.GenerationSoftware,KiCad,Pcbnew,(7.0.0-0)*
G04 #@! TF.CreationDate,2023-11-03T12:50:16+02:00*
G04 #@! TF.ProjectId,Untitled,556e7469-746c-4656-942e-6b696361645f,rev?*
G04 #@! TF.SameCoordinates,Original*
G04 #@! TF.FileFunction,Legend,Bot*
G04 #@! TF.FilePolarity,Positive*
%FSLAX46Y46*%
G04 Gerber Fmt 4.6, Leading zero omitted, Abs format (unit mm)*
G04 Created by KiCad (PCBNEW (7.0.0-0)) date 2023-11-03 12:50:16*
%MOMM*%
%LPD*%
G01*
G04 APERTURE LIST*
%ADD10R,3.200000X3.200000*%
%ADD11O,3.200000X3.200000*%
%ADD12C,2.390000*%
%ADD13C,3.450000*%
%ADD14R,2.000000X2.000000*%
%ADD15O,2.000000X1.600000*%
%ADD16R,0.850000X0.850000*%
%ADD17R,1.700000X1.700000*%
%ADD18O,1.700000X1.700000*%
%ADD19C,3.200000*%
%ADD20C,4.000000*%
%ADD21R,1.600000X1.600000*%
%ADD22C,1.600000*%
%ADD23R,2.400000X2.400000*%
%ADD24O,2.400000X2.400000*%
%ADD25R,2.000000X4.600000*%
%ADD26O,2.000000X4.200000*%
%ADD27O,4.200000X2.000000*%
%ADD28C,3.000000*%
G04 APERTURE END LIST*
%LPC*%
D10*
X165179999Y-97499999D03*
D11*
X180419999Y-97499999D03*
D12*
X179541600Y-43458400D03*
D13*
X171211600Y-27458400D03*
X116011600Y-43458400D03*
D14*
X119499999Y-76899999D03*
D15*
X119499999Y-79439999D03*
X119499999Y-81979999D03*
X119499999Y-84519999D03*
X119499999Y-87059999D03*
X119499999Y-89599999D03*
X119499999Y-92139999D03*
X119499999Y-94679999D03*
X142359999Y-94679999D03*
X142359999Y-92139999D03*
X142359999Y-89599999D03*
X142359999Y-87059999D03*
X142359999Y-84519999D03*
X142359999Y-81979999D03*
X142359999Y-79439999D03*
X142359999Y-76899999D03*
D16*
X187399999Y-84999999D03*
D17*
X109099999Y-102799999D03*
D18*
X109099999Y-105339999D03*
X109099999Y-107879999D03*
X109099999Y-110419999D03*
D19*
X191960000Y-28790000D03*
D10*
X178815999Y-70611999D03*
D11*
X163575999Y-70611999D03*
D17*
X152779999Y-92644999D03*
D18*
X152779999Y-95184999D03*
D20*
X95859531Y-79703200D03*
X95859531Y-104703200D03*
D21*
X97279530Y-86663199D03*
D22*
X97279531Y-89433200D03*
X97279531Y-92203200D03*
X97279531Y-94973200D03*
X97279531Y-97743200D03*
X94439531Y-88048200D03*
X94439531Y-90818200D03*
X94439531Y-93588200D03*
X94439531Y-96358200D03*
D23*
X132899999Y-53349999D03*
D24*
X132899999Y-66049999D03*
D19*
X179600000Y-106090000D03*
X105200000Y-69900000D03*
X150540000Y-68230000D03*
D25*
X173499999Y-53699999D03*
D26*
X179799999Y-53699999D03*
D27*
X176399999Y-48899999D03*
D28*
X104524000Y-53340000D03*
X127124000Y-53340000D03*
D16*
X190999999Y-80799999D03*
M02*
